SplineFontDB: 3.0
FontName: SansGuiltExtrude
FullName: Sans Guilt Extrude
FamilyName: Sans Guilt Extrude
Weight: Medium
Copyright: Created by RCA Workshop "Read the Fucking Manual" with FontForge  2.0 (http://fontforge.sf.net) and Fonzie.\nModified by Ludi, on April the 7th, 2011 - for fun and T-Shirts.
Version: 001.000
ItalicAngle: 0
UnderlinePosition: -100
UnderlineWidth: 50
Ascent: 800
Descent: 200
LayerCount: 2
Layer: 0 0 "Back"  1
Layer: 1 0 "Fore"  0
NeedsXUIDChange: 1
XUID: [1021 992 1258595862 1718112]
FSType: 0
OS2Version: 3
OS2_WeightWidthSlopeOnly: 0
OS2_UseTypoMetrics: 1
CreationTime: 1299848038
ModificationTime: 1302355072
PfmFamily: 17
TTFWeight: 500
TTFWidth: 5
LineGap: 90
VLineGap: 0
Panose: 2 11 6 3 0 0 0 0 0 0
OS2TypoAscent: 0
OS2TypoAOffset: 1
OS2TypoDescent: 0
OS2TypoDOffset: 1
OS2TypoLinegap: 90
OS2WinAscent: 0
OS2WinAOffset: 1
OS2WinDescent: 0
OS2WinDOffset: 1
HheadAscent: 0
HheadAOffset: 1
HheadDescent: 0
HheadDOffset: 1
OS2SubXSize: 650
OS2SubYSize: 699
OS2SubXOff: 0
OS2SubYOff: 140
OS2SupXSize: 650
OS2SupYSize: 699
OS2SupXOff: 0
OS2SupYOff: 479
OS2StrikeYSize: 49
OS2StrikeYPos: 258
OS2Vendor: 'PfEd'
OS2CodePages: 00000001.00000000
OS2UnicodeRanges: 00000063.00000000.00000020.00000000
Lookup: 1 0 0 "'rtla' Right to Left Alternates lookup 0"  {"'rtla' Right to Left Alternates lookup 0 subtable"  } ['rtla' ('DFLT' <'dflt' > ) ]
DEI: 91125

StartChar: .notdef
Encoding: 65536 -1 0
Width: 500
Flags: HMW
HStem: 0 50<100 400 100 450> 483 50<100 400 100 100>
VStem: 50 50<50 50 50 483> 400 50<50 483 483 483>
LayerCount: 2
Fore
SplineSet
100 50 m 1
 400 50 l 1
 400 483 l 1
 100 483 l 1
 100 50 l 1
50 0 m 1
 50 533 l 1
 450 533 l 1
 450 0 l 1
 50 0 l 1
EndSplineSet
Validated: 1
EndChar

StartChar: uni0021
Encoding: 33 33 2
Width: 229
Flags: W
HStem: -111.234 10<102.165 135.89>
VStem: 57.6875 10<-77.9593 10.9654> 92 10<-96.8449 -10.2615> 115 10<101.391 161.818> 155 16.156<-82.932 4.39998>
LayerCount: 2
Fore
SplineSet
89 169.382 m 1
 93.5856 140.168 98.5045 116.993 103.251 100.38 c 1
 106.858 101.075 110.431 101.391 113.922 101.391 c 0
 114.282 101.391 114.642 101.388 115 101.381 c 2
 115 161.447 l 2
 114.354 161.517 114.035 161.622 113.391 161.828 c 0
 104.731 164.605 96.7608 181.473 89 215.171 c 1
 89 169.382 l 1
79 245.246 m 1
 79 268.616 l 1
 77.425 278.631 75.9721 288.469 74.6392 298.121 c 1
 75.6104 281.428 77.0589 263.775 79 245.246 c 1
102 -100.091 m 1
 105.926 -100.906 109.828 -101.234 113.656 -101.234 c 0
 131.47 -101.234 147.244 -92.9665 155 -79.6813 c 1
 155 4.39998 l 1
 144.431 -5.62771 129.487 -11.2344 113.656 -11.2344 c 0
 109.835 -11.2344 105.916 -10.9385 102 -10.2615 c 1
 102 -100.091 l 1
92 -96.8449 m 1
 92 -7.62512 l 1
 81.4571 -3.79027 73.3607 2.84809 67.6875 10.9654 c 1
 67.6875 -56.375 l 2
 67.6875 -73.2202 75.6146 -89.3313 92 -96.8449 c 1
171.156 43.4844 m 2
 171.156 -56.5156 l 2
 171.156 -64.5625 169.516 -73.9219 164.406 -83.375 c 0
 154.875 -100.969 135.078 -111.234 113.656 -111.234 c 0
 107.766 -111.234 101.641 -110.531 95.6562 -108.812 c 0
 70.2502 -101.515 57.6875 -78.7344 57.6875 -56.375 c 2
 57.6875 43.625 l 2
 57.6875 65.7241 69.8782 88.6015 93.6343 97.6401 c 1
 88.6817 114.964 83.7104 138.57 79.0625 168.219 c 0
 68.2702 237.063 63.1406 297.562 63.1406 346.75 c 2
 63.1406 446.75 l 2
 63.1406 497.344 68.75 570.078 102 584.578 c 0
 106.844 586.688 111.656 587.812 116.375 587.812 c 0
 146.141 587.812 163.266 545.484 166 479.25 c 0
 166.281 472.25 166.609 464.547 166.594 456.188 c 2
 166.594 356.188 l 2
 166.594 280.728 151.242 155.261 136.409 96.6455 c 1
 156.965 87.5618 171.156 66.5579 171.156 43.4844 c 2
126.908 99.859 m 0
 138.008 144.197 149.664 228.874 154.4 299.136 c 1
 146.229 235.83 135.148 179.111 125 166.076 c 1
 125 100.282 l 2
 125.64 100.152 126.276 100.011 126.908 99.859 c 0
EndSplineSet
Validated: 1
EndChar

StartChar: uni0022
Encoding: 34 34 3
Width: 299
Flags: W
HStem: 285 10<62 77 87 101 199 213 223 237>
VStem: 34 28<314.086 385> 77 10<295 385> 101 29<316.84 385> 170 29<318.938 385> 213 10<295.213 385> 237 29<315.971 385.787>
LayerCount: 2
Fore
SplineSet
62 295 m 1
 77 295 l 1
 77 385 l 1
 62 385 l 1
 62 295 l 1
87 295 m 1
 101 295 l 1
 101 385 l 1
 87 385 l 1
 87 295 l 1
199 295 m 1
 213 295 l 1
 213 385 l 1
 199 385 l 1
 199 295 l 1
223 295.213 m 1
 237 295.796 l 1
 237 385.787 l 1
 223 385.204 l 1
 223 295.213 l 1
266 555 m 1
 266 455 l 2
 266 407.094 266.078 402.062 256.938 347.156 c 0
 253.766 328.141 250.25 309.141 246.922 290.141 c 2
 246.234 286.172 l 1
 242.203 286 l 2
 234.203 285.672 226.109 285.172 218.109 285 c 0
 210.109 284.828 202 285 194 285 c 2
 189.734 285 l 1
 189.062 289.188 l 2
 186.062 307.86 183.303 326.529 180.062 345.156 c 0
 170.328 401.094 170 404.094 170 454 c 2
 170 554 l 1
 170 610 l 1
 266 610 l 1
 266 555 l 1
130 559 m 1
 130 459 l 2
 130 413.938 129.29 408.065 120.938 350.25 c 0
 117.992 329.86 114.266 309.531 110.938 289.188 c 2
 110.25 285 l 1
 82 285 l 1
 57 285 l 1
 52.7656 285 l 1
 52.7656 285 46.0625 325.172 43.0625 343.172 c 0
 34.0781 397.094 34 400.109 34 452 c 2
 34 552 l 1
 34 610 l 1
 130 610 l 1
 130 559 l 1
EndSplineSet
Validated: 33
EndChar

StartChar: uni0023
Encoding: 35 35 4
Width: 496
Flags: W
HStem: -116 10.0134<55 71 81 97 279.16 295 305 321> 49 10<7 37 47 56.4056 142 217 227 280.907 366 423 433 489> 149 63.609<7 37 47 77.0469 153.281 159 174.576 217 227 301.406 377.402 387.686 397.87 423 433 489> 254 10<7 59 69 99.4897 184 259 269 323.244 407 443 453 489> 354 63.6595<7 59 69 119.906 196.677 202 216.996 259 269 343.266 419.163 426 440.499 443 453 489> 561.562 20G<437.984 445.625>
VStem: -3 10<59 149 263.922 353.917> 37 10<59 149> 45 10<-105.637 -15.2415> 59 10<263.082 353> 71 10<-105.987 -16> 97 10<-61.6775 -16> 114 10<18.116 22.6777> 132 10<59 107.918> 159 10<235.174 239.841> 174 10<264 309.818> 202 10<441.772 446.301> 217 10<59 149 442.78 527.224> 259 10<264 353.996> 269 10<-105.628 -15.1659> 295 10<-105.977 -16> 321 10<-61.1499 -16> 336 10<8.53746 13.1442> 354 10<44.0156 49 59 98.357> 390.938 61.64<547.259 580.98> 395 10<222.389 254 264 298.254> 423 10<59 149> 443 10<264 354> 489 10<59 149 264 354>
LayerCount: 2
Fore
SplineSet
169.188 578.219 m 0xfeffff68
 169.812 579.031 170.906 580.016 173.281 580.594 c 0
 177.453 581.609 186.406 581.828 192.766 581.812 c 0
 202.141 581.781 217.938 581.311 223.828 579.688 c 0
 226.328 578.999 229 577.406 229 574 c 1
 229.007 574.068 229 574.057 229 574 c 1
 229 573.708 228.922 573.417 228.922 573.125 c 0
 228.922 540.083 229 507.042 229 474 c 0
 229 473.719 228.984 473.453 228.922 473.078 c 0
 228.25 468.611 225.349 456.202 216.996 417.66 c 1
 236.752 417.04 266.667 416.75 300.141 416.75 c 0
 325.25 416.75 347.078 416.906 355.875 416.969 c 1
 358.406 429.281 366.359 465.359 373.109 495.062 c 2
 390.938 581 l 1
 421.906 581 l 2
 430.25 581.328 435.938 581.543 440.031 581.562 c 2
 440.031 581.562 443.438 581.578 445.625 581.297 c 0
 448.141 580.953 452.578 579.594 452.578 574.766 c 0xfeffff88
 452.578 573.782 452.224 572.914 452 572.135 c 2
 452 473 l 2
 452 472.656 451.969 472.328 451.953 472.172 c 0
 451.314 466.731 448.214 454.698 440.499 417.02 c 1
 444.312 417.006 448.771 417 454 417 c 2
 499 417 l 1
 499 359 l 1
 499 354 l 1
 499 259 l 1
 499 254 l 1
 494 254 l 1
 448 254 l 1
 405 254 l 1
 405 247 l 1
 405 246.484 l 1
 397.87 212.124 l 1
 406.093 212.038 417.38 212 433 212 c 2
 499 212 l 1
 499 154 l 1
 499 149 l 1
 499 54 l 1
 499 49 l 1
 428 49 l 1
 364 49 l 1
 364 45 l 1
 364 44.5 l 1
 363.891 44.0156 l 2
 362.86 38.875 354.581 2.07736 345.891 -38.0469 c 0
 340.564 -62.6411 335.906 -87.3281 330.906 -112 c 2
 330.094 -116 l 1
 326 -116 l 1
 300 -116 l 2
 289.625 -116 280.438 -115.781 275.797 -114.531 c 0
 269.219 -112.75 269.016 -108.688 269 -107 c 0
 268.766 -73.6719 269 -40.3281 269 -7 c 1
 268.992 -7.08068 269 -7.06659 269 -7 c 1
 269.014 -6.80849 269.065 -6.18301 269.062 -6.125 c 0
 269.486 -3.25187 273.632 15.2371 280.907 48.8726 c 1
 267.85 49 248.858 49 222 49 c 2
 141.016 49 l 1
 123.891 -29.0312 l 2
 118.219 -56.7031 112.562 -84.3438 106.906 -112 c 2
 106.078 -116 l 1
 102 -116 l 1
 76 -116 l 2
 65.0312 -116 55.9844 -115.827 51.4375 -114.531 c 0
 45.0938 -112.703 45.0156 -108.641 45 -107 c 0
 44.8125 -73.6719 45 -40.3281 45 -7 c 1
 44.9921 -7.06692 45 -7.05549 45 -7 c 1
 45.009 -6.83506 45.0527 -6.2812 45.0469 -6.23438 c 0
 45.3904 -3.51109 49.9205 18.9922 56.4056 49 c 1
 42 49 l 1
 2 49 l 1
 -3 49 l 1
 -3 54 l 1
 -3 149 l 1
 -3 154 l 1
 -3 211.891 l 1
 47.9375 213 l 1
 90.9531 213 l 1
 99.4897 253 l 1
 63.9531 253 l 2
 43.2969 253.328 22.5938 253.672 1.92188 254 c 2
 -3 254.078 l 1
 -3 259 l 1
 -3 354.078 l 1
 -3 359 l 1
 -3 417 l 1
 132.938 417 l 1
 149.109 494.062 l 2
 159.453 539.578 165.438 568.641 168.016 576.062 c 0
 168.266 576.766 168.609 577.5 169.188 578.219 c 0xfeffff68
279 -105.021 m 1
 281.165 -105.501 285.264 -105.883 295 -105.977 c 1
 295 -15.9676 l 1
 288.002 -15.898 282.807 -15.7134 279 -15.1659 c 1
 279 -105.021 l 1
55 -105.063 m 1
 58.4518 -105.768 65.6773 -105.944 71 -105.987 c 1
 71 -15.9725 l 1
 64.0546 -15.9165 58.8445 -15.7695 55 -15.2415 c 1
 55 -105.063 l 1
69 263 m 1
 101.624 263 l 1
 106.109 284.016 l 1
 119.906 353 l 1
 69 353 l 1
 69 263 l 1
59 263.082 m 1
 59 353.08 l 1
 7 353.917 l 1
 7 263.922 l 1
 59 263.082 l 1
47 59 m 1xff7fff08
 58.579 59 l 1
 62.125 75.0781 l 2
 68.9375 105.688 74.7031 136.547 77.0469 149 c 1
 47 149 l 1
 47 59 l 1xff7fff08
37 59 m 1
 37 149 l 1
 7 149 l 1
 7 59 l 1
 37 59 l 1
81 -106 m 1
 97 -106 l 1
 97 -16 l 1
 81 -16 l 1
 81 -106 l 1
107 -61.6775 m 1
 114 -27.501 l 1
 114 22.6777 l 1
 107 -11.4985 l 1
 107 -61.6775 l 1
124 18.116 m 1
 132 54.5813 l 1
 132 107.918 l 1
 124 71.4655 l 1
 124 18.116 l 1
142 59 m 1
 217 59 l 1
 217 149 l 1
 142 149 l 1
 142 59 l 1
227 59 m 1
 252.628 59 270.649 58.9911 283.06 58.8511 c 1
 286.109 73.0469 l 2
 292.823 104.407 299.375 136.859 301.406 148.312 c 1
 294.431 148.873 277.022 148.993 227 149 c 1
 227 59 l 1
305 -106 m 1
 321 -106 l 1
 321 -16 l 1
 305 -16 l 1
 305 -106 l 1
331 -61.1499 m 1
 336 -36.4907 l 1
 336 13.1442 l 1
 331 -11.5291 l 1
 331 -61.1499 l 1
346 8.53746 m 1
 350.171 27.5139 353.225 41.6973 354 45.5 c 2
 354 98.357 l 1
 346 62.4376 l 1
 346 8.53746 l 1
433 59 m 1xfe7fff28
 489 59 l 1
 489 149 l 1
 433 149 l 1
 433 59 l 1xfe7fff28
423 59 m 1
 423 149 l 1
 366 149 l 1
 366 59 l 1
 423 59 l 1
453 264 m 1xfe7fff18
 489 264 l 1
 489 354 l 1
 453 354 l 1
 453 264 l 1xfe7fff18
443 264 m 1
 443 354 l 1
 407 354 l 1
 407 264 l 1
 443 264 l 1
436 466.791 m 1
 437.171 480.913 438.166 495.728 438.988 509.661 c 1
 436 494.527 l 1
 436 466.791 l 1
212 441.772 m 1
 216.74 463.494 218.671 472.139 219.031 474.578 c 2
 219.015 527.224 l 1
 212 494.483 l 1
 212 441.772 l 1
169 235.174 m 1
 174 259.512 l 1
 174 309.818 l 1
 169 285.483 l 1
 169 235.174 l 1
184 264 m 1
 259 264 l 1
 259 354 l 1
 184 354 l 1
 184 264 l 1
269 263.998 m 1
 294.748 263.978 312.834 263.801 325.286 263.458 c 1
 329.094 282 l 1
 343.266 352.5 l 1
 331.881 353.726 297.998 353.96 269 353.996 c 1
 269 263.998 l 1
323.244 253.515 m 1
 310.202 253.838 291.122 254 264 254 c 2
 183.078 254 l 1
 174.576 212.611 l 1
 180.991 212.558 186.473 212.609 188.062 212.609 c 0
 199.719 212.609 214.484 212.734 232.969 213 c 2
 314.922 213 l 1
 323.244 253.515 l 1
159 213.008 m 1
 159 239.841 l 1
 156.334 227.414 154.473 218.653 153.203 213.438 c 1
 154.863 213.261 156.841 213.12 159 213.008 c 1
387.686 212.289 m 1
 395 247.516 l 1
 395 298.254 l 1xfe7fff48
 377.312 212.859 l 1
 379.213 212.61 382.261 212.424 387.686 212.289 c 1
426 417.178 m 1
 426 449.826 l 1
 422.456 433.88 419.741 421.385 419.094 417.562 c 1
 420.547 417.387 422.646 417.264 426 417.178 c 1
202 418.316 m 1
 202 446.301 l 1
 199.506 433.987 197.567 424.103 196.609 418.75 c 1
 198.057 418.596 199.864 418.451 202 418.316 c 1
EndSplineSet
Validated: 37
EndChar

StartChar: uni0024
Encoding: 36 36 5
Width: 458
Flags: W
HStem: -204 10<206 232 242 269> -112.191 10.5027<280 287 297 299.329> -11.0876 88.0876<136.016 190>
VStem: 39.0267 9.97333<-46.9062 41.9094 274.105 353.276> 61 10<-52.9111 30.6376> 130 10<184.052 268.199> 169 10<167.215 252.463 377.487 462.3> 196 10<-194 -112.3> 232 10<-194 -104> 269 10<-194 -111.02> 287 10<-97.7405 -10.3118 116.856 198.707> 335.062 94.891<100.046 188.144> 382 10<326.811 404.883> 393 10<317.188 404.118> 402 10<4.08628 60.021> 419.953 10<14.6511 96.5592>
LayerCount: 2
Fore
SplineSet
335 142.094 m 0xfff0
 335.001 143.219 335.062 144.406 335.062 145.469 c 0
 335.062 168.256 326.123 180.325 299 198.707 c 1
 299 110.71 l 1
 305.073 106.734 310.457 103.064 315.213 99.4602 c 1
 329.214 111.926 334.981 126.435 335 142.094 c 0xfff0
196 557.953 m 1
 196 588 l 1
 279 588 l 1
 279 568 l 2
 279.016 559.5 279.031 559.203 279.531 557.625 c 0
 280.406 557.375 280.843 557.543 284.641 556.953 c 0
 316.823 551.952 369.594 532.062 390.969 516.016 c 2
 404 506.547 l 1
 404 456 l 2
 404 430.409 403.11 409.324 403.005 406.995 c 2
 403 406.781 l 1
 403 307 l 1
 403 302 l 1xffe5
 398 302 l 2
 396.656 302 395.516 302.5 394.625 303.031 c 0
 392.125 304.469 388.844 307.438 383.531 312.391 c 0
 356.571 337.524 300.318 366.42 279.286 370.509 c 1
 279.953 315.625 l 1
 288.594 312.734 l 2
 377.281 282.422 429.953 220.234 429.953 149.656 c 2xfff0
 429.953 49.6562 l 2xffe1
 429.953 25.7969 423.531 1.42188 411.484 -23.2188 c 0
 389.344 -68.4844 350.052 -96.518 293.094 -108.875 c 0
 288.364 -109.901 283.699 -111.057 279 -112.191 c 1
 279 -199 l 1
 279 -204 l 1
 274 -204 l 1
 237 -204 l 1
 196 -204 l 1
 196 -199 l 1
 196 -112.3 l 1
 194.016 -111.906 l 2
 148.547 -102.812 102.359 -86.4844 63.6719 -65.4219 c 0
 56.4687 -61.5002 49.0938 -58.1406 41.7656 -54.4688 c 2
 39 -53.0938 l 1
 39 -50 l 2
 39 -17.5472 39.0267 14.9055 39.0267 47.3582 c 0
 39.0267 48.2388 39 49.1194 39 50 c 2
 39.0033 50 l 1
 38 102.953 l 1
 38 102.953 37.9612 151.687 38.7656 156.906 c 0
 39.4759 161.515 42.9531 162 44 162 c 2
 45.75 162 l 1
 67.125 144.891 l 2
 97.6562 120.484 124.312 103.469 140.031 96.5625 c 0
 153.938 90.4688 182.906 80.2656 194.734 77 c 1
 195.078 82.8594 195.406 94.7031 195.406 116.094 c 0
 195.406 124.724 195.352 134.586 195.215 145.608 c 1
 187.564 148.935 180.11 152.448 172.234 155.328 c 0
 157.002 160.898 139.672 168.281 132.938 171.438 c 0
 71.6562 200.281 40.0156 250.641 40.0156 303.406 c 2
 40.0156 403.406 l 2
 40.0156 470.094 91.0625 535.812 182.922 554.875 c 1
 196 557.953 l 1
193.843 370.694 m 1
 191.451 370.457 188.417 368.829 179.859 365.359 c 0
 175.199 363.469 170.867 361.338 166.878 358.989 c 1
 177.169 352.631 188.72 346.504 194.812 343.656 c 1
 195.087 347.958 195.316 354.287 195.497 361.684 c 0
 195.208 365.617 194.731 369.164 193.843 370.694 c 1
140 179.215 m 1
 146.761 176.176 158.087 171.411 169 167.215 c 1
 169 256.434 l 1
 158.513 260.114 147.604 264.785 140 268.199 c 1
 140 179.215 l 1
130 184.052 m 1
 130 272.848 l 1
 90.2932 292.286 63.4417 320.911 50.0156 353.276 c 1
 50.0156 303.406 l 2
 50.0156 256.31 77.2965 211.425 130 184.052 c 1
179 163.445 m 1
 184.39 161.336 189.732 158.941 195.057 156.596 c 1
 195 159.953 l 1
 195 245.688 l 1
 179 252.463 l 1
 179 163.445 l 1
71 -58.0391 m 1
 106.239 -77.104 148.447 -91.9909 190 -100.859 c 1
 190 -11.0876 l 1
 148.684 -2.48129 106.838 11.8941 71 30.6376 c 1
 71 -58.0391 l 1
61 -52.9111 m 1
 61 35.9132 l 1
 49 41.9094 l 1
 49 -46.9062 l 1
 61 -52.9111 l 1
242 -194 m 1
 269 -194 l 1
 269 -104 l 1
 242 -104 l 1
 242 -194 l 1
232 -194 m 1
 232 -104 l 1
 206 -104 l 1
 206 -194 l 1
 232 -194 l 1
297 -97.7405 m 1
 346.923 -85.742 381.578 -60.8388 402 -19.8271 c 1
 402 60.021 l 1xffe2
 379.471 25.4096 344.601 2.95524 297 -8.00733 c 1
 297 -97.7405 l 1
287 -100.043 m 1
 287 -10.3118 l 1
 280 -11.9622 l 1
 280 -101.688 l 1
 287 -100.043 l 1
412 4.08628 m 1
 417.24 19.5508 419.953 34.7688 419.953 49.6562 c 2
 419.953 96.5592 l 1xffe3
 417.674 90.3408 415.019 84.1009 412 77.8436 c 1
 412 4.08628 l 1
392 318.145 m 1xffec
 393 317.188 l 1
 393 404.118 l 1
 392 404.883 l 1
 392 318.145 l 1xffec
382 326.811 m 1
 382 413.797 l 1
 354.829 438.33 301.17 465.923 280 470.373 c 1
 280 380.547 l 1
 303.795 376.674 354.349 348.74 382 326.811 c 1
183 377.487 m 1
 187.668 379.448 190.117 380.426 193.141 380.672 c 2
 193.141 380.672 190.465 380.876 194.125 380.703 c 0
 194.678 380.677 195.249 380.649 195.833 380.577 c 1
 195.938 389.052 195.994 397.844 196 406 c 0
 196.008 417.047 196.031 426.453 196.031 434.406 c 0
 196.031 460.312 194.812 468.859 193.859 470.688 c 1
 191.786 470.498 189.243 469.227 183 466.641 c 1
 183 377.487 l 1
173 373.316 m 1
 173 462.3 l 1
 147.011 449.488 133.422 428.029 133.422 407.484 c 0
 133.422 394.844 138.531 382.375 149.5 371.562 c 0
 151.496 369.597 154.337 367.363 157.662 365.025 c 1
 162.345 368.115 167.471 370.887 173 373.316 c 1
289 116.856 m 1
 289 205.248 l 1
 285.575 207.382 282.474 209.144 280 210.477 c 1
 280 121.5 l 1
 282.603 120.355 285.847 118.646 289 116.856 c 1
307.039 93.0714 m 1
 302.452 96.4235 297.179 99.9434 291.266 103.812 c 0
 286.348 107.03 282.073 109.615 279 111.233 c 1
 279 78.6875 l 1
 281.062 79.6094 l 2
 291.353 83.6701 299.952 88.1791 307.039 93.0714 c 1
EndSplineSet
Validated: 33
EndChar

StartChar: uni0025
Encoding: 37 37 6
Width: 570
Flags: W
HStem: -111 10<66 89 99 123 394.359 447.357> -8.75 71.75<383.183 458.248> 81.0781 10<397.131 443.056> 181.078 76.188<375.735 442.298> 219.562 10<115.286 183.621> 319.562 74.985<111.135 187.246> 412.781 10<123.305 166.694> 512.781 75.391<103.928 166.669>
VStem: 16.3906 15.6094<312.526 391.633> 56 10<-101 -11> 89 10<-101 -11> 123 10<-88.9226 -11> 167 10<419.773 505.558> 207.891 72.109<410.77 498.991> 270 10<343.683 396.131> 290 80<78.8759 132.444> 290 10<-8.28125 65.1017> 310 10<209.513 268.926> 444 10<86.575 170.586> 479.625 71.375<79.2329 167.813> 499.328 9.672<476.47 564.112> 541 10<-8.23438 64.6936>
LayerCount: 2
Fore
SplineSet
300 -6.35938 m 1xe7f8a4
 316.578 -68.1562 368.578 -98.75 420.875 -98.75 c 0
 473.172 -98.75 524.906 -68.1406 541 -6.35938 c 1
 541 64.6936 l 1
 517.302 15.8546 468.963 -8.75 420.875 -8.75 c 0
 372.645 -8.75 324.002 15.9885 300 65.1017 c 1
 300 -6.35938 l 1xe7f8a4
99 -101 m 1
 123 -101 l 1
 123 -11 l 1
 99 -11 l 1
 99 -101 l 1
89 -101 m 1
 89 -11 l 1
 66 -11 l 1
 66 -101 l 1
 89 -101 l 1
133 -88.9226 m 1
 291.921 159.248 l 1
 295.963 172.455 302.088 185.071 310 196.605 c 1
 310 268.926 l 1xe7f860
 133 -7.4616 l 1
 133 -88.9226 l 1
32 317.762 m 1
 51.0178 258.417 100.189 229.562 149.609 229.562 c 0
 174.919 229.562 200.212 237.223 221.374 252.38 c 1
 269.797 327.703 l 1
 270 328.021 l 1
 270 396.131 l 1xeffa20
 246.139 345.488 197.773 319.562 149.609 319.562 c 0
 103.253 319.562 56.7023 343.591 32 391.633 c 1
 32 317.762 l 1
177 416.46 m 1
 181.329 414.725 185.333 412.637 189.005 410.214 c 1
 201.691 421.988 207.891 438.312 207.891 454.516 c 0xe7fc20
 207.891 475.451 197.528 495.613 177 505.558 c 1
 177 416.46 l 1
167 419.773 m 1
 167 509.37 l 1
 159.529 511.634 152.489 512.781 145.922 512.781 c 0
 123.353 512.781 105.4 500.461 94 475.924 c 1
 94 431.214 l 1
 97.4362 423.534 102.54 416.511 108.869 410.714 c 1
 120.308 419.24 133.037 422.781 145.922 422.781 c 0
 152.706 422.781 159.738 421.758 167 419.773 c 1
454 82.0864 m 1
 456.093 81.0065 458.101 79.886 460.02 78.6766 c 1
 472.996 90.4701 479.625 107.056 479.625 123.5 c 0xe7f830
 479.625 141.938 471.222 159.65 454 170.586 c 1
 454 82.0864 l 1
444 86.575 m 1
 444 175.751 l 1
 435.875 179.174 427.707 181.078 419.75 181.078 c 0
 399.414 181.078 380.659 170.09 370 150.758 c 1
 370 92.9109 l 1xf7f920
 373.063 87.6369 376.913 82.8275 381.377 78.681 c 1
 392.522 86.7371 405.874 91.0781 419.75 91.0781 c 0
 427.819 91.0781 435.961 89.5651 444 86.575 c 1
389.644 72.2282 m 1
 398.572 66.4285 409.065 63 420.188 63 c 0
 426.688 63 433.405 64.112 440.25 66.6875 c 0
 444.263 68.1974 447.975 70.0386 451.385 72.1588 c 1
 449.919 72.9638 448.403 73.7344 446.859 74.4844 c 0
 437.875 78.8438 428.641 81.0781 419.75 81.0781 c 0
 408.953 81.0781 398.576 78.0033 389.644 72.2282 c 1
290 92.3371 m 1
 287.481 102.173 286.281 112.14 286.281 122.031 c 0
 286.281 125.569 286.434 129.097 286.735 132.608 c 1
 130.734 -111 l 1
 128 -111 l 1
 94 -111 l 1
 56 -111 l 1
 56 -106 l 1
 56 -11 l 1
 51.875 -11 l 1
 79.8281 32.75 l 2
 89.7561 47.2733 143.006 130.36 209.216 233.451 c 1
 190.575 224.203 170.088 219.562 149.609 219.562 c 0
 96.125 219.562 42.381 251.549 22.2344 315.5 c 0
 18.2668 328.094 16.3906 340.922 16.3906 353.578 c 2
 16.3906 453.578 l 2
 16.3906 514.141 59.1272 570.974 121.891 584.875 c 0
 131.406 586.982 140.797 588.172 150.094 588.172 c 0
 221.781 588.172 283.516 525.547 283.516 453.75 c 0
 283.516 444.095 282.434 434.245 280 424.404 c 1xeffd20
 280 343.683 l 1
 437.266 590 l 1
 472.922 590 l 2
 480.453 590.25 486.219 590.404 490.781 590.375 c 0
 498.5 590.325 501.156 590.125 503.625 589.531 c 0
 506.422 588.859 509.484 587 509.484 583.219 c 0
 509.484 583.057 509.23 582.329 509 581.512 c 2
 509 482 l 2xeffa28
 509 480.875 508.609 479.953 508.203 479.188 c 0
 502.932 468.938 427.26 350.858 354.783 238.439 c 1
 365.19 244.577 376.544 249.464 388.672 252.812 c 0
 399.579 255.823 410.469 257.266 421.188 257.266 c 0
 492.578 257.266 554.672 194.484 554.672 122.406 c 0
 554.672 112.514 553.517 102.458 551 92.3833 c 1xf7f830
 551 -7 l 1
 551 -7.64062 l 1
 550.844 -8.23438 l 2
 533.319 -74.9351 477.156 -108.75 420.875 -108.75 c 0
 364.594 -108.75 307.75 -75.0781 290.156 -8.28125 c 1
 290 -7.64062 l 1
 290 -7 l 1xf7f8a4
 290 92.3371 l 1
332.256 221.943 m 1
 408.425 340.015 494.664 474.704 499.328 483.766 c 1
 499.06 564.112 l 1
 320 284.542 l 1
 320 209.513 l 1xe7f868
 323.809 213.884 327.901 218.038 332.256 221.943 c 1
117.135 404.308 m 1
 126.517 398.21 137.65 394.547 149.578 394.547 c 0
 157.25 394.547 165.123 395.989 172.938 399.562 c 0
 175.629 400.792 178.161 402.172 180.536 403.684 c 1
 177.415 405.471 174.025 407.011 170.375 408.281 c 0
 161.656 411.297 153.469 412.781 145.922 412.781 c 0
 135.114 412.781 125.536 409.904 117.135 404.308 c 1
EndSplineSet
Validated: 1
EndChar

StartChar: uni0026
Encoding: 38 38 7
Width: 528
Flags: W
HStem: -111 10<129.726 211.397> -104 9.8125<421 465 475 520> -11 90.2031<136.582 239.047> 388.391 10<215.21 263.245> 488.391 82.265<195.461 266.102>
VStem: 19.5156 94.7814<91.8576 176.587> 19.5156 10<-6.56138 76.9019> 89.2031 10<301.753 383.478> 178 10<134.686 215.083> 206 10<144.797 224.472> 252 10<111.267 170.706> 267 10<392.73 475.767> 294 10<275.395 291.906> 329 10<-27.7813 51.5025> 347 18<-21.5625 52.9005> 355 10<-36.0781 -28.0017> 377.109 10<308.833 391.601> 387 10<-57.491 15.486> 411 10<-85.4826 -4.08969> 465 10<-94.907 -4.9908> 494 10<177 255.271> 520 10<-94.1875 -4.18199>
LayerCount: 2
Fore
SplineSet
294 275.395 m 1x38fc3c
 294 291.906 l 1
 285.25 285.234 l 1
 287.672 282.391 l 2
 288.805 281.253 291.038 278.771 294 275.395 c 1x38fc3c
328.068 235.783 m 1
 360.949 270.948 377.109 306.601 377.109 340.656 c 2
 377.109 391.601 l 1x38fcbc
 364.423 360.322 339.8 329.266 304 299.645 c 1
 304 263.858 l 1
 326.781 237.266 l 1
 328.068 235.783 l 1
448.841 97.6102 m 1
 467.365 125.727 484.492 156.463 494 179 c 1
 494 255.271 l 1
 476.819 220.945 449.993 178.477 426 149.209 c 1
 426 123.996 l 1
 448.841 97.6102 l 1
99.2031 383.478 m 1x39fc3c
 99.2031 336.266 l 2
 99.2031 313.111 106.296 291.431 112.732 276.348 c 1
 121.343 282.729 130.295 288.744 139.422 294.281 c 2
 142 295.845 l 1
 142 310.206 l 1
 122.622 333.922 108.07 358.954 99.2031 383.478 c 1x39fc3c
269.127 380.851 m 1
 258.442 386.155 248.007 388.391 238.297 388.391 c 0
 226.348 388.391 215.559 384.878 206.872 378.786 c 1
 216.045 364.486 225.769 352.621 229.75 350.109 c 1
 246.517 360.601 259.37 371.005 269.127 380.851 c 1
262 111.267 m 1
 269.247 116.46 276.484 122.274 283.641 128.703 c 2
 292.016 136.391 l 1
 262 170.706 l 1
 262 111.267 l 1
216 139.183 m 1
 222.789 132.454 240.092 112.174 248.419 102.261 c 1
 252 104.496 l 1
 252 182.236 l 1
 236.432 201.277 223.657 215.941 216 224.472 c 1
 216 139.183 l 1
178 127.551 m 1
 178 215.083 l 1
 125.151 175.032 114.297 147.307 114.297 129.938 c 0
 114.297 118.016 119.334 107.131 130.438 96.6406 c 0
 132.291 94.8899 134.225 93.2725 136.238 91.7879 c 1
 147.316 103.346 161.197 115.34 178 127.551 c 1
188 134.686 m 1
 199.013 142.476 202.171 144.266 205.719 144.797 c 0
 205.786 144.807 205.882 144.831 206 144.857 c 2
 206 234.483 l 1
 202.744 232.875 194.825 227.357 188 222.448 c 1
 188 134.686 l 1
267 392.73 m 1
 267 481.921 l 1
 257.135 486.616 247.355 488.391 238.297 488.391 c 0
 208.375 488.391 185.375 466.641 185.375 436.203 c 0
 185.375 429.719 186.672 422.766 188.781 415.438 c 0
 191.277 406.81 196.102 396.85 201.643 387.332 c 1
 211.95 394.395 224.609 398.391 238.297 398.391 c 0
 247.505 398.391 257.244 396.602 267 392.73 c 1
475 -94.9908 m 1
 492.369 -94.9271 509.182 -94.5443 520 -94.1875 c 1x78fc3c
 520 -4.18199 l 1
 511.81 -4.448 494.79 -4.9193 475 -4.9908 c 1
 475 -94.9908 l 1
421 -94.0958 m 1
 465 -94.907 l 1
 465 -4.9079 l 1
 421 -4.08969 l 1
 421 -94.0958 l 1
387 -57.491 m 1x38fd7c
 387 27.1429 l 1
 365 52.9005 l 1x38fe7c
 365 -31.9844 l 1
 369.687 -36.9783 378.04 -46.9589 387 -57.491 c 1x38fd7c
397 -69.1557 m 1
 411 -85.4826 l 1
 411 -0.853079 l 1
 397 15.486 l 1
 397 -69.1557 l 1
339 -27.7813 m 1
 347 -21.5625 l 1
 347 65.7839 l 1
 339 59.5567 l 1
 339 -27.7813 l 1
206.442 134.686 m 1
 203.213 133.273 193.442 126.365 185.906 120.938 c 0
 169.339 108.992 155.721 97.4198 144.957 86.4214 c 1
 154.518 81.59 165.433 79.2031 177.422 79.2031 c 0
 196.248 79.2031 217.646 85.2631 239.622 97.1899 c 1
 220.737 119.725 208.658 132.551 208.219 132.844 c 2
 207.578 133.266 l 1
 207.094 133.875 l 1
 206.442 134.686 l 1
208.047 567.906 m 0
 217.938 569.891 228.109 570.656 238.188 570.656 c 0
 286.375 570.656 340.187 549.5 366.219 508.688 c 0
 380.062 486.984 387.109 464.062 387.109 440.656 c 2
 387.109 340.656 l 2
 387.109 303.059 369.149 264.828 334.659 228.194 c 1
 356.25 203.328 l 1
 360.297 207.344 l 1
 368.312 217.156 399.078 263.328 406.625 278.406 c 1
 414.172 291 l 1
 509.219 291 l 1
 504 277.074 l 1
 504 178 l 1
 504 177 l 1
 503.609 176.078 l 2
 493.372 151.938 475.294 119.352 455.64 89.7563 c 1
 470.781 72.2656 l 2
 497.562 41.2969 524.673 10.3493 528.844 4.3125 c 0
 529.233 3.74906 530 2.65625 530 1 c 2
 530 -99 l 1
 525.203 -104 l 2
 525.156 -104 500.062 -105.203 469.953 -105 c 0
 451.953 -104.875 433.906 -104.328 415.906 -104 c 2x79fcbc
 413.656 -103.953 l 1
 412.203 -102.25 l 2
 401.797 -90.125 396.25 -83.5781 388.219 -74.2656 c 0
 375.25 -59.2344 361 -42.0625 356.469 -37.5312 c 2
 355 -36.0781 l 1
 355 -34 l 1
 355 -28.0017 l 1
 347.243 -34.0319 342.972 -37.0638 337.141 -41.8906 c 0
 282.344 -87.25 225.422 -111 169 -111 c 0
 82.4062 -111 19.5156 -48.2656 19.5156 28.0156 c 2xbbfdbc
 19.5156 128.016 l 2xbcfc3c
 19.5156 144.156 22.4531 160.812 28.2812 177.641 c 0
 38.1468 206.12 67.6712 241.089 104.546 270.097 c 1
 94.5499 292.775 89.2031 315.331 89.2031 336.266 c 2
 89.2031 436.266 l 2xb9fc3c
 89.2031 443.359 89.7687 450.312 91.0938 456.953 c 0
 103.404 518.651 141.953 554.625 208.047 567.906 c 0
297.031 429.5 m 0
 297.188 430.938 297.219 432.344 297.219 433.797 c 0
 297.219 449.547 289.64 465.711 277 475.767 c 1
 277 389.439 l 1
 290.627 405.59 295.957 419.718 297.031 429.5 c 0
29.5156 28.0156 m 2xbafc3c
 29.5156 -42.5625 87.2812 -101 169 -101 c 0
 221.956 -101 276.225 -79.0958 329 -35.6495 c 1
 329 51.5025 l 1
 276.845 10.2992 222.626 -11 169 -11 c 0
 102.85 -11 50.5315 25.6099 29.5156 76.9019 c 1
 29.5156 28.0156 l 2xbafc3c
EndSplineSet
Validated: 33
EndChar

StartChar: uni0027
Encoding: 39 39 8
Width: 161
Flags: W
HStem: 285 10.0078<59.0941 74 84 100>
VStem: 33 10.5597<361.585 422.394> 49 10<354.407 385.47> 74 10<295.008 384.992> 100 10<350.462 385.484> 117.659 10.3405<372.027 434.533>
LayerCount: 2
Fore
SplineSet
59 295.568 m 1
 60.712 295.198 64.1538 295.043 74 295.008 c 1
 74 384.995 l 1
 68.184 384.995 62.7028 385.036 59 385.47 c 1
 59 295.568 l 1
49 354.407 m 1
 49 394.44 l 1
 47.027 403.244 45.2082 412.615 43.5597 422.394 c 1
 44.4309 399.617 46.2966 376.42 49 354.407 c 1
84 294.961 m 1
 89.3465 294.939 97.2129 295.008 100 295.68 c 1
 100 385.484 l 1
 96.0407 385.006 90.2349 384.981 84 384.992 c 1
 84 294.961 l 1
110 350.462 m 1
 114.229 379.356 116.785 407.79 117.659 434.533 c 1
 115.459 421.193 112.906 407.797 110 394.453 c 1
 110 350.462 l 1
128 555 m 1
 128 455 l 2
 128 405.594 121.906 349.328 109.891 293.953 c 0
 109.094 290.296 107.828 287.219 102.547 285.922 c 0
 98.0625 284.828 88.4219 285 79 285 c 0
 69.7969 285 61.0479 284.879 56.7812 285.828 c 0
 51.345 287.037 49.9688 290.172 49.1094 293.953 c 0
 39 338.469 33 397.625 33 451 c 2
 33 551 l 1
 33 610 l 1
 128 610 l 1
 128 555 l 1
EndSplineSet
Validated: 1
EndChar

StartChar: uni0028
Encoding: 40 40 9
Width: 274
Flags: W
HStem: -298 10<219 234 244 257.117>
VStem: 49 100.392<226.936 340.763> 49 10.023<23.8794 91.2802> 185 10<-248.555 -177.258> 209 10<-278.742 -198> 234 10<-288 -198.008> 243 10<475.109 541.242> 257.406 10<-287.97 -197.736 476.594 558.082>
LayerCount: 2
Fore
SplineSet
189 558 m 2xb9
 211.5 588 l 1
 273.016 588 l 1
 264 573.572 l 1
 264 475 l 1
 264 473.328 l 1
 263 472 l 2
 260.562 468.75 255.415 460.114 252.031 455.062 c 0
 188.576 360.34 158.199 269.176 150.494 148.397 c 1
 159.37 34.8179 198.755 -85.9454 251.109 -164.141 c 0
 259.938 -177.328 265.438 -185.344 266.359 -187.359 c 0
 266.625 -187.953 266.812 -188.656 266.969 -189.453 c 0
 267.141 -190.234 267.453 -190.922 267.406 -191.047 c 2
 267.406 -291.047 l 2
 267.406 -292.297 266.89 -296.244 261.125 -297.328 c 0
 256.827 -298.136 245.656 -298 239 -298 c 2
 214 -298 l 1
 211.594 -298 l 1
 210.094 -296.125 l 2
 202.094 -286.125 194.109 -276.125 186.094 -266.125 c 0
 92.6014 -149.478 49.7969 -36.1094 49 93.9844 c 0
 48.7969 127.312 49 160.672 49 194 c 0
 48.5 321.094 88.8489 424.465 189 558 c 2xb9
257.406 -287.712 m 1
 257.406 -197.736 l 1
 253.635 -197.984 248.511 -198.012 244 -198.008 c 1
 244 -288.002 l 1x9d
 251.894 -288.007 254.962 -287.999 257.406 -287.712 c 1
195 -261.242 m 1
 209 -278.742 l 1
 209 -194.758 l 1
 195 -177.258 l 1
 195 -261.242 l 1
185 -248.555 m 1
 185 -164.755 l 1
 117.643 -80.2113 76.5993 2.56982 59.023 91.2802 c 1xb9
 60.3349 -31.2907 99.4753 -137.973 185 -248.555 c 1
219 -288 m 1
 234 -288 l 1
 234 -198 l 1x9d
 219 -198 l 1
 219 -288 l 1
253 475.109 m 1x9b
 254 476.594 l 1
 254 558.082 l 1
 253 556.532 l 1
 253 475.109 l 1x9b
243 459.481 m 1
 243 541.242 l 1
 182.197 445.866 154.512 352.487 149.392 226.936 c 1xdb
 163.949 312.574 193.835 385.372 243 459.481 c 1
EndSplineSet
Validated: 33
Substitution2: "'rtla' Right to Left Alternates lookup 0 subtable" uni0029
EndChar

StartChar: uni0029
Encoding: 41 41 10
Width: 273
Flags: W
HStem: -298 10<15.3018 29 39 54>
VStem: 5 18<467.19 552.936> 5 9.99273<-287.779 -197.81> 29 10<-287.992 -198> 54 10<-277.535 -198> 80 10<-242.006 -172.458> 124.246 99.3321<217.352 340.39> 213 10<28.4664 92.2916>
LayerCount: 2
Fore
SplineSet
14.9927 -287.779 m 1xbc
 17.9132 -287.905 22.606 -287.971 29 -287.992 c 1
 29 -197.996 l 1
 22.4125 -197.983 18.0379 -197.938 14.9994 -197.81 c 1
 14.9934 -227.796 14.9457 -257.794 14.9927 -287.779 c 1xbc
39 -288 m 1
 54 -288 l 1
 54 -198 l 1
 39 -198 l 1
 39 -288 l 1
64 -277.535 m 1
 80 -255.393 l 1
 80 -172.458 l 1
 64 -194.623 l 1
 64 -277.535 l 1
90 -242.006 m 1
 173.363 -129.502 205.318 -47.7425 213 75.1562 c 1
 213 92.2916 l 1x9d
 196.411 5.6738 160.253 -65.8179 90 -158.669 c 1
 90 -242.006 l 1
23 470.587 m 1xde
 74.0325 398.344 108.266 310.705 124.246 217.352 c 1
 120.366 340.108 85.4753 459.149 23 552.936 c 1
 23 470.587 l 1xde
4.99994 580.779 m 0
 4.81717 581.259 4.7388 581.695 5 582 c 0
 7.5625 584.953 5.46875 586.578 10.2969 587.406 c 0
 14.5469 588.125 25.6875 588 34 588 c 2
 60.375 588 l 1
 83.875 559.172 l 2
 134.719 496.766 158.419 458.218 182.625 398.891 c 0
 207.247 338.546 223.578 255.969 223.578 194.047 c 0xbe
 223.578 187.411 223.393 181.019 223.007 174.917 c 0
 223.002 174.841 222.998 174.764 223 174.688 c 2
 223 74.8438 l 1
 214.953 -53.9219 180.688 -138.578 89.0156 -259.969 c 0
 80.0948 -271.782 71.7188 -283.922 63.0469 -295.922 c 2
 61.5625 -298 l 1
 59 -298 l 1
 34 -298 l 2
 25.6875 -298 14.5469 -298.125 10.2969 -297.406 c 0
 5.46875 -296.578 7.9375 -294.594 5 -292 c 1
 5 -192.626 l 2
 4.98826 -192.505 4.98303 -192.393 4.98303 -192.292 c 0
 4.98303 -192.181 4.98924 -192.083 5 -192 c 0xbd
 5.15976 -190.766 4.97485 -190.925 5.54688 -189.562 c 0
 7.07885 -185.913 14.8281 -172.828 20.75 -163.359 c 0
 57.5537 -104.511 78.5113 -61.983 91.2344 -22.4688 c 0
 108.645 31.6047 119.055 87.8791 122.904 144.263 c 1
 114.742 263.23 77.3126 377.16 13.8906 466.156 c 0
 12.9618 467.459 6.6875 476.719 5.51562 479.594 c 0
 5.42188 479.812 5.00405 481.281 5 482 c 0
 4.81479 514.921 4.99548 547.858 4.99994 580.779 c 0
EndSplineSet
Validated: 33
Substitution2: "'rtla' Right to Left Alternates lookup 0 subtable" uni0028
EndChar

StartChar: uni002A
Encoding: 42 42 11
Width: 352
Flags: W
HStem: 126.641 10<178.055 190.989> 207.391 10<304.089 323.838>
VStem: 9.3125 10<226.055 316.633> 27 10<380.11 470.211> 40 10<219.383 308.559> 89 10<403.885 444.813> 114 10<277.509 354.763> 142.641 10<146.258 236.054> 143.016 56.984<343.969 373.302 465.007 578.844> 150 10<373.302 388.164> 168 10<138.205 226.643> 198.547 10<144.959 234.453> 229 10<277.953 354.055> 258 10<401.328 444.978> 294 10<221.341 307.748> 329 10<222.739 316.975 388.812 474.596>
LayerCount: 2
Fore
SplineSet
165.594 615.812 m 0xfe8f
 170.516 617.203 175.031 618.5 179.469 618.5 c 0
 187.719 618.5 198.444 615.448 206.391 600.375 c 0
 210.215 593.123 211.031 585.781 211.031 579.531 c 0
 211.031 564.984 207.375 543.293 200 504.525 c 1
 200 455.58 l 1xfe8f
 203.505 458.188 211.622 465.238 223.562 476.641 c 0
 274.984 525.75 290.969 540 311 540 c 0
 330.031 540 342.578 523.469 342.578 505.578 c 0
 342.578 500.089 341.489 494.324 339 488.866 c 1
 339 390 l 1
 339 388.812 l 1
 338.469 387.766 l 2
 335.573 382.061 333.509 377.486 325.702 372.329 c 1
 327.17 371.413 328.356 370.568 329.25 369.797 c 0
 338.639 361.7 342.906 351.109 342.906 341.203 c 2
 342.906 241.203 l 2
 342.906 223.531 329.219 207.391 309.375 207.391 c 0
 305.594 207.391 301.532 207.908 297.484 209.234 c 0
 281.158 214.584 268.641 224.688 230.484 262.438 c 0
 219.62 273.187 212.788 279.76 208.174 283.947 c 1
 208.422 279.81 208.547 275.925 208.547 272.281 c 2
 208.547 172.281 l 2
 208.547 140.922 198.75 126.641 178.422 126.641 c 0
 176.469 126.641 174.406 126.753 172.344 127.047 c 0
 151.38 130.033 142.641 143.844 142.641 169.031 c 2
 142.641 269.031 l 2xff1f
 142.641 272.969 142.849 277.218 143.251 281.81 c 1
 122.375 262.312 l 2
 83.9531 227.641 62.1192 210.385 45.5625 208.031 c 0
 44.484 207.878 43.1562 207.875 42.1094 207.875 c 0
 23.2969 207.875 9.3125 222.312 9.3125 239.672 c 2
 9.3125 339.672 l 2
 9.3125 344.672 10.5312 350.312 13.5469 356.281 c 0
 17.0777 363.254 21.9466 368.882 29.8795 374.322 c 1
 29.4696 374.619 29.1112 374.896 28.7969 375.156 c 2
 27 376.656 l 1
 27 379 l 1
 27 476.605 l 1
 16.9648 484.944 11.0781 494.552 11.0781 505.172 c 0
 11.0781 514.047 15.0469 522.906 22.4062 530.484 c 0
 31.625 539.953 39.3281 540.625 43.5312 540.625 c 0
 59.125 540.625 78.0223 526.835 121.422 485.641 c 0
 131.474 476.1 138.682 469.416 144.012 464.762 c 1
 143.352 469.996 143.016 474.394 143.016 478.312 c 2
 143.016 578.312 l 2
 143.016 587.969 144.703 594.312 149.734 602.609 c 0
 153.609 608.984 158.766 613.875 165.594 615.812 c 0xfe8f
50 219.383 m 1
 61.1055 223.38 77.9731 235.799 114 268.224 c 1
 114 354.763 l 1
 83.9156 327.797 64.7298 313.103 50 308.975 c 1
 50 219.383 l 1
40 217.955 m 1
 40 307.936 l 1
 31.8183 308.413 24.6556 311.647 19.3125 316.633 c 1
 19.3125 239.672 l 2
 19.3125 228.347 27.5462 218.915 40 217.955 c 1
124 277.509 m 1
 145.111 297.223 l 1
 146.329 305.446 147.974 314.57 150 324.719 c 1
 150 388.164 l 1xfe4f
 124 363.821 l 1
 124 277.509 l 1
178 136.643 m 2xfe3f
 178.141 136.643 178.282 136.641 178.422 136.641 c 0
 190.5 136.641 198.547 143.766 198.547 172.281 c 2
 198.547 234.453 l 1
 193.664 229.175 186.972 226.641 178.422 226.641 c 2
 178 226.643 l 1
 178 136.643 l 2xfe3f
168 138.205 m 1
 168 227.862 l 1
 161.593 229.378 156.516 232.102 152.641 236.054 c 1
 152.641 169.031 l 2xff2f
 152.641 150.757 157.031 141.707 168 138.205 c 1
239 268.092 m 1
 269.998 237.406 282.729 226.645 294 221.341 c 1
 294 310.474 l 1
 280.468 315.701 268.152 325.54 239 354.055 c 1
 239 268.092 l 1
229 277.953 m 1
 229 363.906 l 1
 211.149 381.559 203.808 388.512 199.031 391.234 c 0
 198.248 391.672 198.39 391.794 198 391.802 c 2
 198 353.125 l 1
 199.906 343.969 l 2
 203.182 326.381 205.556 311.118 206.977 297.941 c 1
 211.96 294.252 219.509 287.224 229 277.953 c 1
304 217.87 m 1
 305.872 217.52 307.66 217.391 309.375 217.391 c 0
 323.484 217.391 332.906 228.516 332.906 241.203 c 2
 332.906 316.975 l 1
 327.047 311.128 318.924 307.391 309.375 307.391 c 0
 307.633 307.391 305.832 307.501 304 307.748 c 1
 304 217.87 l 1
37 470.211 m 1
 37 381.562 l 2
 37.6981 381.121 38.5366 380.632 39.5408 380.084 c 0
 50.8533 386.061 66.582 392.303 89 400.336 c 1
 89 448.509 l 1
 68.3221 456.214 48.5427 464.233 37 470.211 c 1
99 444.813 m 1
 99 403.885 l 1
 101.375 404.719 l 2
 105.875 406.297 132.859 414.906 139.797 419.031 c 0
 141.656 420.141 141.969 419.859 142 423.094 c 2
 142 424 l 1
 142 424.766 l 2
 141.984 428.062 141.625 427.656 139.828 428.812 c 0
 135.537 431.532 127.671 434.253 99 444.813 c 1
160 391.416 m 2xfe4f
 160 373.302 l 1
 161.482 380.368 162.651 385.676 163.172 387.281 c 0
 163.094 387.547 162.797 387.859 162.562 388.281 c 0
 161.901 389.468 160.988 390.535 160 391.416 c 2xfe4f
315.326 377.859 m 1
 324.429 382.63 326.573 386.347 329 391.188 c 1
 329 474.596 l 1
 321.136 468.222 306.023 462.229 268 448.498 c 1
 268 397.503 l 1
 288.539 389.59 304.548 383.027 315.326 377.859 c 1
258 401.328 m 1
 258 444.978 l 1
 245.612 440.647 219.898 431.479 215.156 428.219 c 0
 213.688 427.203 213.391 426.812 213.141 424.859 c 0
 213.09 424.531 213.05 424.162 213.002 423.753 c 2
 213 423.726 l 1
 212.999 423.699 l 1
 213 419.869 l 2
 213.27 419.466 213.781 419.21 214.641 418.672 c 0
 218.689 416.142 225.941 413.431 251.766 403.688 c 2
 258 401.328 l 1
EndSplineSet
Validated: 1
EndChar

StartChar: uni002B
Encoding: 43 43 12
Width: 494
Flags: W
HStem: -8 10<217 243 253 280> 157 10<52 125 135 207 371 443> 257 83<52 125 135 207 290 361 371 443>
VStem: 42 10<167 257> 125 10<167 257> 207 10<2 92> 243 10<2 92> 280 10<2 92> 361 10<167 257> 443 10<167 257>
LayerCount: 2
Fore
SplineSet
371 167 m 1
 443 167 l 1
 443 257 l 1
 371 257 l 1
 371 167 l 1
207 340 m 1
 207 503 l 1
 290 503 l 1
 290 340 l 1
 453 340 l 1
 453 262 l 1
 453 257 l 1
 453 162 l 1
 453 157 l 1
 448 157 l 1
 366 157 l 1
 361 157 l 1
 361 162 l 1
 361 257 l 1
 290 257 l 1
 290 162 l 1
 290 97 l 1
 290 92 l 1
 290 -3 l 1
 290 -8 l 1
 285 -8 l 1
 248 -8 l 1
 207 -8 l 1
 207 -3 l 1
 207 92 l 1
 207 97 l 1
 207 157 l 1
 130 157 l 1
 47 157 l 1
 42 157 l 1
 42 162 l 1
 42 257 l 1
 42 262 l 1
 42 340 l 1
 207 340 l 1
135 167 m 1
 207 167 l 1
 207 257 l 1
 135 257 l 1
 135 167 l 1
125 167 m 1
 125 257 l 1
 52 257 l 1
 52 167 l 1
 125 167 l 1
253 2 m 1
 280 2 l 1
 280 92 l 1
 253 92 l 1
 253 2 l 1
243 2 m 1
 243 92 l 1
 217 92 l 1
 217 2 l 1
 243 2 l 1
EndSplineSet
Validated: 1
EndChar

StartChar: uni002C
Encoding: 44 44 13
Width: 184
Flags: W
HStem: -206 318.844
VStem: 27.0938 10<-68.0042 20.2063> 35 10<-194.672 -103.595> 62 82.938<-46.7708 -40.4087 -24.1957 15.6553> 100 10<-147.796 -72.204> 134.938 10<-107.302 -24.1957>
LayerCount: 2
Fore
SplineSet
110 -147.796 m 1x8c
 127.062 -125.871 134.938 -98.0666 134.938 -72.0938 c 2
 134.938 -24.1957 l 1
 129.249 -38.2824 121.025 -51.5959 110 -63.0349 c 1
 110 -147.796 l 1x8c
100 -158.908 m 1
 100 -72.204 l 1
 83.7983 -85.6311 58.745 -101.55 45 -105.219 c 1
 45 -194.672 l 1xa8
 56.9171 -190.139 83.6494 -174.601 100 -158.908 c 1
37.0938 20.2063 m 1xd0
 37.0938 -44.5156 l 2
 37.0938 -53.5981 39.2055 -62.7177 43.3647 -70.6978 c 1
 44.2431 -69.3502 45.1378 -68.0904 46.0312 -66.9531 c 0
 54.8204 -55.7647 59.0425 -49.3875 62 -40.4087 c 1
 62 -1.35744 l 1
 51.1437 3.46829 42.8607 11.1199 37.0938 20.2063 c 1xd0
37.8005 -80.9008 m 1
 30.5927 -70.1154 27.0938 -57.242 27.0938 -44.5156 c 2
 27.0938 55.4844 l 2xc0
 27.0938 80.5312 41.0344 106.003 68.7969 112.844 c 0
 73.86 114.092 78.75 114.75 83.4688 114.75 c 0
 120.344 114.75 144.938 76.1719 144.938 27.9062 c 2
 144.938 -72.0938 l 2
 144.938 -104.297 133.812 -139.25 108.531 -164.531 c 0
 92.6874 -180.375 53.7031 -206 40 -206 c 2
 35 -206 l 1
 35 -201 l 1
 35 -103.78 l 1xa4
 33.7491 -102.329 33.0312 -100.236 33.0312 -97.7188 c 0
 33.0312 -93.4184 34.9789 -87.0956 37.8005 -80.9008 c 1
EndSplineSet
Validated: 1
EndChar

StartChar: uni002D
Encoding: 45 45 14
Width: 274
Flags: W
HStem: 41 10<39 132 142 236> 141 93<39 132 142 236>
VStem: 29 10<51 141> 132 10<51 141> 236 10<51 141>
LayerCount: 2
Fore
SplineSet
142 51 m 1
 236 51 l 1
 236 141 l 1
 142 141 l 1
 142 51 l 1
132 51 m 1
 132 141 l 1
 39 141 l 1
 39 51 l 1
 132 51 l 1
246 141 m 1
 246 46 l 1
 246 41 l 1
 241 41 l 1
 137 41 l 1
 34 41 l 1
 29 41 l 1
 29 46 l 1
 29 141 l 1
 29 146 l 1
 29 234 l 1
 246 234 l 1
 246 146 l 1
 246 141 l 1
EndSplineSet
Validated: 1
EndChar

StartChar: uni002E
Encoding: 46 46 15
Width: 187
Flags: W
HStem: -111.406 10<71.1544 114.108> -11.4062 109.516<50.5036 134.484>
VStem: 40 10<-74.4531 7.44089> 135 10<-76.9688 6.71894>
LayerCount: 2
Fore
SplineSet
50 -72.2344 m 1
 56.1719 -91.5 74.0938 -101.406 92.7656 -101.406 c 0
 110.281 -101.406 127.422 -92.6562 135 -75 c 1
 135 6.71894 l 1
 124.07 -5.42543 108.293 -11.4062 92.7656 -11.4062 c 0
 76.8385 -11.4062 60.657 -5.0936 50 7.44089 c 1
 50 -72.2344 l 1
37.6406 42.875 m 0
 37.6406 65.7188 51.3344 86.0777 73.2188 94.6719 c 0
 79.533 97.1516 86.0938 98.1094 92.3281 98.1094 c 0
 122.984 98.1094 148.938 72.4375 148.938 42.6094 c 0
 148.938 36.1463 147.586 29.5993 145 23.0327 c 1
 145 -76 l 1
 145 -76.9688 l 1
 144.641 -77.875 l 2
 135.516 -100.406 113.828 -111.406 92.7656 -111.406 c 0
 70.4375 -111.406 47.6249 -99 40.2031 -74.4531 c 2
 40 -73.7344 l 1
 40 -73 l 1
 40 26.2518 l 1
 38.3901 31.8366 37.6406 37.4423 37.6406 42.875 c 0
EndSplineSet
Validated: 1
EndChar

StartChar: uni002F
Encoding: 47 47 16
Width: 237
Flags: W
HStem: -113 10.0073<7.15845 28 38 58.6501>
VStem: -3 10<-102.743 -12.5411> 28 10<-102.993 -13.0067> 59 10<-70.1015 -12.7679> 162.25 70.906<511.635 587.869> 223 10<480.688 545.337>
LayerCount: 2
Fore
SplineSet
160.172 579.312 m 0xf4
 160.422 580.172 160.985 582.983 162.25 585.047 c 0
 162.892 586.094 163.828 587.125 164.922 587.906 c 0
 169.594 591.234 178.156 591.016 198 591 c 0
 209.5 590.984 221.281 591 226.766 589.656 c 0
 232.859 588.156 233.156 584.203 233.156 582.828 c 0xf8
 233.156 582.704 233.083 582.22 233 581.724 c 2
 233 482 l 1
 233 481.328 l 1
 232.828 480.688 l 2
 226.875 458.891 71.375 -98.1719 68.875 -108.078 c 0
 68.5789 -109.518 67.5501 -111.641 64.0312 -112.297 c 0
 61.0469 -112.844 52.0156 -113 33 -113 c 0
 19.5 -113 8.50263 -113.208 3.29688 -111.906 c 0
 -2.74695 -110.394 -2.98438 -106.594 -3 -105 c 0
 -3.28042 -71.7698 -3.00165 -38.5239 -3.00002 -5.29364 c 0
 -3.00002 -5.24554 -3.00147 -5.19713 -3.00147 -5.14842 c 0
 -3.00147 -5.09926 -3 -5.04978 -3 -5 c 0
 -2.98175 -4.07817 -3.01562 -4.42188 -2.8125 -3.60938 c 0
 0.421875 9.96875 155.18 562.17 160.172 579.312 c 0xf4
7 -102.396 m 1
 9.71234 -102.755 15.4607 -102.953 28 -102.993 c 1
 28 -12.9975 l 1
 15.9555 -12.9832 10.4604 -12.9001 7 -12.5411 c 1
 7 -102.396 l 1
38 -103.001 m 1
 47.6845 -103.001 54.7986 -102.988 59 -102.745 c 1
 59 -12.7679 l 1
 53.5716 -13.0372 45.5449 -13.0216 38 -13.0067 c 1
 38 -103.001 l 1
69 -70.1015 m 1
 223 482.672 l 1
 223 545.337 l 1xf4
 69 -7.60196 l 1
 69 -70.1015 l 1
EndSplineSet
Validated: 33
EndChar

StartChar: uni0030
Encoding: 48 48 17
Width: 421
Flags: W
HStem: -110.469 10<177.828 245.805> -10.4688 88.0782<164.877 248.526> 398.172 10<190.565 232.679> 498.172 90.047<165.897 244.318>
VStem: 20.875 94.0408<291.048 428.25> 20.875 10.0108<116.309 183.284> 63 10<10.8615 69.3405> 140 10<374.432 438.619> 233 10<404.58 488.344> 249 10<-90.6222 -4.98676> 301 100.016<310.274 436.599> 390.999 10.0169<114.382 182.215>
LayerCount: 2
Fore
SplineSet
191.359 586.953 m 0xf5d0
 197.984 587.812 204.531 588.219 210.969 588.219 c 0
 322.625 588.219 401.016 464 401.016 291.016 c 0
 401.016 289.594 401.016 288.203 401.016 286.781 c 2
 401.016 186.781 l 2
 401.016 39.0312 348.713 -67.7973 255.766 -102.672 c 0
 241.905 -107.873 227.328 -110.469 212.5 -110.469 c 0
 154.312 -110.469 93.0319 -72.5777 63.5312 -14.25 c 0
 34.8757 42.4066 20.875 114.734 20.875 186.703 c 2
 20.875 286.703 l 2
 20.875 358.031 34.9913 428.872 62.5312 484.219 c 0
 88.1939 535.794 142.906 580.656 191.359 586.953 c 0xf5d0
73 -10.7905 m 1xf3c0
 100.048 -63.2878 156.851 -100.469 212.5 -100.469 c 0
 225.053 -100.469 237.332 -98.454 249 -94.4843 c 1
 249 -4.98676 l 1
 237.193 -8.64313 224.935 -10.4688 212.5 -10.4688 c 0
 159.967 -10.4688 104.913 20.4158 73 69.3405 c 1
 73 -10.7905 l 1xf3c0
63 10.8615 m 1
 63 86.8054 l 1
 48.5513 115.653 37.875 148.511 30.8858 183.284 c 1xf7c0
 31.272 122.326 41.9849 61.3118 63 10.8615 c 1
259 -90.6222 m 1
 341.234 -55.6493 389.961 42.65 390.999 182.215 c 1xf1d0
 371.989 90.6666 326.457 25.3762 259 -1.42293 c 1
 259 -90.6222 l 1
150 374.432 m 1
 167.581 395.785 190.075 408.172 212.703 408.172 c 0
 219.586 408.172 226.394 406.958 233 404.58 c 1
 233 493.829 l 1
 225.767 496.988 218.84 498.172 212.703 498.172 c 0
 190.728 498.172 167.099 483.772 150 457.526 c 1
 150 374.432 l 1
140 360.441 m 1
 140 438.619 l 1
 126.612 407.917 115.294 357.789 114.916 291.048 c 1xf9c0
 119.836 314.262 127.657 340.453 140 360.441 c 1
243 400.014 m 1
 273.273 383.345 290.661 348.932 301 310.274 c 1
 301 357.678 l 1xf1e0
 291.746 426.416 272.3 469.064 243 488.344 c 1
 243 400.014 l 1
303.763 233.4 m 1
 303.033 241.341 302.109 249.327 301.047 257.328 c 0
 291.094 331.812 269.156 375.734 235.734 392.547 c 0
 227.516 396.672 219.609 398.172 212.703 398.172 c 0
 190.391 398.172 166.361 383.343 149.219 356.312 c 0
 136.605 336.421 122.522 298.043 117.075 237.14 c 1
 119.254 212.338 123.117 188.215 128.844 166.25 c 0
 143.881 108.58 177.125 77.6094 209.688 77.6094 c 0
 225.469 77.6094 241.9 84.6154 257.422 100.5 c 0
 281.077 124.707 297.857 172.935 303.763 233.4 c 1
EndSplineSet
Validated: 1
EndChar

StartChar: uni0031
Encoding: 49 49 18
Width: 428
Flags: W
HStem: -105 10<178 210 220 252> 562 20G<168 262>
VStem: 168 10<-95 -5> 210 10<-95 -5> 252 10<-95 -5>
CounterMasks: 1 38
LayerCount: 2
Fore
SplineSet
220 -95 m 1
 252 -95 l 1
 252 -5 l 1
 220 -5 l 1
 220 -95 l 1
210 -95 m 1
 210 -5 l 1
 178 -5 l 1
 178 -95 l 1
 210 -95 l 1
168 -5 m 1
 168 0 l 1
 168 582 l 1
 262 582 l 1
 262 0 l 1
 262 -5 l 1
 262 -100 l 1
 262 -105 l 1
 215 -105 l 1
 168 -105 l 1
 168 -100 l 1
 168 -5 l 1
EndSplineSet
Validated: 1
EndChar

StartChar: uni0032
Encoding: 50 50 19
Width: 423
Flags: W
HStem: -105 10<35.3541 207 217 389> -5 92<188.875 197 217 389> 394.609 10<139.145 202.563> 494.609 93.907<101.219 231.417>
VStem: 24 9.99998<-92.8103 -2.86373> 37 10<336.156 421.088> 49 10<350.287 423.341> 197 10<87 96.4893> 207 10<-94.9997 -5.00021> 264 95.453<355.181 460.285> 349.453 10<264.61 340.735> 389 10<-95 -5>
LayerCount: 2
Fore
SplineSet
144.953 584.891 m 0xffb0
 155.953 587.156 167.203 588.516 178.672 588.516 c 0
 234.578 588.516 293.664 561.057 323.125 517.812 c 0
 346.993 482.777 359.453 446.031 359.453 405.969 c 2xffd0
 359.453 305.969 l 2
 359.453 243.157 329.37 172.932 268.12 87 c 1
 399 87 l 1
 399 0 l 1
 399 -5 l 1
 399 -100 l 1
 399 -105 l 1
 394 -105 l 1
 212 -105 l 2
 94.0156 -105 40.7344 -104.578 30.3906 -102.312 c 0
 26.7656 -101.516 24.0338 -100.078 24 -96 c 0
 23.7254 -62.8397 23.9972 -29.6643 24 3.496 c 0
 23.9942 3.58866 23.9917 3.67584 23.9917 3.75678 c 0
 23.9917 3.8457 24 3.9271 24 4 c 0
 24.0652 4.90605 23.971 5.31148 24.7188 6.9375 c 0
 27.7277 13.4803 44.7656 33.3438 47.1875 36.2344 c 0
 129.862 134.909 223.969 267.266 247.453 319.062 c 0
 250.287 325.32 252.889 332.406 255.148 339.825 c 1
 240.219 375.592 208.317 394.609 171.141 394.609 c 0
 134.297 394.609 92.0194 375.875 57.9375 333.906 c 0
 51.3906 325.844 45.625 319.562 45.5312 319.469 c 2
 41.2656 316.234 l 1
 37 323 l 1
 37 421.921 l 2
 36.9159 422.208 36.8377 422.534 36.7656 422.906 c 0
 35.636 428.736 35 455.141 35 476 c 2
 35 532.719 l 1
 54.25 545.172 l 2
 84.6562 565.438 114.234 578.531 144.953 584.891 c 0xffb0
34 -92.8103 m 1
 42.3663 -94.1722 68.0194 -94.9809 207 -94.9997 c 1
 207 -5.00021 l 1
 125.795 -5.00661 54.0667 -5.1433 34 -2.86373 c 1
 34 -92.8103 l 1
59 350.287 m 1
 93.283 387.003 134.104 404.609 171.141 404.609 c 0
 207.857 404.609 240.896 387.044 259.087 354.557 c 1
 262.169 367.87 264 381.221 264 392 c 0
 264 457.766 222.203 494.609 171.141 494.609 c 0
 134.679 494.609 92.8953 476.262 59 435.204 c 1
 59 350.287 l 1
49 338.728 m 1
 49 423.341 l 1
 47 421.088 l 1
 47 336.156 l 1
 49 338.728 l 1
217 -95 m 1
 389 -95 l 1
 389 -5 l 1
 217 -5 l 1
 217 -95 l 1
255.807 87 m 1
 319.332 174.849 349.453 245.147 349.453 305.969 c 2
 349.453 340.735 l 1xffb0
 330.139 274.798 282.799 199.443 207 108.209 c 1
 207 87 l 1
 255.807 87 l 1
197 87 m 1
 197 96.4893 l 1
 188.875 87 l 1
 197 87 l 1
EndSplineSet
Validated: 33
EndChar

StartChar: uni0033
Encoding: 51 51 20
Width: 422
Flags: W
HStem: -111.125 10<124.611 219.168> -11.125 93.4375<92.1588 242.276> 400.891 10<129.893 203.48> 500.891 88.609<87.0558 226.018>
VStem: 49 10<-72.0312 16.5735> 64 10<-72.5761 10.9797 386.969 478.186> 82 10<394.44 479.458> 146 10<163.219 253.058> 175 10<159.941 248.138> 219 10<401 484.027> 232 10<145.4 225.112> 260.969 94.109<379.86 475.208> 265.984 97.375<124.129 221.967> 282 10<-64.2347 16.9559> 331 10<287.807 343.177> 345.078 10<288.835 367.23> 353.359 10<28.8145 109.432>
LayerCount: 2
Fore
SplineSet
150.469 587.969 m 0xffe080
 159.063 588.823 167.672 589.5 176.406 589.5 c 0
 228.188 589.5 280.688 572.047 310.516 542.562 c 0
 339.469 513.938 355.078 468.234 355.078 424.25 c 2xfff0
 355.078 324.25 l 2xffe1
 355.078 300.88 350.669 277.925 341.246 258.336 c 1
 356.099 233.903 363.359 203.564 363.359 172.5 c 2xffe8
 363.359 72.5 l 2
 363.359 14.0312 337.828 -46.1094 289.781 -78.1562 c 0
 257.141 -99.9219 215.312 -111.125 172.344 -111.125 c 0
 134.672 -111.125 96.1094 -102.719 62.6562 -85.4219 c 0
 58.9531 -83.5 55.2656 -81.3906 51.6094 -79.3906 c 2
 49 -77.9688 l 1
 49 -75 l 1
 49 22.0312 l 1
 49 25 l 1
 49 125.094 l 1
 78.25 110.469 l 2
 115.625 91.7814 150.875 82.3125 180.266 82.3125 c 0
 212.312 82.3125 236.891 93.0938 250.859 113.797 c 2
 251.022 114.039 l 1
 246.401 120.874 240.823 127.015 234.031 131.969 c 0
 220.525 141.82 217.45 142.889 179.188 149.062 c 0
 169.5 150.625 159.812 152.406 150.156 154.078 c 2
 146 154.781 l 1
 146 159 l 1
 146 254.781 l 1
 146 259 l 1
 146 340.5 l 1
 169.562 342.984 l 1
 204.227 345.459 228.085 354.165 242.884 371.237 c 1
 237.006 378.187 229.895 384.17 221.625 388.594 c 0
 206.153 396.87 188.688 400.891 169.094 400.891 c 0
 145.406 400.891 118.626 394.899 88.9844 382.406 c 0
 82.3125 379.594 73.6719 375.953 70.6562 375.219 c 1
 70.8281 375.266 69.4844 375.078 69 375 c 2
 64 375 l 1
 64 380 l 1
 64 478.735 l 2
 63.8821 479.1 63.7689 479.555 63.6562 480.125 c 0
 62.8316 484.298 62.5938 495.141 62.5938 501.609 c 0
 62.5938 507.109 62.7031 513.297 63 520.109 c 2
 63 563.391 l 1
 81.0625 570.609 l 2
 99.7812 578.938 127.829 585.72 150.469 587.969 c 0xffe080
92 394.44 m 1
 119.847 405.403 145.622 410.891 169.094 410.891 c 0
 187.1 410.891 203.864 407.67 219 401 c 1
 219 489.96 l 1
 204.211 497.368 187.586 500.891 169.094 500.891 c 0
 146.212 500.891 120.445 495.274 92 483.656 c 1
 92 394.44 l 1
82 390.315 m 1
 82 479.458 l 1
 79.2846 478.329 76.3563 477.146 74 476.292 c 1
 74 386.969 l 1
 76.1458 387.808 78.8319 388.965 82 390.315 c 1
229 395.933 m 1
 236.558 391.499 243.248 385.884 248.947 379.506 c 1
 253.596 387.039 256.95 395.851 259.109 406.062 c 0
 260.265 411.531 260.969 417.016 260.969 422.422 c 0
 260.969 446.716 248.95 469.982 229 484.027 c 1
 229 395.933 l 1
185 158.27 m 1
 212.042 153.914 222.128 151.3 232 145.4 c 1
 232 233.46 l 1
 220.832 241.565 216.016 243.165 185 248.138 c 1
 185 158.27 l 1
175 159.941 m 1
 175 249.784 l 1
 156 253.058 l 1
 156 163.219 l 1
 175 159.941 l 1
242 138.491 m 1
 247.526 134.145 252.36 129.058 256.533 123.532 c 1
 262.878 136.25 265.984 150.242 265.984 164.125 c 0xffe8
 265.984 186.941 257.772 209.413 242 225.112 c 1
 242 138.491 l 1
70 -77.9192 m 1
 101.289 -93.4281 137.156 -101.125 172.344 -101.125 c 0
 212.633 -101.125 251.732 -90.7365 282 -71.2958 c 1
 282 16.9559 l 1xffe4
 250.626 -1.59722 211.969 -11.125 172.344 -11.125 c 0
 137.396 -11.125 101.722 -3.8233 70 10.9797 c 1
 70 -77.9192 l 1
60 -72.5761 m 1
 60 16.0278 l 1
 59 16.5735 l 1
 59 -72.0312 l 1
 60 -72.5761 l 1
292 -64.2347 m 1
 332.229 -32.9537 353.359 20.5203 353.359 72.5 c 2
 353.359 109.432 l 1xffe480
 342.075 74.8407 321.382 43.7776 292 23.3548 c 1
 292 -64.2347 l 1
341 287.807 m 1xffe3
 343.733 299.392 345.078 311.714 345.078 324.25 c 2
 345.078 367.23 l 1
 343.839 364.037 342.48 360.915 341 357.875 c 1
 341 287.807 l 1xffe3
331 272.755 m 1
 331 343.177 l 1
 321.454 331.459 307.287 317.22 296 309.337 c 1
 296 300.575 l 1
 297.101 300.032 297.943 299.622 298.266 299.453 c 0
 311.112 292.72 322.009 283.606 331 272.755 c 1
EndSplineSet
Validated: 1
EndChar

StartChar: uni0034
Encoding: 52 52 21
Width: 423
Flags: W
HStem: -105 10<257 288 298 330> 85 10<15 126 136 247 372 394> 185 82.25<136 182 192 200.841 213.371 246 340 362 372 394>
VStem: 5 10<95 185> 126 10<95 185> 182 10<268 327.706> 247 10<-95 -5> 288 10<-95 -5> 330 10<-95 -5> 362 10<95 185> 394 10<95 185>
LayerCount: 2
Fore
SplineSet
372 95 m 1
 394 95 l 1
 394 185 l 1
 372 185 l 1
 372 95 l 1
276.156 565.203 m 1
 295.703 588 l 1
 340 588 l 1
 340 267 l 1
 404 267 l 1
 404 190 l 1
 404 185 l 1
 404 90 l 1
 404 85 l 1
 399 85 l 1
 367 85 l 1
 362 85 l 1
 362 90 l 1
 362 185 l 1
 340 185 l 1
 340 90 l 1
 340 0 l 1
 340 -5 l 1
 340 -100 l 1
 340 -105 l 1
 293 -105 l 1
 252 -105 l 1
 247 -105 l 1
 247 -100 l 1
 247 -5 l 1
 247 0 l 1
 247 85 l 1
 131 85 l 1
 10 85 l 1
 5 85 l 1
 5 90 l 1
 5 185 l 1
 5 190 l 1
 5 229.766 l 1
 276.156 565.203 l 1
136 95 m 1
 247 95 l 1
 247 185 l 1
 136 185 l 1
 136 95 l 1
126 95 m 1
 126 185 l 1
 15 185 l 1
 15 95 l 1
 126 95 l 1
298 -95 m 1
 330 -95 l 1
 330 -5 l 1
 298 -5 l 1
 298 -95 l 1
288 -95 m 1
 288 -5 l 1
 257 -5 l 1
 257 -95 l 1
 288 -95 l 1
182 268 m 1
 182 327.706 l 1
 134.375 268 l 1
 182 268 l 1
245 407.558 m 1
 192 340.26 l 1
 192 267.864 l 1
 195.011 267.785 197.963 267.713 200.841 267.649 c 1
 245 323.734 l 1
 245 407.558 l 1
246 308.839 m 1
 213.371 267.41 l 1
 220.249 267.303 226.464 267.25 231.75 267.25 c 0
 236.594 267.25 242.328 267.297 246 267.453 c 1
 246 308.839 l 1
EndSplineSet
Validated: 1
EndChar

StartChar: uni0035
Encoding: 53 53 22
Width: 424
Flags: W
HStem: -110.328 10<124.915 224.438> -10.3281 90.6719<79.3105 239.103> 177.859 10<99.3133 186> 397 10<168 248 258 339> 497 85<168 248 258 339>
VStem: 37 10<-69.7344 19.3558> 53 10<-72.3563 12.4518> 81 87<364 397 407 497> 81 9.98047<182.003 272.193> 186 10<185.153 272.488> 248 10<407 497> 280.703 95.797<136.711 233.331> 339 10<407 497> 366.5 10<34.7997 114.449>
LayerCount: 2
Fore
SplineSet
92.4548 181.566 m 1xfee0
 107.974 185.833 129.035 187.859 149.328 187.859 c 0
 153.121 187.859 170.589 187.895 186 185.153 c 1
 186 274.978 l 1
 176.188 276.899 163.013 277.859 149.328 277.859 c 0
 128.609 277.859 106.469 275.531 92.4688 271.219 c 2
 92.2344 271.141 l 1
 91.9844 271.094 l 2
 92.1518 271.129 91.5686 271.05 90.9805 270.974 c 0
 90.9641 215.246 91.0785 190.654 92.4548 181.566 c 1xfee0
63 -76.7074 m 1
 100.06 -92.4411 138.723 -100.328 175.516 -100.328 c 0
 243.781 -100.328 304.747 -73.8734 335.812 -26.2656 c 0
 356.295 5.12607 366.5 40.6719 366.5 76.1719 c 2
 366.5 114.449 l 1xfe64
 361.185 98.447 353.749 82.9217 344.188 68.2656 c 0
 310.684 16.9087 246.219 -10.3281 175.516 -10.3281 c 0
 138.657 -10.3281 100.111 -2.73916 63 12.4518 c 1
 63 -76.7074 l 1
53 -72.3563 m 1
 53 16.7286 l 1
 47 19.3558 l 1
 47 -69.7344 l 1
 53 -72.3563 l 1
258 407 m 1
 339 407 l 1
 339 497 l 1xfe68
 258 497 l 1
 258 407 l 1
248 407 m 1
 248 497 l 1
 168 497 l 1
 168 407 l 1xff60
 248 407 l 1
196 182.879 m 1
 228.421 174.146 253.597 157.181 269.823 136.089 c 1
 277.23 149.346 280.703 163.25 280.703 176.969 c 0xfe70
 280.703 217.114 250.502 256.782 196 272.488 c 1
 196 182.879 l 1
264.083 127.057 m 1
 248.94 148.309 223.738 165.808 189.812 174.141 c 0
 179.766 176.609 164.875 177.859 149.328 177.859 c 0
 128.609 177.859 106.469 175.531 92.4688 171.219 c 2
 92.2344 171.141 l 1
 91.9844 171.094 l 2
 92.2812 171.156 90.2188 170.859 89.9531 170.859 c 0
 88.5469 170.859 84.3624 171.313 82.9531 177.75 c 0
 80.0999 190.782 81 283.109 81 326 c 2
 81 358.993 l 2xfee4
 80.9936 365.24 80.9914 371.875 80.9914 378.909 c 0
 80.9914 392.977 81 408.641 81 426 c 2xff60
 81 582 l 1
 349 582 l 1
 349 502 l 1
 349 497 l 1
 349 402 l 1
 349 397 l 1xfee8
 344 397 l 1
 253 397 l 1
 168 397 l 1
 168 364 l 1
 176 364 l 2
 234.594 364 302.702 337.202 332.875 300.156 c 0
 362.03 264.359 376.5 220.219 376.5 176.172 c 2xff70
 376.5 76.1719 l 2xfe64
 376.5 38.7812 365.748 1.31402 344.188 -31.7344 c 0
 310.684 -83.0914 246.219 -110.328 175.516 -110.328 c 0
 136.328 -110.328 95.1542 -101.922 55.9844 -84.5781 c 0
 50.6562 -82.2188 45.327 -79.9087 40 -77.5781 c 2
 37 -76.2656 l 1
 37 -73 l 1
 37 23.7344 l 1
 37 27 l 1
 37 71 l 2
 37 105.969 38.4219 110.422 39.0469 114.719 c 2
 39.6719 119 l 1
 44 119 l 2
 45.5938 118.656 45.6875 118.75 45.8594 118.688 c 0
 49.2812 117.609 59.9353 111.762 68.3281 107.422 c 0
 90.75 95.8281 128.156 80.3438 168.094 80.3438 c 0
 200.188 80.3438 227.891 90.3751 249.594 110.656 c 0
 255.223 115.916 260.04 121.406 264.083 127.057 c 1
EndSplineSet
Validated: 33
EndChar

StartChar: uni0036
Encoding: 54 54 23
Width: 423
Flags: W
HStem: -111.062 10<179.572 258.684> -11.0625 87.4375<162.414 276.403> 150.422 10<180.869 244.562>
VStem: 33.3125 10<53.16 127.88> 122 10<-72.1853 10.707> 147 10<147.078 230.725> 156 10<325.921 327.377> 245 10<155.974 241.531> 299 10<418.295 499.427> 304 95<123.957 222.911> 314 10<418.366 509.661> 389 10<26.9759 106.787>
LayerCount: 2
Fore
SplineSet
247.016 576.016 m 0xf910
 252.391 579.969 261.828 586.156 265.922 587.609 c 0
 266.906 587.953 267.578 588 268 588 c 2
 268.812 588 l 1
 269.578 587.75 l 2
 270.594 587.156 270.703 587.375 271.938 586.297 c 0
 277.938 581.047 318.938 530.109 323.047 523.109 c 0
 323.531 522.281 324.391 521.188 324 520 c 2
 324 420 l 2xf930
 324 418.219 323.186 416.846 321.859 415.531 c 0
 319.246 412.942 312.906 409 306.734 404.812 c 0
 277.092 384.698 250.991 362.185 228.416 337.828 c 1
 230.21 337.88 231.999 337.906 233.781 337.906 c 0
 295.938 337.906 350 305.812 378.484 248.219 c 0
 392.562 219.75 399 191.328 399 164.281 c 2xf940
 399 64.2812 l 2
 399 -32.7188 317.141 -111.062 219.844 -111.062 c 0
 188.875 -111.062 156.453 -102.953 124.578 -85.375 c 0
 65.0156 -52.5156 33.3125 24.8281 33.3125 101.844 c 2
 33.3125 201.844 l 2
 33.3125 212.312 33.9077 222.891 35.0312 233.531 c 0
 50.2705 377.857 129.391 489.219 247.016 576.016 c 0xf910
314 421.915 m 1
 314 509.661 l 1
 309 506.337 l 1
 309 418.295 l 1xf9a0
 310.95 419.613 312.799 420.917 314 421.915 c 1
132 -78.0248 m 1
 161.607 -93.8469 191.419 -101.062 219.844 -101.062 c 0
 311.766 -101.062 389 -26.9219 389 64.2812 c 2
 389 106.787 l 1xf910
 364.328 38.1154 296.931 -11.0625 219.844 -11.0625 c 0
 191.276 -11.0625 161.471 -4.1617 132 10.707 c 1
 132 -78.0248 l 1
122 -72.1853 m 1
 122 16.085 l 1
 83.2789 38.5867 56.683 80.1277 43.3125 127.88 c 1
 43.3125 101.844 l 2
 43.3125 32.2144 70.3316 -38.798 122 -72.1853 c 1
299 411.631 m 1xfb80
 299 499.427 l 1
 239.629 457.269 194.44 405.985 166 347.839 c 1
 166 325.921 l 1
 168.391 326.734 l 2
 183.795 331.932 199.09 335.285 214.039 336.858 c 1
 238.188 364.176 266.679 389.294 299 411.631 c 1xfb80
157 147.078 m 1xfd
 176.015 155.999 195.111 160.422 213.562 160.422 c 0
 224.298 160.422 234.887 159.007 245 155.974 c 1
 245 245.497 l 1
 234.949 248.906 224.408 250.422 213.562 250.422 c 0
 195.396 250.422 176.287 245.78 157 235.976 c 1
 157 147.078 l 1xfd
147 141.998 m 1
 147 230.725 l 1
 128.766 221.182 129.788 221.536 128 200.531 c 1
 128 169.112 l 1
 129.3 157.384 132.046 146.252 136.052 136.103 c 1
 147 141.998 l 1
255 152.395 m 1
 272.567 145.223 286.201 135.726 295.894 123.429 c 1
 301.068 134.671 304 147.636 304 162 c 0xf940
 304 202.121 289.839 226.073 255 241.531 c 1
 255 152.395 l 1
290.623 113.742 m 1
 281.705 126.762 268.095 136.728 248.234 144.328 c 0
 237.219 148.531 225.578 150.422 213.562 150.422 c 0
 194.562 150.422 174.547 145.312 154.344 134.594 c 0
 147.278 130.836 143.197 128.685 140.147 126.933 c 1
 147.246 112.795 157.003 101.103 168.797 93.1406 c 0
 186 81.5312 204.219 76.375 221.516 76.375 c 0
 249.759 76.375 275.651 90.1731 290.623 113.742 c 1
156 322.53 m 1xfb
 156 327.377 l 1
 154.932 325.128 154.094 323.272 153.484 321.734 c 1
 156 322.53 l 1xfb
EndSplineSet
Validated: 1
EndChar

StartChar: uni0037
Encoding: 55 55 24
Width: 423
Flags: W
HStem: 390 10<46 160 170 236.846> 490 92<46 160 170 281.312>
VStem: 36 10<400 490> 75 10<-74.1242 16.9692> 148 10<-84.348 -8.47822> 160 10<400 489.96> 410.125 9.875<466.883 550.387>
LayerCount: 2
Fore
SplineSet
152.842 -111.029 m 0
 152.804 -111.021 152.1 -111 152.062 -111 c 0
 144.641 -110.312 87.672 -86.031 78.0156 -79.0469 c 0
 74.5157 -76.5155 75.0047 -74.625 75 -74 c 0
 74.7519 -40.9277 74.9962 -7.84001 75 25.2325 c 0
 74.9899 25.3563 74.9849 25.4821 74.985 25.61 c 0
 74.985 25.7378 74.99 25.8677 75 26 c 0
 75.0959 27.2654 74.969 26.9061 75.4219 28.0781 c 0
 78.0482 34.8745 124.719 138.219 180.438 263.031 c 2
 236.846 389.425 l 1
 212.882 389.641 188.939 389.929 164.984 390 c 0
 123.641 390.123 82.3281 390 41 390 c 2
 36 390 l 1
 36 395 l 1
 36 490 l 1
 36 495 l 1
 36 582 l 1
 228 582 l 2
 312.359 581.984 403.719 581.403 414.875 580.125 c 0
 419.391 579.608 420.072 576.594 420 575 c 2
 420 475 l 2
 420 474 419.703 473.219 419.594 472.891 c 0
 413.125 453.906 169.319 -87.7823 157.672 -108 c 0
 156.341 -110.31 155.188 -110.328 154.391 -110.797 c 0
 154.162 -110.926 153.227 -111.015 152.842 -111.029 c 0
152.842 -111.029 m 0
 152.806 -111.029 152.775 -111.031 152.75 -111.031 c 1
 152.825 -111.031 152.85 -111.029 152.842 -111.029 c 0
85 -71.6662 m 1
 93.5697 -76.7711 133.131 -94.529 148 -99.6504 c 1
 148 -9.91887 l 1
 134.184 -5.73524 100.444 9.00245 85 16.9692 c 1
 85 -71.6662 l 1
170 399.96 m 1
 241.291 399.385 l 1
 281.312 489.062 l 1
 170 489.96 l 1
 170 399.96 l 1
160 400 m 1
 160 490 l 1
 46 490 l 1
 46 400 l 1
 160 400 l 1
158 -84.348 m 1
 203.867 13.8397 403.928 458.22 410.125 476.109 c 1
 410.031 550.387 l 1
 364.275 445.636 171.614 17.9099 158 -7.40748 c 1
 158 -84.348 l 1
EndSplineSet
Validated: 37
EndChar

StartChar: uni0038
Encoding: 56 56 25
Width: 421
Flags: W
HStem: -110.875 10<166.113 257.715> -10.875 89.9688<145.094 276.63> 146.344 10<176.827 230.803> 246.344 93.437<156.274 230.632> 398.562 10<182.824 236.73> 498.562 90.016<154.848 236.125>
VStem: 22.2344 94.7186<120.917 217.383> 22.2344 10<21.6647 102.962> 34.3281 94.4059<378.476 472.489> 34.3281 15.6719<271.176 351.723> 70 10<-41.3337 34.5916> 80 10<288.695 302.059> 231 10<154.18 241.469> 237 10<405.553 491.94> 296.344 94.437<377.798 473.242> 304.781 94.281<118.999 215.452> 330 10<290.702 297.927> 343 10<-42.2301 33.5721> 380.781 10<288.557 370.886> 389.062 10<17.8867 99.9088>
LayerCount: 2
Fore
SplineSet
301.203 135.406 m 0xfc09
 303.718 143.813 304.781 152.094 304.781 160.141 c 0
 304.781 197.327 280.266 229.552 241 241.469 c 1
 241 151.867 l 1
 262.694 145.877 280.749 134.166 293.561 118.76 c 1
 296.819 123.854 299.409 129.408 301.203 135.406 c 0xfc09
247 402.622 m 1xfc06
 262.395 397.228 275.031 388.258 284.598 377.21 c 1
 292.537 389.735 296.344 404.047 296.344 418.406 c 0
 296.344 448.874 279.129 479.122 247 491.94 c 1
 247 402.622 l 1xfc06
237 405.553 m 1
 237 495.234 l 1
 228.41 497.535 219.987 498.562 211.891 498.562 c 0
 165.156 498.562 128.734 463.375 128.734 421.125 c 0
 128.734 410.188 131.031 398.703 136.516 387.125 c 0
 137.97 384.063 139.595 381.135 141.374 378.345 c 1
 158.401 396.852 183.581 408.562 211.891 408.562 c 0
 220.042 408.562 228.462 407.614 237 405.553 c 1
231 154.18 m 1xfc08
 231 243.993 l 1
 223.137 245.603 215.488 246.344 208.094 246.344 c 0
 155.797 246.344 116.953 208.625 116.953 163.297 c 0
 116.953 150.766 119.969 137.562 126.484 124.203 c 0
 127.038 123.069 127.618 121.957 128.225 120.866 c 1
 146.519 142.498 175.104 156.344 208.094 156.344 c 0
 215.525 156.344 223.191 155.655 231 154.18 c 1xfc08
147.407 370.099 m 1
 163.687 350.581 188.376 339.781 213.703 339.781 c 0
 229.656 339.781 245.828 344.062 260.328 353.219 c 0
 267.487 357.747 273.531 363.056 278.502 368.922 c 1
 269.264 380.255 256.589 389.293 240.531 394.219 c 0
 230.717 397.229 221.094 398.562 211.891 398.562 c 0
 185.595 398.562 162.519 387.392 147.407 370.099 c 1
80 -51.9057 m 1xfc3040
 113.553 -84.2778 162.702 -100.875 212.062 -100.875 c 0
 261.048 -100.875 310.034 -84.8882 343 -52.9145 c 1
 343 33.5721 l 1
 308.107 3.64202 259.934 -10.875 212.062 -10.875 c 0
 163.776 -10.875 115.411 4.18732 80 34.5916 c 1
 80 -51.9057 l 1xfc3040
70 -41.3337 m 1
 70 43.9446 l 1
 52.7064 61.5293 40.1288 81.6804 32.2344 102.962 c 1
 32.2344 58.4844 l 2xfd20
 32.2344 23.295 44.7153 -12.1113 70 -41.3337 c 1
353 -42.2301 m 1xfc0050
 377.468 -13.4855 389.062 21.4871 389.062 56.2188 c 2
 389.062 99.9088 l 1
 381.483 79.3449 369.533 59.894 353 42.9549 c 1
 353 -42.2301 l 1xfc0050
50 279.685 m 1xfc50
 52.2011 271.709 54.6631 264.934 57.7584 258.551 c 1
 64.2896 266.589 71.7074 274.123 80 281.019 c 1
 80 312.929 l 1
 66.6496 326.401 57.1505 337.735 50 351.723 c 1
 50 279.685 l 1xfc50
287.369 110.507 m 1
 275.202 126.002 257.18 137.769 234.844 143.141 c 0
 225.625 145.344 216.688 146.344 208.094 146.344 c 0
 176.725 146.344 150.198 132.721 133.985 112.109 c 1
 150.97 90.0465 180.034 79.0938 209.922 79.0938 c 0
 239.895 79.0938 269.575 90.0831 287.369 110.507 c 1
90 302.059 m 1
 90 288.695 l 1
 97.4531 293.859 l 1
 90 302.059 l 1
51.0658 249.704 m 1
 46.4322 258.266 43.0294 267.229 40.1719 277.688 c 0
 36.1562 292.422 34.3281 307.156 34.3281 321.469 c 2xfc40
 34.3281 421.469 l 2
 34.3281 497.031 87.375 562.438 170.766 583.844 c 0
 183.562 587.125 197.062 588.578 210.719 588.578 c 0
 258.812 588.578 309.625 570.031 342.516 537.562 c 0
 374.844 505.625 390.781 465.406 390.781 425.141 c 2xfc82
 390.781 325.141 l 2xfc0020
 390.781 299.017 384.02 272.806 370.651 248.549 c 1
 386 214 399.062 188.531 399.062 156.219 c 2xfc01
 399.062 56.2188 l 2
 399.062 15.1562 383.715 -26.3704 351.531 -58.5312 c 0
 316.23 -93.8075 263.969 -110.875 212.062 -110.875 c 0
 159.781 -110.875 107.408 -93.2173 71.4844 -57.5469 c 0
 38.5795 -24.8736 22.2344 16.9531 22.2344 58.4844 c 2xfd0010
 22.2344 158.484 l 2xfe
 22.2344 190.622 31.9775 222.552 51.0658 249.704 c 1
364.119 257.562 m 1
 375.227 279.197 380.781 302.233 380.781 325.141 c 2
 380.781 370.886 l 1
 372.36 348.451 358.684 327.047 340 307.955 c 1
 340 282.806 l 1xfc00a0
 349.059 275.066 357.106 266.595 364.119 257.562 c 1
330 290.702 m 1
 330 297.927 l 1
 325.75 293.672 l 1
 330 290.702 l 1
EndSplineSet
Validated: 1
EndChar

StartChar: uni0039
Encoding: 57 57 26
Width: 421
Flags: W
HStem: 139.422 10<155.775 199.471> 239.422 88.937<150.516 256.461> 400.078 10<176.098 228.641> 500.078 87.313<151.179 228.586>
VStem: 25.2969 93.9061<374.413 470.145> 25.2969 10<296.578 353.05> 36 10<296.327 328.705> 102 9.94791<-51.7615 38.0856> 153 10<-94.089 -7.43941> 229 10<406.658 492.906> 257 10<-7.93208 66.6872 243.849 250.666> 296 97.797<357.415 466.683> 366 10<202.434 234.265> 383.797 10<217.625 291.552>
LayerCount: 2
Fore
SplineSet
163 -98.6998 m 1xf0e0
 180.768 -88.3968 230.952 -47.0816 257 -19.0333 c 1
 257 66.6872 l 1
 225.325 35.0517 179.23 -2.38896 163 -9.68403 c 1
 163 -98.6998 l 1xf0e0
153 -94.089 m 1
 153 -8.38767 l 1
 146.236 -1.92241 124.543 22.7662 111.948 38.0856 c 1xf1e0
 111.656 -45.2812 l 1
 113.77 -49.0751 139.324 -79.2684 153 -94.089 c 1
267 -7.93208 m 1
 316.52 48.2545 345.349 99.4864 366 164.759 c 1
 366 234.265 l 1xf0e8
 344.373 177.22 313.977 129.438 267 77.0684 c 1
 267 -7.93208 l 1
376 202.434 m 1
 381.253 227.014 383.797 250.751 383.797 273.281 c 2
 383.797 291.552 l 1xf0ec
 381.577 282.211 378.981 272.77 376 263.245 c 1
 376 202.434 l 1
46 252.906 m 1
 70.8331 187.569 128.805 149.422 193.797 149.422 c 0
 198.822 149.422 203.899 149.655 209.004 150.122 c 1
 220.529 163.513 230.608 176.887 238.781 189.688 c 0
 244.531 198.695 251.087 210.829 257 222.695 c 1
 257 250.666 l 1
 235.885 242.885 214.448 239.422 193.797 239.422 c 0
 132.024 239.422 75.9028 272.271 46 328.705 c 1xf2e0
 46 252.906 l 1
36 296.327 m 2
 36 351.107 l 1
 35.2969 353.05 l 1
 35.2969 311.906 l 2xf6e0
 35.2969 306.744 35.525 301.546 36 296.327 c 2
239 403.578 m 1
 262.851 395.051 280.901 379.45 292.194 357.175 c 1
 294.718 362.239 295.432 371.082 296 391.078 c 0xf0f0
 296 427.672 286.023 474.201 239 492.906 c 1
 239 403.578 l 1
229 406.658 m 1
 229 496.294 l 1
 220.155 498.817 211.613 500.078 203.438 500.078 c 0
 155.359 500.078 119.203 458.828 119.203 414.375 c 0
 119.203 400.797 122.533 386.947 129.99 373.796 c 1
 146.908 395.392 173.02 410.078 203.438 410.078 c 0
 211.714 410.078 220.25 408.939 229 406.658 c 1
284.54 350.075 m 1
 274.048 372.362 256.302 387.577 232.453 395.25 c 0
 222.375 398.484 212.672 400.078 203.438 400.078 c 0
 175.056 400.078 150.907 385.81 135.781 364.87 c 1
 138.382 361.33 141.314 357.862 144.594 354.484 c 0
 161.336 337.242 184.656 328.359 210.891 328.359 c 0
 233.312 328.359 257.844 334.672 281.484 348.312 c 2
 284.54 350.075 l 1
267 254.647 m 1
 267 243.849 l 1
 269.237 248.878 271.097 253.324 272.406 256.781 c 1
 267 254.647 l 1
199.579 139.518 m 1
 197.645 139.454 195.718 139.422 193.797 139.422 c 0
 124.531 139.422 62.3711 180.723 36.3125 250.266 c 0
 28.6596 270.689 25.2969 291.594 25.2969 311.906 c 2xf5e4
 25.2969 411.906 l 2
 25.2969 492.375 80.8906 565.422 166.953 584.891 c 0
 174.562 586.609 183.438 587.391 194.75 587.391 c 0
 198.891 587.391 203.297 587.142 208.203 587 c 0
 323.078 583.672 393.797 494.328 393.797 373.281 c 2xf8f0
 393.797 273.281 l 2
 393.797 238.516 387.95 201.189 375.766 162.5 c 0
 353.525 91.8768 321.438 36.5781 265.688 -24.3906 c 0
 234.078 -58.9375 172.547 -108.641 159.5 -110.875 c 0
 158.312 -111.062 158 -111 158 -111 c 2
 157.266 -111.031 156.094 -110.984 154.328 -109.578 c 0
 148.219 -104.703 106.656 -56.8438 102.922 -50.1562 c 0
 101.984 -48.4688 102.016 -48.3906 102 -47 c 0
 101.66 -14.0782 101.992 18.8589 102 51.7811 c 0xf1e4
 101.951 51.9841 101.922 52.1926 101.922 52.406 c 0
 101.922 52.6002 101.946 52.7984 102 53 c 0
 102.688 55.5469 102.063 55.1401 103.703 57.0625 c 0
 106.689 60.5616 114.625 65.7493 122.234 71.1562 c 0
 150.542 91.2732 177.255 115.18 199.579 139.518 c 1
EndSplineSet
Validated: 33
EndChar

StartChar: uni003A
Encoding: 58 58 27
Width: 186
Flags: W
HStem: -110.969 10<67.3993 112.322> -10.9688 110.719<59.7201 125.109> 180.891 10<80.2296 116.016> 280.891 111.687<80.3218 139.44>
VStem: 33.8438 10<-77.5488 11.048> 41.2344 10<214.671 302.839> 49 10<-78.3526 -2.98075> 70 10<198.245 283.03> 126 19.281<-88.8439 0.538972> 141.438 10<216.075 304.004>
LayerCount: 2
Fore
SplineSet
80 193.485 m 1xf140
 85.3019 191.712 90.5862 190.891 95.7188 190.891 c 0
 120.406 190.891 141.438 209.828 141.438 235.266 c 2
 141.438 304.004 l 1
 131.199 289.785 114.205 280.891 95.7188 280.891 c 0
 90.5583 280.891 85.2764 281.581 80 283.03 c 1
 80 193.485 l 1xf140
70 198.245 m 1
 70 286.751 l 1
 62.1404 290.579 55.8809 296.189 51.2344 302.839 c 1
 51.2344 235.641 l 2xf5
 51.2344 220.666 57.6669 206.358 70 198.245 c 1
59 -90.7589 m 1xf380
 67.0558 -97.4969 78.1955 -100.969 89.5 -100.969 c 0
 104.234 -100.969 118.617 -95.1048 126 -85.3829 c 1
 126 0.538972 l 1
 116.044 -7.16645 102.704 -10.9688 89.5 -10.9688 c 0
 78.8687 -10.9688 68.1317 -8.43674 59 -2.98075 c 1
 59 -90.7589 l 1xf380
49 -78.3526 m 1
 49 4.90589 l 1
 47.0942 6.85271 45.3772 8.90695 43.8438 11.048 c 1
 43.8438 -57.0781 l 2xfb
 43.8438 -64.5009 45.5189 -71.8032 49 -78.3526 c 1
145.281 42.5156 m 2xf980
 145.281 -57.4844 l 2
 145.281 -68.2812 142.125 -79.5156 135.141 -89.8125 c 0
 125.5 -104 107.375 -110.969 89.5 -110.969 c 0
 75.375 -110.969 61.0634 -106.499 50.5781 -96.6406 c 0
 39.1104 -85.8584 33.8438 -71.3906 33.8438 -57.0781 c 2
 33.8438 42.9219 l 2
 33.8438 67.0312 48.4889 91.4819 73.7812 97.8438 c 0
 78.8603 99.1214 83.8281 99.75 88.6719 99.75 c 0
 120.969 99.75 145.281 72.6406 145.281 42.5156 c 2xf980
151.438 335.266 m 2xf540
 151.438 235.266 l 2
 151.438 204 125.516 180.891 95.7188 180.891 c 0
 88.3125 180.891 80.6562 182.312 73.125 185.359 c 0
 51.9375 193.953 41.2344 214.859 41.2344 235.641 c 2
 41.2344 335.641 l 2
 41.2344 355.344 50.797 375.828 70.6719 386.422 c 0
 78.7031 390.703 87.375 392.578 95.7656 392.578 c 0
 122.609 392.578 147.594 372.609 150.969 342.594 c 0
 151.25 340.094 151.438 337.688 151.438 335.266 c 2xf540
EndSplineSet
Validated: 1
EndChar

StartChar: uni003B
Encoding: 59 59 28
Width: 192
Flags: W
HStem: 180.984 10.1378<79.38 97 107 121.823>
VStem: 36.9375 10<-68.4045 19.898> 45.1562 10<-193.995 -104.6 215.983 304.261> 68 10<-182.786 -98.9791> 97 10<191.272 281.511> 146 10<-94.8906 -27.3621 215.709 303.968>
LayerCount: 2
Fore
SplineSet
54.9688 -193.995 m 1x9c
 57.3522 -193 61.1732 -191.184 68 -187.873 c 1
 68 -98.9791 l 1
 60.6517 -102.524 58.0101 -103.689 55.5312 -104.438 c 2
 54.9688 -104.6 l 1
 54.9688 -193.995 l 1x9c
100.922 180.984 m 2
 67.4688 180.984 45.1562 206.875 45.1562 237 c 2
 45.1562 337 l 2xbc
 45.1562 358.188 57.146 379.766 82.3125 388.703 c 0
 88.5952 390.934 94.875 392.047 101.047 392.047 c 0
 130.531 392.047 156 367.703 156 336 c 2
 156 236 l 2
 156 205.328 131.828 180.984 102.047 180.984 c 2
 100.922 180.984 l 2
100.922 180.984 m 1
 100.918 180.984 100.922 180.984 100.922 180.984 c 1
107 191.272 m 1
 128.867 193.786 146 212.456 146 236 c 2
 146 303.968 l 1
 137.116 291.285 123.073 282.687 107 281.21 c 1
 107 191.272 l 1
97 191.122 m 1
 97 281.105 l 1
 78.7609 282.235 64.1579 291.223 55.1562 304.261 c 1
 55.1562 237 l 2
 55.1562 214.817 69.9835 193.046 97 191.122 c 1
78 -182.786 m 1
 128.551 -154.959 139.549 -112.27 143 -93.5469 c 1
 143 -27.3621 l 1
 130.493 -55.6148 108.797 -78.4081 78 -94.0922 c 1
 78 -182.786 l 1
46.9375 19.898 m 1xdc
 46.9375 -45.8438 l 2
 46.9375 -54.5818 48.9767 -63.3003 53.0164 -70.9508 c 1
 60.7096 -63.7575 67.4134 -52.6132 72 -41.1326 c 1
 72 -1.35316 l 1
 61.1004 3.47485 52.7499 10.988 46.9375 19.898 c 1xdc
46.7625 -80.035 m 1
 40.1513 -69.8091 36.9375 -57.7999 36.9375 -45.8438 c 2
 36.9375 54.1562 l 2
 36.9375 79.5312 51.7389 105.327 80.7188 112.828 c 0
 85.2976 114.013 89.75 114.703 94.1719 114.703 c 0
 129.875 114.703 155.391 76.125 155.391 30.1719 c 0
 155.391 22.1945 154.53 13.993 153 5.57928 c 1
 153 -94 l 1
 153 -94.4531 l 1
 152.906 -94.8906 l 1
 144.828 -139.312 118.693 -174.292 75.1719 -195.5 c 0
 67.4202 -199.277 59.625 -203.203 55.5312 -204.438 c 0
 53.5625 -205.016 52.8125 -204.984 52.125 -205 c 0
 49.9531 -205.047 45.813 -204.201 45.0938 -198.172 c 0
 45.0173 -197.531 44.9701 -196.234 44.9688 -195.281 c 0
 44.9219 -161.953 44.9688 -128.609 44.9688 -95.2812 c 0
 44.9688 -94 45 -92.7188 45 -91 c 0
 45 -86.6705 45.2606 -83.4892 46.7625 -80.035 c 1
EndSplineSet
Validated: 37
EndChar

StartChar: uni003C
Encoding: 60 60 29
Width: 496
Flags: W
VStem: 41 10<166.312 255.452> 239 10<86.5505 171.402> 287 10<270.484 355.516> 444 10<331.344 420.516>
LayerCount: 2
Fore
SplineSet
245.047 424.609 m 2
 245.266 424.703 435.875 505.094 446.094 508.641 c 0
 446.641 508.828 447.234 509 448 509 c 2
 455.5 506.641 l 1
 452.984 504.297 l 2
 453 504.234 454 487.156 454 466 c 2
 454 428 l 1
 454 424.656 l 1
 454 328 l 1
 454 324.656 l 1
 450.906 323.375 l 2
 398.578 301.719 346.234 280.047 293.906 258.375 c 2
 269.032 248.151 l 1
 296.922 236.609 l 1
 452.906 171.359 l 1
 454 130.062 l 2
 453.953 116.469 453.859 102.734 452.203 96.3438 c 0
 451.438 93.4062 449.219 91.9688 449.828 91.3594 c 1
 449.797 91.375 449.75 91.25 449.719 91.2031 c 0
 449.609 91.0469 449.578 91 449.547 90.9219 c 2
 447.391 86.2188 l 1
 442.812 88.5 l 2
 439.8 89.9065 353.835 126.224 249 171.402 c 1
 249 82.2874 l 1
 378.748 26.3706 441.837 -0.00326029 447.031 -2.4375 c 0
 447.203 -2.5 447.234 -2.53125 447.234 -2.53125 c 1
 442.766 -11.4688 l 1
 437.817 -9.17498 353.305 26.7235 242.031 74.4062 c 0
 176.141 102.641 110.047 130.391 44.0469 158.391 c 2
 41 159.688 l 1
 41 163 l 1
 41 259.694 l 1
 40.9062 259.734 l 2
 40.9174 260.136 40.9286 260.538 40.9699 260.94 c 2
 43.0938 338.344 l 1
 245.047 424.609 l 2
239 86.5505 m 1
 239 175.692 l 1
 51 255.452 l 1
 51 166.312 l 1
 239 86.5505 l 1
297 270.484 m 1
 444 331.344 l 1
 444 420.516 l 1
 297 359.656 l 1
 297 270.484 l 1
287 266.353 m 1
 287 355.516 l 1
 214.841 325.65 167.486 306.172 149.219 297.734 c 1
 255.918 253.578 l 1
 287 266.353 l 1
EndSplineSet
Validated: 1
Substitution2: "'rtla' Right to Left Alternates lookup 0 subtable" uni003E
EndChar

StartChar: uni003D
Encoding: 61 61 30
Width: 494
Flags: W
HStem: 67 10<52 242 252 443> 167 80<52 242 252 443> 250 10<52 242 252 443> 350 80<52 242 252 443>
VStem: 42 10<77 167 260 350> 242 10<77 167 260 350> 443 10<77 167 260 350>
LayerCount: 2
Fore
SplineSet
52 177 m 1
 443 177 l 1
252 260 m 1
 443 260 l 1
 443 350 l 1
 252 350 l 1
 252 260 l 1
242 260 m 1
 242 350 l 1
 52 350 l 1
 52 260 l 1
 242 260 l 1
252 77 m 1
 443 77 l 1
 443 167 l 1
 252 167 l 1
 252 77 l 1
242 77 m 1
 242 167 l 1
 52 167 l 1
 52 77 l 1
 242 77 l 1
453 167 m 1
 453 72 l 1
 453 67 l 1
 247 67 l 1
 47 67 l 1
 42 67 l 1
 42 72 l 1
 42 167 l 1
 42 172 l 1
 42 247 l 1
 453 247 l 1
 453 172 l 1
 453 167 l 1
453 350 m 1
 453 255 l 1
 453 250 l 1
 247 250 l 1
 47 250 l 1
 42 250 l 1
 42 255 l 1
 42 350 l 1
 42 355 l 1
 42 430 l 1
 453 430 l 1
 453 355 l 1
 453 350 l 1
EndSplineSet
Validated: 3
EndChar

StartChar: uni003E
Encoding: 62 62 31
Width: 496
Flags: W
VStem: 43.0313 9.96873<330.344 419.508> 197 10<270.489 355.572> 247 10<86.5625 171.459> 444 10<166.297 255.438>
LayerCount: 2
Fore
SplineSet
257 86.5625 m 1
 444 166.297 l 1
 444 255.438 l 1
 257 175.69 l 1
 257 86.5625 l 1
207 266.377 m 1
 238.407 253.766 l 1
 346.484 298.828 l 1
 207 355.572 l 1
 207 266.377 l 1
197 270.489 m 1
 197 359.667 l 1
 53 419.508 l 1
 53 330.344 l 1
 197 270.489 l 1
225.245 248.278 m 1
 200.109 258.375 l 2
 148.781 279.703 97.4062 301.047 46.0781 322.375 c 2
 43 323.656 l 1
 43 327 l 2
 43 359.607 43.0313 392.215 43.0313 424.822 c 0
 43.0313 425.548 43 426.274 43 427 c 2
 43.0057 427 l 1
 40.8125 511 l 1
 56.9219 505.625 l 1
 57.2344 505.469 l 2
 66.4375 500.875 426.469 349.391 441.047 343.562 c 1
 454 337.094 l 1
 454 263 l 1
 454 259.703 l 1
 454 163 l 1
 454 159.703 l 1
 450.969 158.406 l 2
 385.297 130.406 319.609 102.406 253.953 74.4062 c 2
 247 71.4375 l 1
 247 79 l 1
 247 171.459 l 1
 212.688 156.983 62.6499 93.6716 52.1719 89.5469 c 0
 51.75 89.2656 49.2031 88.4691 48.8906 88.5312 c 0
 47.3908 88.8293 43.7043 88.5002 42.6719 95.25 c 0
 41.9071 100.25 42 113.234 42 131 c 2
 42 172.344 l 1
 202.094 238.625 l 1
 225.245 248.278 l 1
EndSplineSet
Validated: 33
Substitution2: "'rtla' Right to Left Alternates lookup 0 subtable" uni003C
EndChar

StartChar: uni003F
Encoding: 63 63 32
Width: 281
Flags: W
HStem: -111.359 10<106.526 150.82> -11.3594 10<106.345 150.975> 400.188 10<77.2203 125.436>
VStem: 50 10<400.031 489.302> 63.005 9.99502<112.297 178.963 406.026 491.839> 74.9844 10<-79.349 9.63276 20.6938 63.5896> 96 10<-88.1875 -7.25517 94.4909 147.544> 115 10<103.781 143.734> 150 100.188<399.905 493.794> 163 10<-71.7334 -1.18222 187.697 251.916> 175.672 10<-71.2634 11.8737 23.3415 63.942> 187 10<232.219 296.295> 240.188 10<321.919 401.392>
LayerCount: 2
Fore
SplineSet
103.75 5.17188 m 0xff20
 110.422 0.765625 119.156 -1.35938 128.125 -1.35938 c 0
 142.406 -1.35938 156.828 4.4375 164.172 13.2031 c 0
 172.188 22.7969 175.672 33.2031 175.672 43.3594 c 0
 175.672 67.6406 155.797 90 130.953 90 c 0
 126.078 90 120.969 89.1875 115.688 87.2969 c 0
 95.7188 80.1406 84.9844 61 84.9844 41.9219 c 0
 84.9844 27.4844 91.0312 13.5781 103.75 5.17188 c 0xff20
49.5469 493.5 m 0
 49.5469 493.75 49.552 494.592 49.9531 495.859 c 0
 51.5988 501.055 66.2656 525.891 77.7031 545.547 c 2
 105.469 591.484 l 1
 120.688 588.953 l 1
 193.938 580.953 223.75 545.219 236.5 519.188 c 0
 244.469 502.906 250.188 482.906 250.188 458.734 c 2xff80
 250.188 358.734 l 2xff08
 250.188 316.578 231.961 269.833 196.297 211.438 c 0
 187.795 197.517 176.111 178.478 169.234 167.359 c 0
 153.057 141.203 141.491 118.47 134.216 99.8993 c 1
 163.602 98.0793 185.672 71.8605 185.672 43.3594 c 2
 185.672 -56.6406 l 2
 185.672 -69.0625 181.307 -81.8708 171.828 -93.2031 c 0
 161.807 -105.184 144.875 -111.359 128.125 -111.359 c 0
 117.594 -111.359 106.94 -108.92 98.25 -103.172 c 0
 82.4403 -92.7146 74.9844 -75.2812 74.9844 -58.0781 c 2
 74.9844 41.9219 l 2
 74.9844 50.8804 76.9969 59.9431 80.9361 68.1689 c 1
 69.4502 80.6889 65.6428 94.1107 63.0469 112.297 c 2
 63 112.641 l 1
 63 113 l 2
 63 146.192 63.005 179.384 63.005 212.576 c 0
 62.1546 218.703 61.7294 224.679 61.7344 230.594 c 0
 61.7344 261.562 74.1406 290.609 106.766 342.656 c 0
 118.159 360.831 127.066 376.516 133.878 390.155 c 1
 125.446 396.674 114.746 400.188 102.453 400.188 c 0
 93.5938 400.188 83.8965 398 73.7031 394.297 c 0
 64.1094 390.812 59.6875 389.047 56.8125 388.266 c 1
 57.0156 388.328 55.5312 388.094 55 388 c 2
 50 388 l 1
 50 393 l 1
 50 492.889 l 2
 49.7181 493.211 49.5469 493.435 49.5469 493.5 c 0
77 406.026 m 1
 85.7732 408.763 94.2575 410.188 102.453 410.188 c 0
 115.894 410.188 128.259 406.461 138.29 399.331 c 1
 143.943 411.594 147.73 422.046 150 431.085 c 1
 150 467.163 l 1
 144.554 482.593 130.669 500.188 102.453 500.188 c 0
 94.5545 500.188 85.9859 498.471 77 495.455 c 1
 77 406.026 l 1
67 402.499 m 1
 67 491.839 l 1
 60 489.302 l 1
 60 400.031 l 1
 67 402.499 l 1
125 103.781 m 1
 132.476 122.809 144.067 145.52 160 171.4 c 1
 160 251.916 l 1
 136.844 211.903 125.045 180.732 125 162 c 2
 125 103.781 l 1
170 187.697 m 1
 187 215.416 l 1
 187 296.295 l 1xff10
 170 268.607 l 1
 170 187.697 l 1
197 232.219 m 1
 225.957 282.512 240.188 323.138 240.188 358.734 c 2
 240.188 401.392 l 1xff18
 231.444 374.642 217 345.465 197 312.591 c 1
 197 232.219 l 1
106 -96.1863 m 1
 112.326 -99.6718 120.132 -101.359 128.125 -101.359 c 0
 141.681 -101.359 155.364 -96.136 163 -88.1083 c 1
 163 -1.18222 l 1xff40
 153.243 -7.91534 140.633 -11.3594 128.125 -11.3594 c 0
 120.555 -11.3594 112.922 -10.0988 106 -7.25517 c 1
 106 -96.1863 l 1
96 -88.1875 m 1
 96 -1.59561 l 1
 91.6301 1.64418 87.9656 5.44638 84.9844 9.63276 c 1
 84.9844 -58.0781 l 2
 84.9844 -69.1824 88.5614 -79.9725 96 -88.1875 c 1
173 -71.7334 m 1
 174.823 -66.7267 175.672 -61.6532 175.672 -56.6406 c 2
 175.672 11.8737 l 2xff60
 174.836 10.648 173.946 9.43551 173 8.23827 c 2
 173 -71.7334 l 1
115 97.5924 m 2
 115 143.719 l 2
 114.958 143.725 114.926 143.73 114.906 143.734 c 0
 112.757 144.178 110.586 145.235 107 147.544 c 1
 107 94.4909 l 1
 108.705 95.3066 110.476 96.0462 112.312 96.7031 c 0
 113.209 97.0241 114.105 97.3204 115 97.5924 c 2
86.3235 77.2244 m 1
 89.3096 81.3356 92.8732 85.0812 97 88.3028 c 1
 97 154.411 l 1
 85.8036 162.456 78.2555 169.799 73 178.963 c 1
 73 113.359 l 1
 75.1165 98.6793 77.9517 87.463 86.3235 77.2244 c 1
EndSplineSet
Validated: 1
EndChar

StartChar: uni0040
Encoding: 64 64 33
Width: 848
Flags: W
HStem: -280.016 10<394.029 537.362> -180.016 70.282<351.919 568.034> -5.10938 77.9219<577.674 632.843> -4.0625 70.3437<315.409 424.233> 280.875 10<394.817 438 448 449.272> 449.188 10<436.098 507.599> 549.188 70.765<331.535 566.253>
VStem: 40.0312 72.0628<189.484 325.638> 40.0312 10<32.9958 103.985> 79 10<-54.144 2.82233> 197.734 10<40.8835 117.108> 271 10<-65.11 15.9292> 279 10<421.002 504.777> 315 10<-249.537 -162.399> 377 10<283.633 367.86> 438 10<289.129 376.478> 459 10<-33.926 42.5614> 474 10<-44.625 -43.0624 -30.9219 25.7352> 508 10<-84.9217 -0.041033> 622 10<327.828 384.457> 630 10<435.95 488.398> 703 10<-19.7051 56.4398> 736.672 72.875<268.066 391.998> 767 10<-147.68 -71.7832> 799.547 10<140.581 215.52> 817 10<-97.875 -15.2643>
LayerCount: 2
Fore
SplineSet
390.234 615.938 m 0xcf27e440
 408.281 618.75 426.906 619.953 445.688 619.953 c 0
 552.75 619.953 668.406 577.609 726.781 510.281 c 0
 782.125 446.438 809.547 369.953 809.547 294.125 c 2xcf27e640
 809.547 194.125 l 2
 809.547 129.425 789.539 65.087 749.738 9.2741 c 1
 759.998 11.9933 778.884 12.8202 790.625 12.7812 c 0
 808.312 12.7188 818.031 11.4844 822.406 9.59375 c 0
 825.562 8.21875 827.094 5.875 827.094 3.40625 c 0
 827.094 3.22903 827.056 2.94097 827 2.62469 c 2
 827 -97 l 1
 827 -97.875 l 1
 826.703 -98.7031 l 2
 821.922 -111.859 796.249 -142.811 775.531 -163.531 c 0
 699.246 -239.824 590.344 -280.016 468.531 -280.016 c 0
 420.266 -280.016 369.892 -273.872 318.766 -260.844 c 0
 196.158 -229.601 129.141 -178.25 79.5312 -79.25 c 0
 52.8125 -25.9219 40.0312 34.3281 40.0312 95.5312 c 2xcea7e4c0
 40.0312 195.531 l 2
 40.0312 317.391 90.2969 442.969 180.641 524.703 c 0
 235.531 574.359 300.656 601.953 390.234 615.938 c 0xcf27e440
474 -43.0624 m 1
 467.5 -49.5625 l 2
 438.006 -78.1577 406.696 -95.7388 375.183 -101.74 c 1
 404.154 -106.999 434.194 -109.734 464.297 -109.734 c 0
 489.007 -109.734 513.677 -107.914 537.691 -104.161 c 1
 528.32 -103.034 519.421 -100.89 511.172 -97.6562 c 0
 491.19 -89.8232 477.219 -70.0312 474.031 -44.625 c 2
 474 -44.3125 l 1
 474 -44 l 1
 474 -43.0624 l 1
632 393.991 m 1xce27f440
 632 329 l 1
 632 328.406 l 1
 631.859 327.828 l 2
 621.419 284.764 594.613 158.177 577.674 73.3227 c 1
 579.324 72.983 581.11 72.8125 583.031 72.8125 c 0
 613.938 72.8125 674.874 115.328 708.594 178.359 c 0
 719.461 198.672 727.088 220.168 731.622 242.134 c 1
 719.301 302.956 684.83 358.775 632.25 393.828 c 2
 632 393.991 l 1xce27f440
89 -75.807 m 1xce67e440
 136.65 -170.336 199.899 -219.083 315 -249.537 c 1
 315 -159.873 l 1
 202.337 -130.509 137.159 -83.6021 89 2.82233 c 1
 89 -75.807 l 1xce67e440
79 -54.144 m 1
 79 21.8148 l 1
 66.0909 47.8049 56.479 75.424 50.0312 103.985 c 1
 50.0312 95.5312 l 2xcee7e440
 50.0312 43.5137 59.4925 -7.66505 79 -54.144 c 1
325 -252.103 m 1
 374.077 -264.281 422.307 -270.016 468.531 -270.016 c 0
 587.4 -270.016 692.945 -231.112 767 -157.929 c 1
 767 -71.7832 l 1xce27e540
 691.222 -142.706 585.874 -180.016 468.531 -180.016 c 0
 422.229 -180.016 373.986 -174.361 325 -162.399 c 1
 325 -252.103 l 1
777 -147.68 m 1
 797.471 -125.968 813.449 -104.486 817 -96.0625 c 1
 817 -15.2643 l 1
 806.854 -29.5638 790.973 -47.9208 777 -62.0539 c 1
 777 -147.68 l 1
289 421.002 m 1xce2fec40
 342.488 446.514 397.533 459.188 451.234 459.188 c 0
 490.463 459.188 528.968 452.433 565.606 439 c 1
 591 439 l 2
 617.047 439 621.53 438.872 625.391 438.078 c 0
 627.515 437.641 628.984 436.857 630 435.95 c 1
 630 495.314 l 1
 575.629 531.043 514.482 549.188 451.234 549.188 c 0
 397.672 549.188 342.614 536.216 289 509.901 c 1
 289 421.002 l 1xce2fec40
279 416.067 m 1
 279 504.777 l 1
 173.34 447.906 112.094 324.535 112.094 200.984 c 0
 112.094 197.149 112.153 193.316 112.273 189.484 c 1
 134.585 285.603 192.797 371.771 279 416.067 c 1
640 400.653 m 1
 686.879 368.594 719.544 320.764 735.496 267.689 c 1
 736.282 275.726 736.672 283.789 736.672 291.844 c 0xce27ee40
 736.672 367.948 701.945 443.026 640 488.398 c 1
 640 400.653 l 1
281 -72.3061 m 1xde37e440
 283.868 -74.1565 286.75 -75.8684 289.642 -77.4725 c 0
 304.914 -83.581 320.932 -88.8731 337.485 -93.3047 c 0
 341.924 -93.8053 346.376 -94.0625 350.828 -94.0625 c 0
 386.727 -94.0625 423.584 -77.5936 459 -43.8767 c 1
 459 42.5614 l 1
 424.305 11.8035 387.447 -4.0625 350.828 -4.0625 c 0
 327.032 -4.0625 303.449 2.60888 281 15.9292 c 1
 281 -72.3061 l 1xde37e440
271 -65.11 m 1
 271 22.3678 l 1
 241.633 43.0081 219.63 77.3674 207.734 117.108 c 1
 207.734 85.8906 l 2
 207.734 24.8372 232.539 -34.2216 271 -65.11 c 1
469 -33.926 m 1
 472 -30.9219 l 1
 472 54.9377 l 1
 469 51.9376 l 1
 469 -33.926 l 1
518 -89.5141 m 1
 528.735 -93.2365 540.914 -95.1094 553.984 -95.1094 c 0
 575.469 -95.1094 599.344 -90.1562 622.906 -80.9375 c 1
 622.937 -81.0162 l 1
 630.458 -77.9526 637.805 -74.6336 644.95 -71.0541 c 1
 644.938 -71.0312 l 1
 665.861 -60.3572 685.896 -46.494 703 -29.8921 c 1
 703 56.4398 l 1
 659.785 17.8279 602.357 -5.10938 553.984 -5.10938 c 0xee27e440
 541.239 -5.10938 529.115 -3.4713 518 -0.041033 c 1
 518 -89.5141 l 1
508 -84.9217 m 1
 508 3.70962 l 1
 498.161 8.33714 489.952 15.9452 484 25.7352 c 1
 484 -43.6875 l 1
 486.461 -62.7718 495.543 -77.2038 508 -84.9217 c 1
713 -19.7051 m 1
 770.705 41.6033 799.547 117.583 799.547 194.125 c 2
 799.547 215.52 l 1xce27e4c0
 785.486 161.141 756.61 109.512 713 65.9124 c 1
 713 -19.7051 l 1
387 283.633 m 1
 399.396 288.697 409.348 290.875 419.969 290.875 c 0
 425.646 290.875 431.498 290.32 438 289.129 c 1
 438 378.962 l 1
 431.099 380.328 425.355 380.875 419.969 380.875 c 0
 409.919 380.875 400.732 378.82 387 372.763 c 1
 387 283.633 l 1
377 279.162 m 1
 377 367.86 l 1
 324.84 338.996 284 261.777 284 182 c 2
 284 180.453 l 2
 284 172.145 284.465 164.286 285.351 156.877 c 1
 302.062 211.812 335.663 258.745 377 279.162 c 1
448 286.886 m 1
 475.247 279.346 495.238 259.59 507.055 233.122 c 1
 508.907 244.846 509.812 256.274 509.812 267.234 c 0
 509.812 321.831 487.633 364 448 376.478 c 1
 448 286.886 l 1
289.735 134.117 m 1
 302.084 89.0735 332.877 66.2812 367.281 66.2812 c 0xde27e440
 406.969 66.2812 453.812 96.375 484.484 161.141 c 0
 492.924 178.975 499.165 196.906 503.339 214.399 c 1
 498.969 228.966 484.539 268.371 441.922 278.125 c 0
 433.219 280.109 426.344 280.875 419.969 280.875 c 0
 409.219 280.875 399.471 278.512 384.062 271.438 c 0
 340.446 251.415 303.452 196.654 289.735 134.117 c 1
249.173 -58.363 m 1
 216.821 -23.2888 197.734 30.6111 197.734 85.8906 c 2
 197.734 185.891 l 2
 197.734 196.812 198.453 207.812 200.047 218.719 c 0
 214.884 320.161 273.954 397.781 342.315 431.565 c 1
 323.523 425.479 304.789 417.806 286.234 408.531 c 0
 190.822 360.833 129.978 259.795 115.462 151.385 c 1
 122.049 103.437 138.381 56.9279 165.188 15.7344 c 0
 184.334 -13.6858 213.567 -38.6431 249.173 -58.363 c 1
568.469 78.3173 m 1
 585.382 162.877 611.504 286.15 622 329.594 c 1
 622 384.457 l 1xce27f440
 600.656 287.492 563.235 105.414 562.984 93.375 c 2
 562.984 93.3438 l 2
 563.468 86.7694 565.308 81.7481 568.469 78.3173 c 1
547.976 434.439 m 1
 516.747 444.251 484.28 449.188 451.234 449.188 c 0
 446.179 449.188 441.111 449.072 436.032 448.841 c 1
 472.58 443.941 507.118 424.364 534.016 387.984 c 0
 535.125 386.484 536.25 385 537.344 383.656 c 1
 538.734 389.766 540.609 399.062 542.094 406.984 c 2
 547.976 434.439 l 1
EndSplineSet
Validated: 33
EndChar

StartChar: uni0041
Encoding: 65 65 34
Width: 565
Flags: W
HStem: -24.109 19.109G<5 8.3348 48 82 482 516 526 560 570 572.797>
LayerCount: 2
Fore
SplineSet
526 -94.1177 m 1
 526 -4.10899 l 1
 560 -4.88122 l 1
 560 -94.8906 l 1
 526 -94.1177 l 1
482 -93.1175 m 1
 482 -3.10962 l 1
 516 -3.88186 l 1
 516 -93.8904 l 1
 482 -93.1175 l 1
444 -12.9367 m 1
 444 62.8254 l 1
 472 0.912328 l 1
 472 -74.8117 l 1
 444 -12.9367 l 1
407 71.0299 m 1
 407 146.24 l 1
 434 84.9628 l 1
 434 9.74491 l 1
 407 71.0299 l 1
285 75 m 1
 285 165 l 1
 397 165 l 1
 397 75 l 1
 285 75 l 1
164 75 m 1
 164 165 l 1
 275 165 l 1
 275 75 l 1
 164 75 l 1
128 9.64102 m 1
 128 83.985 l 1
 154 145.374 l 1
 154 71.0299 l 1
 128 9.64102 l 1
92 -75.3698 m 1
 92 -1.0156 l 1
 118 60.3737 l 1
 118 -13.9703 l 1
 92 -75.3698 l 1
48 -95 m 1
 48 -5 l 1
 82 -5 l 1
 82 -95 l 1
 48 -95 l 1
38 -95 m 1
 25.3829 -94.9244 13.2151 -94.5639 5 -94.2188 c 1
 5 -4.22636 l 1
 11.6696 -4.49031 24.0088 -4.91641 38 -5 c 1
 38 -95 l 1
238.188 573.375 m 2
 235.75 566 182.203 441.344 115.406 284.969 c 0
 51.158 134.561 -1.8125 10.5781 -4.59375 3.03125 c 0
 -5.01562 1.875 -4.76562 2.21875 -5 1 c 2
 -5 -99 l 1
 -2.625 -106.5 l 1
 -0.25 -104 l 2
 -0.203125 -104 19.8594 -105 43 -105 c 2
 87 -105 l 1
 90.3125 -105 l 1
 91.6094 -101.953 l 2
 103.609 -73.625 115.609 -45.2812 127.609 -16.9531 c 2
 162.312 65 l 1
 398.734 65 l 1
 434.438 -16.0312 l 2
 447.094 -44.0312 459.781 -72.0625 472.438 -100.062 c 2
 473.734 -102.922 l 1
 476.891 -103 l 2
 491.547 -103.328 506.219 -103.672 520.891 -104 c 0
 535.547 -104.328 550.219 -104.672 564.891 -105 c 2
 570 -105.109 l 1
 570 -100 l 1
 570 -5.10835 l 1
 572.797 -5.17188 l 1
 543.562 60.0469 l 1
 414.578 349.031 l 1
 311.266 584 l 1
 277 584 l 2
 265.094 584 254.734 584.077 249.469 583.203 c 0
 242.109 581.982 240.453 578.688 238.406 573.969 c 2
 238.25 573.594 l 1
 238.188 573.375 l 2
316 346.947 m 1
 316 271.496 l 1
 281 350.048 l 1
 281 425.511 l 1
 316 346.947 l 1
326 323.791 m 1
 357.641 250.422 l 1
 351.44 250.238 340.848 250.13 326 250.069 c 1
 326 323.791 l 1
271 423.714 m 1
 271 349.995 l 1
 239 272.281 l 1
 239 346.005 l 1
 271 423.714 l 1
229 321.951 m 1
 229 250.565 l 1
 199.453 250.906 l 1
 229 321.951 l 1
314.625 250.033 m 1
 304.069 250.009 291.86 250 278.031 250 c 2
 240.822 250.429 l 1
 276.188 336.312 l 1
 314.625 250.033 l 1
EndSplineSet
Validated: 9
EndChar

StartChar: uni0042
Encoding: 66 66 35
Width: 477
Flags: W
HStem: -105 10.0469<69 181 191 321.351> -4.04159 84.1197<155 181 191 321.578> 151 10<155 181 191 249 259 273.818> 251 84.125<155 181 191 248.258 259 287.706> 397.774 10.018<155 191 201 251> 496.213 84.787<155 191 201 250.579>
VStem: 59 96<80.0781 151 161 251 335.125 397.774 407.792 497.781> 59 10<-94.9531 -4.96448> 181 10<-93.9573 -4.04159 161 250.969> 191 10<406.223 495.986> 249 10<158.553 247.591 403.128 490.299> 322 10<-87.379 -0.377125> 342 10<133.075 208.881> 366.391 97.875<122.9 206.986> 404.266 10<294.482 377.682> 454 10<18.9653 100.379>
LayerCount: 2
Fore
SplineSet
308.469 384.109 m 0xfcf8
 313.891 395.844 316.531 407.531 316.531 418.734 c 0
 316.531 450.215 296.587 478.518 261 490.299 c 1
 261 400.806 l 1
 278.378 395.642 292.854 386.521 303.734 375.1 c 1
 305.428 377.919 306.995 380.919 308.469 384.109 c 0xfcf8
191 -93.9573 m 1
 294.145 -93.0914 308.164 -93.4022 322 -90.1204 c 1
 322 -0.377125 l 1
 307.317 -3.46921 289.189 -3.13436 191 -3.95803 c 1
 191 -93.9573 l 1
181 -94.0404 m 1
 181 -4.04159 l 1
 69 -4.96448 l 1
 69 -94.9531 l 1xfdf8
 181 -94.0404 l 1
332 -87.379 m 1
 408.175 -64.8224 450.227 -18.8045 454 49.1406 c 1
 454 100.379 l 1xfcf9
 435.922 53.2696 394.372 20.0434 332 2.20346 c 1
 332 -87.379 l 1
201 405.987 m 1
 225.31 405.859 241.048 404.768 251 403.128 c 1
 251 492.978 l 1
 242.124 494.63 226.417 495.843 201 495.986 c 1
 201 405.987 l 1
191 406.223 m 1
 191 496.213 l 1
 155 497.781 l 1
 155 407.792 l 1xfef8
 191 406.223 l 1
191 160.983 m 1
 209.48 160.86 232.774 160.07 249 158.553 c 1
 249 248.342 l 1
 233.286 249.433 209.516 250.753 191 250.969 c 1
 191 160.983 l 1
181 161 m 1
 181 251 l 1
 155 251 l 1
 155 161 l 1
 181 161 l 1
259 157.691 m 1
 304.382 154.575 324.621 147.092 342 133.075 c 1
 342 219.848 l 1
 324.22 236.322 306.089 243.693 259 247.591 c 1
 259 157.691 l 1
352 124.097 m 1
 353.755 122.284 l 1
 361.972 135.389 366.391 150.453 366.391 165.422 c 0xfcfc
 366.391 180.613 361.876 195.714 352 208.881 c 1
 352 124.097 l 1
347.811 113.971 m 1
 346.471 115.477 345.053 116.952 343.547 118.391 c 0
 324.562 136.5 306.155 144.128 253.562 148.016 c 0
 236.922 149.246 206.828 151 186 151 c 2
 155 151 l 1
 155 80.0781 l 1xfef8
 215.969 81 l 2
 252.703 81 288.875 82.6406 296.234 83.9375 c 0
 318.165 87.8146 335.738 99.0848 347.811 113.971 c 1
297.873 366.725 m 1
 287.483 378.228 273.065 387.428 254.797 392.141 c 0
 246.515 394.277 228.672 396 195.891 396 c 1
 155 397.774 l 1
 155 335.125 l 1
 191.875 336 l 2
 252.403 337.608 280.952 346.044 297.873 366.725 c 1
59 -5.04688 m 1xfdf9
 59 0 l 1
 59 582.047 l 1
 162.047 581 l 2
 285.732 579.743 310.7 575.902 346.75 552.172 c 0
 391.669 522.604 414.266 475.641 414.266 429.516 c 2
 414.266 329.516 l 2xfdfb
 414.266 311.065 410.651 292.71 403.423 275.626 c 1
 442.872 247.311 464.266 206.216 464.266 158.094 c 0xfcfc
 464.266 155.086 464.177 152.05 464.007 148.983 c 0
 464.002 148.895 463.998 148.807 464 148.719 c 2
 464 48.8594 l 1
 459.875 -25.3594 412.516 -75.875 328.25 -98.8438 c 0
 310.594 -103.656 302.875 -103.014 186.047 -104 c 0
 145.375 -104.343 104.703 -104.672 64.0469 -105 c 2
 59 -105.047 l 1
 59 -100 l 1
 59 -5.04688 l 1xfdf9
394.963 281.326 m 1
 401.157 296.624 404.266 313.008 404.266 329.516 c 2
 404.266 377.682 l 1
 393.507 351.06 374.073 327.402 346 311.092 c 1
 346 303.619 l 1
 364.304 297.871 380.669 290.364 394.963 281.326 c 1
EndSplineSet
Validated: 1
EndChar

StartChar: uni0043
Encoding: 67 67 36
Width: 597
Flags: W
HStem: -111.219 10<288.626 416.44> -11.2188 88.8126<250.779 472.771> 396.812 10<308.258 410.122> 496.812 91.219<255.597 472.746>
VStem: 35.9219 98.4371<259.908 381.899> 35.9219 10<131.82 207.351> 158 10<-42.9158 37.3797> 236 10<381.958 465.722> 533 10<-60.4187 24.5142 362.031 446.215> 548 10<353.844 444.955> 554 10<-55.7031 33.4183>
LayerCount: 2
Fore
SplineSet
311.453 585.969 m 0xfb80
 323.828 587.328 336.453 588.031 349.375 588.031 c 0
 403.312 588.031 462.391 576.031 529.719 551.688 c 2
 560 540.484 l 1
 560 492 l 2
 560 487.453 560.109 455.828 558.359 447.141 c 0
 558.262 446.66 558.14 446.223 558 445.827 c 2
 558 347 l 1
 558 342 l 1
 553 342 l 2
 553.297 342 552.188 342.047 552.109 342.047 c 0
 548.172 342.5 536.52 347.65 532.859 349.484 c 0
 470.203 380.875 412.406 396.812 358.812 396.812 c 0
 318.078 396.812 279.719 387.766 243.234 369.531 c 0
 189.254 342.541 153.368 293.453 140.079 237.037 c 1
 143.877 220.54 149.623 204.149 157.484 188.203 c 0
 193.125 115.922 267.547 77.5938 355.406 77.5938 c 0
 413.25 77.5938 476.83 94.4775 538.547 129.359 c 0
 545.326 133.191 552.047 137.172 555.344 139.234 c 1
 558 140 l 1xfbc0
 560.969 136.656 562.574 139.468 563.281 134.734 c 0
 564.121 129.108 564 106.219 564 88 c 2
 564 41 l 1
 564 37.7031 l 1
 564 -59 l 1
 564 -62.2969 l 1
 560.969 -63.5938 l 2
 553.969 -66.5938 546.968 -69.6232 539.969 -72.5938 c 0
 479.04 -98.4531 413.328 -111.219 351.344 -111.219 c 0
 277.609 -111.219 209.094 -93.1094 160.031 -57.0312 c 0
 79.4375 2.25 35.9219 90.4688 35.9219 183.469 c 2xf7a0
 35.9219 283.469 l 2
 35.9219 330.938 47.0781 379.703 70.5312 426.25 c 0
 113.297 511.109 209.75 574.766 311.453 585.969 c 0xfb80
168 -50.4429 m 1
 214.609 -83.8347 280.258 -101.219 351.344 -101.219 c 0
 410.927 -101.219 474.226 -89.1231 533 -64.6794 c 1
 533 24.5142 l 1
 474.042 0.594869 410.972 -11.2188 351.344 -11.2188 c 0
 281.52 -11.2188 216.377 5.02051 168 37.3797 c 1
 168 -50.4429 l 1
158 -42.9158 m 1
 158 44.4747 l 1
 100.993 87.0816 62.8561 144.291 45.9219 207.351 c 1
 45.9219 183.469 l 2xf780
 45.9219 96.6834 84.9742 14.3773 158 -42.9158 c 1
543 -60.4187 m 1
 554 -55.7031 l 1
 554 33.4183 l 1xf3a0
 543 28.7049 l 1
 543 -60.4187 l 1
246 381.958 m 1
 281.662 398.532 319.277 406.812 358.812 406.812 c 0
 412.292 406.812 469.041 391.564 530 362.031 c 1
 530 450.904 l 1
 468.417 481.301 411.59 496.812 358.812 496.812 c 0
 319.106 496.812 281.657 488.217 246 470.894 c 1
 246 381.958 l 1
236 377.06 m 1
 236 465.722 l 1
 171.162 429.825 134.359 360.996 134.359 287.469 c 0
 134.359 278.191 134.93 268.837 136.104 259.469 c 1
 152.9 309.071 187.237 351.749 236 377.06 c 1
540 357.172 m 1
 542.746 355.947 545.615 354.823 548 353.844 c 1
 548 443.126 l 1xf3c0
 545.524 443.937 542.643 445.084 540 446.215 c 1
 540 357.172 l 1
EndSplineSet
Validated: 33
EndChar

StartChar: uni0044
Encoding: 68 68 37
Width: 633
Flags: W
HStem: -112 10<77 187 197 348.938> -12 85.0625<161 187 197 391.302> 390 10<161 204 214 295 305 333.784> 490 84<161 204 214 295 305 392.555>
VStem: 67 94<73.0625 390 400 490> 67 10<-102 -12> 187 10<-101.97 -12> 204 10<400 489.991> 295 10<398.235 487.724> 431 10<357.695 437.774> 451 10<-59.3044 23.5137> 507.953 98.828<258.334 376.958> 596.781 10<131.173 205.717>
LayerCount: 2
Fore
SplineSet
197 -101.97 m 1xf3e0
 369.935 -100.913 393.586 -97.1074 451 -65.0677 c 1
 451 23.5137 l 1
 393.071 -8.00662 361.247 -10.9831 197 -11.9708 c 1
 197 -101.97 l 1xf3e0
187 -102 m 1
 187 -12 l 1
 77 -12 l 1
 77 -102 l 1xf7e0
 187 -102 l 1
461 -59.3044 m 1
 551.283 -4.99466 596.781 88.5607 596.781 182.297 c 2
 596.781 205.717 l 1xf3e8
 577.938 134.919 532.52 70.2206 461 29.0892 c 1
 461 -59.3044 l 1
214 399.991 m 1
 240.999 399.901 274.273 399.108 295 398.235 c 1
 295 488.216 l 1
 274.502 489.093 241.005 489.899 214 489.991 c 1
 214 399.991 l 1
204 400 m 1
 204 490 l 1
 161 490 l 1
 161 400 l 1xfbe0
 204 400 l 1
305 397.75 m 1
 358.301 394.739 391.11 385.259 431 357.695 c 1
 431 445.457 l 1
 391.637 473.897 362.099 484.447 305 487.724 c 1
 305 397.75 l 1
441 350.509 m 1
 472.371 326.837 494.153 294.227 506.325 257.91 c 1
 507.409 266.939 507.953 276.029 507.953 285.109 c 0xf3f0
 507.953 343.683 485.463 400.944 441 437.774 c 1
 441 350.509 l 1
502.381 235 m 1
 492.457 278.343 469.239 317.451 433.047 343.969 c 0
 391.469 374.422 361.416 388 299.766 388 c 0
 272 388 238.891 390 209 390 c 2
 161 390 l 1
 161 73.0625 l 1xfbe0
 234.922 74 l 2
 348.031 76 382.888 83.2855 424.062 113.047 c 0
 465.241 142.812 491.596 187.148 502.381 235 c 1
67 -12 m 1xf7e8
 67 -7 l 1
 67 575.047 l 1
 195.031 574 l 2
 364.935 572.611 418.64 564.123 474.75 527.172 c 0
 563.232 468.903 606.781 375.297 606.781 282.297 c 2xf7f0
 606.781 182.297 l 2
 606.781 82.7344 556.937 -16.967 458.453 -72.3594 c 0
 394.921 -108.093 367.625 -111.181 192.016 -112 c 0
 152.016 -112.186 112 -112 72 -112 c 2
 67 -112 l 1
 67 -107 l 1
 67 -12 l 1xf7e8
EndSplineSet
Validated: 33
EndChar

StartChar: uni0045
Encoding: 69 69 38
Width: 425
Flags: W
HStem: -105 10<69 227 237 396> -5 85<153 227 237 396> 146 10<153 260 270 378> 246 87<153 260 270 378> 397 10<153 265 275 387> 497 85<153 265 275 387>
VStem: 59 94<80 146 156 246 333 397 407 497> 59 10<-95 -5> 227 10<-95 -5> 260 10<156 246> 265 10<407 497> 378 10<156 246> 387 10<407 497> 396 10<-95 -5>
LayerCount: 2
Fore
SplineSet
237 -95 m 1xfc84
 396 -95 l 1
 396 -5 l 1
 237 -5 l 1
 237 -95 l 1xfc84
227 -95 m 1
 227 -5 l 1
 69 -5 l 1
 69 -95 l 1xfd80
 227 -95 l 1
270 156 m 1xfcd0
 378 156 l 1
 378 246 l 1
 270 246 l 1
 270 156 l 1xfcd0
260 156 m 1
 260 246 l 1
 153 246 l 1
 153 156 l 1xfec0
 260 156 l 1
275 407 m 1xfca8
 387 407 l 1
 387 497 l 1
 275 497 l 1
 275 407 l 1xfca8
265 407 m 1
 265 497 l 1
 153 497 l 1
 153 407 l 1xfea0
 265 407 l 1
59 -5 m 1xfd84
 59 0 l 1
 59 582 l 1
 397 582 l 1
 397 502 l 1
 397 497 l 1
 397 402 l 1
 397 397 l 1
 392 397 l 1
 270 397 l 1xfdc8
 153 397 l 1
 153 333 l 1
 388 333 l 1
 388 251 l 1
 388 246 l 1
 388 151 l 1
 388 146 l 1
 383 146 l 1
 265 146 l 1
 153 146 l 1
 153 80 l 1xfeb0
 406 80 l 1
 406 0 l 1
 406 -5 l 1
 406 -100 l 1
 406 -105 l 1
 401 -105 l 1
 232 -105 l 1
 59 -105 l 1
 59 -100 l 1
 59 -5 l 1xfd84
EndSplineSet
Validated: 1
EndChar

StartChar: uni0046
Encoding: 70 70 39
Width: 397
Flags: W
HStem: -105 10<69 101 111 143> 162 10<265 367> 262 87<153 255 265 367> 397 10<153 255 265 367> 497 85<153 255 265 367>
VStem: 59 10<-95 -5> 101 10<-95 -5> 143 10<-95 -5> 255 10<172 262 407 497> 367 10<172 262 407 497>
LayerCount: 2
Fore
SplineSet
265 172 m 1
 367 172 l 1
 367 262 l 1
 265 262 l 1
 265 172 l 1
111 -95 m 1
 143 -95 l 1
 143 -5 l 1
 111 -5 l 1
 111 -95 l 1
101 -95 m 1
 101 -5 l 1
 69 -5 l 1
 69 -95 l 1
 101 -95 l 1
265 407 m 1
 367 407 l 1
 367 497 l 1
 265 497 l 1
 265 407 l 1
255 407 m 1
 255 497 l 1
 153 497 l 1
 153 407 l 1
 255 407 l 1
59 -5 m 1
 59 0 l 1
 59 582 l 1
 377 582 l 1
 377 502 l 1
 377 497 l 1
 377 402 l 1
 377 397 l 1
 372 397 l 1
 260 397 l 1
 153 397 l 1
 153 349 l 1
 377 349 l 1
 377 267 l 1
 377 262 l 1
 377 167 l 1
 377 162 l 1
 372 162 l 1
 260 162 l 1
 255 162 l 1
 255 167 l 1
 255 262 l 1
 153 262 l 1
 153 167 l 1
 153 0 l 1
 153 -5 l 1
 153 -100 l 1
 153 -105 l 1
 106 -105 l 1
 59 -105 l 1
 59 -100 l 1
 59 -5 l 1
EndSplineSet
Validated: 1
EndChar

StartChar: uni0047
Encoding: 71 71 40
Width: 626
Flags: W
HStem: -111.109 10<294.429 422.347> -11.1094 84.0625<256.569 477.406> 104 10<379 424 434 479> 204 85<379 424 434 479> 402.641 10<314.237 318 328 404.066> 502.641 86<328 469.638>
VStem: 37.9844 98.4376<259.567 320.838> 37.9844 10<136.403 210.927> 139 10<285.992 320.838> 156 10<-40.3021 40.7611> 318 10<410.82 499.034> 369 10<114 204> 424 10<114 204> 479 96<94.75 104 114 204> 534 10<366.011 449.911> 540 10<-63.8809 21.974> 552 10<357.094 445.908> 565 10<-58.4844 30.8826>
LayerCount: 2
Fore
SplineSet
314.422 585.969 m 0xfef8
 329.125 587.609 343.578 588.641 358.125 588.641 c 0
 409.844 588.641 462 577.219 524.766 553.672 c 2
 561.922 539.469 l 1
 563 492.062 l 2
 563 475.016 562.905 453.562 562.312 449.406 c 0
 562.235 448.865 562.129 448.377 562 447.937 c 2
 562 349 l 1
 562 340.906 l 1xfef880
 562 340.906 542.766 350.531 536.766 353.531 c 0
 474.906 384.453 406.141 402.641 354.609 402.641 c 0
 343.469 402.641 333.125 401.64 323.859 400.078 c 0
 235.86 385.242 177.116 337.82 148.703 259.312 c 0
 145.957 251.725 143.807 243.983 142.013 236.191 c 1
 152.94 187.699 179.468 144.157 217.875 117.094 c 0
 260.534 87.035 305.203 72.9531 356.438 72.9531 c 0
 387.703 72.9531 421.438 78.2969 458.625 88.8125 c 2
 479 94.75 l 1
 479 104 l 1xfcfc
 429 104 l 1
 374 104 l 1
 369 104 l 1
 369 109 l 1
 369 204 l 1
 369 209 l 1
 369 289 l 1
 575 289 l 1
 575 38 l 1
 575 34.4844 l 1
 575 -62 l 1
 575 -65.5156 l 1
 571.688 -66.7031 l 2
 563.359 -69.7031 555.031 -72.7656 546.672 -75.7188 c 0
 479.562 -99.3281 415.797 -111.109 356.75 -111.109 c 0
 294.547 -111.109 223.469 -98.0625 158.203 -54.1562 c 0
 87.9375 -6.85938 37.9844 94.3125 37.9844 182.828 c 2xfdf840
 37.9844 282.828 l 2
 37.9844 290.125 38.2881 297.374 39.0312 304.5 c 0
 47.1694 382.539 79.3906 455.531 127.547 500.609 c 1
 172.625 544.672 249.156 578.688 314.422 585.969 c 0xfef8
166 -47.3125 m 1
 228.804 -88.7991 296.981 -101.109 356.75 -101.109 c 0
 413.486 -101.109 474.98 -89.9312 540 -67.4411 c 1
 540 21.974 l 1xfcf9
 475.321 -0.0533231 413.837 -11.1094 356.75 -11.1094 c 0
 297.016 -11.1094 229.097 0.92249 166 40.7611 c 1
 166 -47.3125 l 1
156 -40.3021 m 1
 156 47.3489 l 1
 105.429 82.411 65.6718 145.358 47.9844 210.927 c 1
 47.9844 182.828 l 2xfdf8
 47.9844 100.607 92.7749 7.06506 156 -40.3021 c 1
550 -63.8809 m 1xfcf940
 565 -58.4844 l 1
 565 30.8826 l 1
 550 25.4799 l 1
 550 -63.8809 l 1xfcf940
434 114 m 1
 479 114 l 1
 479 204 l 1xfcfc
 434 204 l 1
 434 114 l 1
424 114 m 1
 424 204 l 1
 379 204 l 1
 379 114 l 1
 424 114 l 1
149 285.992 m 1
 180.71 352.68 237.337 394.521 318 409.196 c 1
 318 499.034 l 1
 233.545 483.165 176.76 436.453 149 360.133 c 1
 149 285.992 l 1
139 261.86 m 1
 139 320.838 l 1
 137.249 309.404 136.422 297.882 136.422 286.422 c 0
 136.422 277.272 136.975 268.156 138.059 259.144 c 1
 139 261.86 l 1
328 410.82 m 1
 336.328 411.966 345.209 412.641 354.609 412.641 c 0
 406.359 412.641 472.822 395.38 534 366.011 c 1
 534 454.903 l 1xfcfa
 472.863 484.99 405.374 502.641 354.609 502.641 c 0
 345.101 502.641 336.173 501.912 328 500.727 c 1
 328 410.82 l 1
544 361.088 m 1
 552 357.094 l 1
 552 445.908 l 1xfcfa80
 544 449.911 l 1
 544 361.088 l 1
EndSplineSet
Validated: 1
EndChar

StartChar: uni0048
Encoding: 72 72 41
Width: 615
Flags: W
HStem: -105 10<68 100 110 142 473 505 515 547> 144 10<313 463> 244 89<152 303 313 463> 562 20G<58 152 463 557>
VStem: 58 10<-95 -5> 100 10<-95 -5> 142 10<-95 -5> 303 10<154 244> 463 10<-95 -5> 505 10<-95 -5> 547 10<-95 -5>
LayerCount: 2
Fore
SplineSet
110 -95 m 1
 142 -95 l 1
 142 -5 l 1
 110 -5 l 1
 110 -95 l 1
100 -95 m 1
 100 -5 l 1
 68 -5 l 1
 68 -95 l 1
 100 -95 l 1
515 -95 m 1
 547 -95 l 1
 547 -5 l 1
 515 -5 l 1
 515 -95 l 1
505 -95 m 1
 505 -5 l 1
 473 -5 l 1
 473 -95 l 1
 505 -95 l 1
58 -5 m 1
 58 0 l 1
 58 582 l 1
 152 582 l 1
 152 333 l 1
 463 333 l 1
 463 582 l 1
 557 582 l 1
 557 0 l 1
 557 -5 l 1
 557 -100 l 1
 557 -105 l 1
 510 -105 l 1
 463 -105 l 1
 463 -100 l 1
 463 -5 l 1
 463 0 l 1
 463 144 l 1
 303 144 l 1
 303 149 l 1
 303 244 l 1
 152 244 l 1
 152 149 l 1
 152 0 l 1
 152 -5 l 1
 152 -100 l 1
 152 -105 l 1
 105 -105 l 1
 58 -105 l 1
 58 -100 l 1
 58 -5 l 1
313 244 m 1
 313 154 l 1
 463 154 l 1
 463 244 l 1
 313 244 l 1
EndSplineSet
Validated: 1
EndChar

StartChar: uni0049
Encoding: 73 73 42
Width: 214
Flags: W
HStem: -105 10<70 102 112 144> 562 20G<60 154>
VStem: 60 10<-95 -5> 102 10<-95 -5> 144 10<-95 -5>
CounterMasks: 1 38
LayerCount: 2
Fore
SplineSet
112 -95 m 1
 144 -95 l 1
 144 -5 l 1
 112 -5 l 1
 112 -95 l 1
102 -95 m 1
 102 -5 l 1
 70 -5 l 1
 70 -95 l 1
 102 -95 l 1
60 -5 m 1
 60 0 l 1
 60 582 l 1
 154 582 l 1
 154 0 l 1
 154 -5 l 1
 154 -100 l 1
 154 -105 l 1
 107 -105 l 1
 60 -105 l 1
 60 -100 l 1
 60 -5 l 1
EndSplineSet
Validated: 1
EndChar

StartChar: uni004A
Encoding: 74 74 43
Width: 213
Flags: W
HStem: -289.578 90<-8.6875 72.0665>
VStem: -33 5<-288.319 -198.677> 141 0.348267<-96.7059 -95.7549>
LayerCount: 2
Fore
SplineSet
-57 -116 m 0
 -55.5469 -114.047 -56.8881 -111.743 -51.8594 -110.25 c 0
 -49.6083 -109.582 -45.9219 -109 -40 -109 c 0
 7.40625 -109 33.9841 -97.3905 45.5469 -74.7344 c 0
 55.9217 -54.4061 57 268.016 57 268.016 c 1
 58.0156 582 l 1
 153 582 l 1
 153 270 l 2
 153 236.672 153.093 203.328 153 170 c 0
 152.088 -155.734 151.828 -159.375 140.797 -197.406 c 0
 123 -258.766 61.375 -299.578 -8.6875 -299.578 c 0
 -13.5469 -299.578 -18.4217 -299.341 -23.375 -298.984 c 0
 -28.3594 -298.625 -33.3281 -298.328 -38.3281 -297.984 c 2
 -42.2188 -297.734 l 1
 -42.9219 -293.906 l 2
 -45.25 -281.234 -47.5312 -268.578 -49.9062 -255.922 c 0
 -53.2053 -238.341 -57 -218.953 -57 -216 c 0
 -57 -182.844 -56.9844 -149.687 -56.9844 -116.531 c 0
 -56.9955 -116.498 -57.06 -116.319 -57.0445 -116.167 c 0
 -57.0445 -116.102 -57.0327 -116.042 -57 -116 c 2
 -47 -116 l 1
 -47 -155 l 1
-33 -288.319 m 1
 -28 -288.655 l 1
 -28 -198.677 l 1
 -33 -198.346 l 1
 -33 -288.319 l 1
-18 -289.326 m 1
 -14.8764 -289.494 -11.7644 -289.578 -8.6875 -289.578 c 0
 57.3533 -289.578 114.387 -251.221 131 -195.285 c 1
 131 -121.616 l 1
 105.805 -169.267 51.692 -199.578 -8.6875 -199.578 c 0
 -11.78 -199.578 -14.8788 -199.502 -18 -199.342 c 1
 -18 -289.326 l 1
141 -110.678 m 2
 141.125 -105.964 141.241 -100.917 141.348 -95.5013 c 1
 141 -96.7059 l 1
 141 -110.678 l 2
EndSplineSet
Validated: 43
EndChar

StartChar: uni004B
Encoding: 75 75 44
Width: 558
Flags: W
HStem: -105 10<70 103 113 146 446 495 505 554> 562 20G<60 156 370.348 460.523>
VStem: 60 10<-95 -5> 103 10<-95 -5> 146 10<-95 -5> 291 10<51.8415 128.215> 365 10<350.83 425.089> 436 10<-88.2401 -5> 490 10<475.984 561.21> 495 10<-95 -5> 554 10<-95 -5>
LayerCount: 2
Fore
SplineSet
113 -95 m 1xff20
 146 -95 l 1
 146 -5 l 1
 113 -5 l 1
 113 -95 l 1xff20
103 -95 m 1
 103 -5 l 1
 70 -5 l 1
 70 -95 l 1
 103 -95 l 1
301 42.1298 m 1
 436 -88.2401 l 1
 436 -2.11912 l 1
 301 128.215 l 1
 301 42.1298 l 1
291 51.8415 m 1
 291 137.88 l 1
 157 268.159 l 1
 157 182.109 l 1
 291 51.8415 l 1
446 -95 m 1
 495 -95 l 1
 495 -5 l 1xff60
 446 -5 l 1
 446 -95 l 1
505 -95 m 1
 554 -95 l 1
 554 -5 l 1
 505 -5 l 1
 505 -95 l 1
375 350.83 m 1
 490 475.984 l 1
 490 561.21 l 1xffa0
 375 436.053 l 1
 375 350.83 l 1
365 339.935 m 1
 365 425.089 l 1
 253.906 303.156 l 1
 268.453 288.625 l 1
 295.102 263.222 l 1
 365 339.935 l 1
60 -5 m 1
 60 0 l 1
 60 582 l 1
 156 582 l 1
 156 447.016 l 1
 156.906 329.766 l 1
 267.312 450.391 l 1
 388.812 582 l 1
 443 582 l 2
 478.047 581.953 491.547 580.781 494.781 579.922 c 0
 497.312 579.25 500.047 577.625 500.047 574.172 c 0
 500.047 574.065 500.03 573.909 500 573.726 c 2
 500 474 l 1
 500 471.922 l 1
 498.578 470.5 l 2
 496.328 468.188 443.734 410.859 373.688 334.625 c 2
 302.295 256.271 l 1
 413.484 147.578 l 1
 551.5 14.5625 l 1
 571.078 -5 l 1
 564 -5 l 1
 564 -100 l 1
 564 -105 l 1
 559 -105 l 1
 500 -105 l 1
 441 -105 l 1
 438.984 -105 l 1
 437.531 -103.594 l 2
 389.188 -56.9375 340.781 -10.3438 292.516 36.4062 c 2
 156.204 168.946 l 1
 156 140 l 1
 156 0 l 1
 156 -5 l 1
 156 -100 l 1
 156 -105 l 1
 151 -105 l 1
 108 -105 l 1
 65 -105 l 1
 60 -105 l 1
 60 -100 l 1
 60 -5 l 1
EndSplineSet
Validated: 1
EndChar

StartChar: uni004C
Encoding: 76 76 45
Width: 415
Flags: W
HStem: -105 10<69 230 240 402> -5 87<155 230 240 402> 562 20G<59 155>
VStem: 59 96<82 582> 59 10<-95 -5> 230 10<-95 -5> 402 10<-95 -5>
LayerCount: 2
Fore
SplineSet
240 -95 m 1xe6
 402 -95 l 1
 402 -5 l 1
 240 -5 l 1
 240 -95 l 1xe6
230 -95 m 1
 230 -5 l 1
 69 -5 l 1
 69 -95 l 1xee
 230 -95 l 1
59 -5 m 1
 59 0 l 1xee
 59 582 l 1
 155 582 l 1
 155 82 l 1xf6
 412 82 l 1
 412 0 l 1
 412 -5 l 1
 412 -100 l 1
 412 -105 l 1
 407 -105 l 1
 235 -105 l 1
 59 -105 l 1
 59 -100 l 1
 59 -5 l 1
EndSplineSet
Validated: 1
EndChar

StartChar: uni004D
Encoding: 77 77 46
Width: 661
Flags: W
HStem: -105 10<67 99 109 141 520 553 563 596> 562.125 19.875G<57 102.062 502.509 606>
VStem: 57 10<-95 -5> 99 10<-95 -5> 141 10<-95 -5> 230 10<248.137 319.84> 327 10<132.256 222.897> 422 10<248.283 319.686> 510 10<-95 -5> 553 10<-95 -5> 596 10<-95 -5>
LayerCount: 2
Fore
SplineSet
57 -5 m 1
 57 0 l 1
 57 582.125 l 1
 102.062 581 l 1
 144.375 581 l 1
 236.891 467.141 l 2
 285.828 406.453 323.578 360.141 331.031 350.328 c 1
 335.328 354.141 347.203 369.109 422.109 462.125 c 2
 518.609 582 l 1
 606 582 l 1
 606 0 l 1
 606 -5 l 1
 606 -100 l 1
 606 -105 l 1
 601 -105 l 1
 558 -105 l 1
 515 -105 l 1
 510 -105 l 1
 510 -100 l 1
 510 -5 l 1
 510 0 l 1
 510 221.984 l 1
 509.513 329.344 l 1
 430.906 230.859 l 2
 373.938 159.5 350.094 128.953 340.812 122.578 c 0
 337.219 120.125 334.578 120 332.609 120 c 0
 332.406 120 332.422 120 332 120 c 0
 331.516 120 330.984 120 330.406 120 c 0
 328.141 120.094 325.969 120.595 323.578 121.969 c 0
 313.049 128.02 277.97 172.814 231.109 230.859 c 2
 151.487 329.483 l 1
 151 221.984 l 1
 151 0 l 1
 151 -5 l 1
 151 -100 l 1
 151 -105 l 1
 104 -105 l 1
 57 -105 l 1
 57 -100 l 1
 57 -5 l 1
553 -95 m 1
 553 -5 l 1
 520 -5 l 1
 520 -95 l 1
 553 -95 l 1
563 -95 m 1
 596 -95 l 1
 596 -5 l 1
 563 -5 l 1
 563 -95 l 1
432 248.283 m 1
 509 344.75 l 1
 509 428.719 l 1
 432 332.23 l 1
 432 248.283 l 1
337 132.256 m 1
 343.172 137.566 356.905 154.205 422 235.751 c 1
 422 319.686 l 1
 385.676 274.067 350.071 228.934 340.812 222.578 c 0
 339.4 221.614 338.135 221.01 337 220.631 c 1
 337 132.256 l 1
230 248.137 m 1
 230 332.23 l 1
 152 428.844 l 1
 152 344.75 l 1
 230 248.137 l 1
240 235.751 m 1
 297.866 164.075 318.684 138.144 327 131.709 c 1
 327 220.523 l 1
 325.888 220.836 324.76 221.306 323.578 221.984 c 0
 314.02 227.474 293.029 254.08 240 319.84 c 1
 240 235.751 l 1
99 -95 m 1
 99 -5 l 1
 67 -5 l 1
 67 -95 l 1
 99 -95 l 1
109 -95 m 1
 141 -95 l 1
 141 -5 l 1
 109 -5 l 1
 109 -95 l 1
EndSplineSet
Validated: 1
EndChar

StartChar: uni004E
Encoding: 78 78 47
Width: 660
Flags: W
HStem: -105 10<71 101 111 140 531 558 568 596> 562 20G<61 153.657 514 606>
VStem: 61 10<-95 -5> 101 10<-95 -5> 140 10<-95 -5> 331 10<120.859 205.608> 514 92<148.312 582> 521 10<-86.6079 -5> 558 10<-95 -5> 596 10<-95 -5>
LayerCount: 2
Fore
SplineSet
111 -95 m 1xfc
 140 -95 l 1
 140 -5 l 1
 111 -5 l 1
 111 -95 l 1xfc
101 -95 m 1
 101 -5 l 1
 71 -5 l 1
 71 -95 l 1
 101 -95 l 1
531 -95 m 1xfd80
 558 -95 l 1
 558 -5 l 1
 531 -5 l 1
 531 -95 l 1xfd80
521 -86.6079 m 1
 521 -1.86599 l 1
 341 205.608 l 1
 341 120.859 l 1
 521 -86.6079 l 1
568 -95 m 1
 596 -95 l 1
 596 -5 l 1xfcc0
 568 -5 l 1
 568 -95 l 1
61 -5 m 1
 61 0 l 1
 61 582 l 1
 136.281 582 l 1
 513.062 148.312 l 1
 514 356.016 l 1
 514 582 l 1
 606 582 l 1xfe
 606 0 l 1
 606 -5 l 1
 606 -100 l 1
 606 -105 l 1
 601 -105 l 1
 563 -105 l 1
 526 -105 l 1
 523.719 -105 l 1
 522.219 -103.281 l 2
 458.891 -30.2812 395.562 42.7188 332.219 115.719 c 2
 331 117.141 l 1
 331 119 l 1
 331 217.135 l 1
 151 424.609 l 1
 151 338 l 1
 151 219 l 1
 150.011 -0.033364 l 2
 150.004 -1.68891 149.996 -3.34445 150 -5 c 2
 150 -100 l 1
 150 -105 l 1
 106 -105 l 1
 66 -105 l 1
 61 -105 l 1
 61 -100 l 1
 61 -5 l 1
EndSplineSet
Validated: 1
EndChar

StartChar: uni004F
Encoding: 79 79 48
Width: 693
Flags: W
HStem: -107.412 9.9999<282.995 399.352> -7.41211 87.1406<245.87 443.215> 0.0451801 21G<578.875 601.913> 400.619 10<299.803 390.497> 500.619 90.985<246.507 417.663>
VStem: 29.4062 98.1718<261.462 384.089> 29.4062 10<138.671 190.525> 161.875 10.534<338.376 406.727> 559.875 98.156<286.057 383.338> 648.031 10<134.131 186.057>
LayerCount: 2
Fore
SplineSet
314.422 590.4 m 0x9980
 222.047 582.229 133.832 535.929 87.8281 472.354 c 0
 48.0503 417.382 29.4062 353.307 29.4062 290.525 c 2x9d80
 29.4062 190.525 l 2
 29.4062 82.9004 84.5 -21.3496 183.625 -71.0527 c 0
 232.5 -95.5527 287.094 -107.412 341.312 -107.412 c 0
 430.406 -107.412 518.594 -75.8027 577.438 -16.0996 c 0
 631.188 38.4473 658.031 111.572 658.031 186.057 c 2x9b40
 658.031 286.057 l 2
 658.031 357.322 633.062 429.744 583.734 489.604 c 0
 533.719 550.275 431.734 591.604 340.875 591.604 c 0
 331.938 591.604 323.125 591.166 314.422 590.4 c 0x9980
190.299 25.9124 m 1
 237.443 5.2688 289.549 -1.1326 341.312 -7.41211 c 1xd9
 426.183 -7.41211 510.231 21.2715 568.875 75.5998 c 1
 568.875 -10.5148 l 1
 512.303 -66.9921 427.346 -97.4121 341.312 -97.4121 c 1
 291.422 -102.737 240.5 -94.9749 190.757 -63.7883 c 1
 189.465 -33.0604 188.276 -3.94678 190.299 25.9124 c 1
180.875 30.346 m 1
 180.875 -58.3362 l 1
 90.0956 -9.17109 39.4062 88.9028 39.4062 190.525 c 2
 39.4062 211.843 l 1x9b
 59.1988 135.494 107.866 68.0082 180.875 30.346 c 1
405.875 491.854 m 1
 466.059 474.564 539.211 432.673 559.869 318.058 c 1
 559.875 263.232 l 1x9980
 559.424 260.39 l 1
 535.225 332.654 483.84 380.672 405.875 402.245 c 1
 405.875 491.854 l 1
395.875 494.529 m 1
 395.875 404.802 l 1
 379.448 408.619 362.491 410.619 345.375 410.619 c 0
 279.51 410.619 211.976 383.381 172.409 338.376 c 1
 173.559 363.694 175.509 388.016 172.025 421.984 c 1
 207.378 469.774 277.484 500.619 345.375 500.619 c 0
 362.568 500.619 379.585 498.513 395.875 494.529 c 1
133.427 238.769 m 1
 140.152 267.359 152.69 295.132 170.938 320.494 c 0
 205.93 369.129 276.781 400.619 345.375 400.619 c 0
 363.875 400.619 382.172 398.166 399.578 393.588 c 0
 481.935 371.918 534.073 320.525 555.038 240.038 c 1
 543.995 198.353 520.623 157.727 489.625 131.213 c 0
 448.609 96.1348 396.078 79.7285 344.156 79.7285 c 0
 269.422 79.7285 196.084 114.326 158.172 177.979 c 0
 146.687 197.262 138.443 217.736 133.427 238.769 c 1
161.875 406.95 m 1
 161.875 325.025 l 1
 147.611 304.91 136.746 283.339 129.347 261.034 c 1
 128.167 270.168 127.578 279.364 127.578 288.572 c 0
 127.578 329.302 139.078 370.227 161.875 406.95 c 1
578.875 0.0451801 m 1xb940
 578.875 85.3698 l 1
 612.897 120.421 635.944 162.988 648.031 208.585 c 1
 648.031 186.057 l 2
 648.031 118.053 624.952 51.4827 578.875 0.0451801 c 1xb940
EndSplineSet
Validated: 41
EndChar

StartChar: uni0050
Encoding: 80 80 49
Width: 432
Flags: W
HStem: -105 10<64 97 107 140> 144 10.016<193 274.646> 244 84.094<150 183 193 303.118> 397 10<150 190 200 255> 497 85<150 190 200 254.409>
VStem: 54 10<-95 -5> 97 10<-95 -5> 140 10<-95 -5> 183 10<154.016 244> 190 10<407 496.996> 255 10<404.906 492.664> 324 105.031<377.234 472.269> 380 10<218.638 292.989> 419.031 10<271.055 351.813>
LayerCount: 2
Fore
SplineSet
107 -95 m 1xff20
 140 -95 l 1
 140 -5 l 1
 107 -5 l 1
 107 -95 l 1xff20
97 -95 m 1
 97 -5 l 1
 64 -5 l 1
 64 -95 l 1
 97 -95 l 1
390 218.638 m 1xff2c
 409.745 244.678 419.031 277.792 419.031 311.062 c 2
 419.031 351.813 l 1
 412.619 333.942 403.03 317.284 390 303.041 c 1
 390 218.638 l 1xff2c
380 206.995 m 1
 380 292.989 l 1
 341.048 256.824 291.298 244.411 193 244.01 c 1
 193 154.016 l 1xffa8
 296.998 154.433 342.293 167.817 380 206.995 c 1
200 406.995 m 1xff60
 227.237 406.933 244.147 406.347 255 404.906 c 1
 255 494.811 l 1
 242.521 496.653 221.452 496.961 200 496.996 c 1
 200 406.995 l 1xff60
190 407 m 1
 190 497 l 1
 150 497 l 1
 150 407 l 1
 190 407 l 1
265 402.983 m 1
 285.69 397.915 305.581 387.752 320.341 370.038 c 1
 321.413 371.989 322.462 374.032 323.5 376.172 c 2
 324 377.234 l 1
 324 445.848 l 1xff30
 312.324 469.619 292.394 485.365 265 492.664 c 1
 265 402.983 l 1
314.745 361.035 m 1
 300.416 379.731 280.006 389.652 258.969 394.109 c 0
 246.578 396.734 220.609 397 195 397 c 2
 150 397 l 1
 150 328.094 l 1
 200.891 329 l 2
 271.127 330.654 297.381 336.622 314.745 361.035 c 1
54 -5 m 1
 54 0 l 1
 54 582 l 1
 161 582 l 2
 286.672 582 309.453 578.64 351.422 555.375 c 0
 401.905 527.39 429.031 469 429.031 411.062 c 2xffb0
 429.031 311.062 l 2
 429.031 271.156 416.375 231 388.641 201.578 c 0
 347.641 158.094 297.156 144 188 144 c 2
 183 144 l 1
 183 149 l 1
 183 244 l 1xffa4
 150 244 l 1
 150 149 l 1
 150 0 l 1
 150 -5 l 1
 150 -100 l 1
 150 -105 l 1
 145 -105 l 1
 102 -105 l 1
 59 -105 l 1
 54 -105 l 1
 54 -100 l 1
 54 -5 l 1
EndSplineSet
Validated: 1
EndChar

StartChar: uni0051
Encoding: 81 81 50
Width: 692
Flags: W
HStem: 398.562 10<302.782 391> 498.562 91.672<249.454 390.404>
VStem: 31.8594 97.5626<258.511 377.471> 31.8594 10<136.965 211.642> 82 10<39.8632 106.179> 194 10<362.407 440.676> 257 10<-90.5047 -3.68924> 303 10<-111.757 -30.2524> 391 10<405.165 492.626> 540 10<-209.636 -120.29> 558 10<-204.143 -120.729> 598 10<-165.162 -88.8525 31.6095 100.212> 638.453 9.59399<-139.479 -49.4911> 650.609 10<137.877 212.526>
LayerCount: 2
Fore
SplineSet
318.609 587.984 m 0xe7fc
 323.891 588.391 342.125 589.853 344.75 589.984 c 0
 347.156 590.104 349.344 590.234 350.547 590.234 c 0
 375.453 590.234 427.64 580.639 457.547 570.75 c 0
 536.623 544.603 585.458 503.822 624.375 433.406 c 0
 648.884 389.058 660.609 339.656 660.609 290.312 c 2
 660.609 190.312 l 2
 660.609 127.969 641.531 65.4531 604.094 12.125 c 0
 592.21 -4.80148 576.07 -21.5378 557.624 -36.8501 c 1
 568.542 -39.0096 577.696 -40.0469 586.312 -40.0469 c 0
 598.375 -40.0469 609.656 -37.7969 623.781 -34.1562 c 0
 631.393 -32.1943 640.703 -31 643 -31 c 2
 645.078 -31 l 1
 646.531 -32.4688 l 2
 647.044 -32.9874 648.156 -35.3906 648.047 -36.1094 c 2
 648.047 -136.109 l 2
 648.047 -137.578 647.391 -138.844 646.766 -139.797 c 0
 643.672 -144.391 622.96 -164.662 606.469 -180.594 c 0
 593.078 -193.531 579.828 -206.578 566.484 -219.578 c 2
 564.922 -221.109 l 1
 562.719 -221 l 2
 556.719 -220.656 550.719 -220.344 544.719 -220 c 0
 475.422 -215.938 394.691 -184.503 305.234 -125.156 c 0
 281.234 -109.234 272 -104.688 260.781 -101.844 c 0
 188.525 -83.5272 118.565 -36.17 82.7969 19.2969 c 0
 48.7998 72.0174 31.8594 130.422 31.8594 188.844 c 2xd7fc
 31.8594 288.844 l 2
 31.8594 349.406 50.1408 410.078 86.8438 464.781 c 0
 130.969 530.547 225.816 580.834 318.609 587.984 c 0xe7fc
92 23.4783 m 1xcffc
 125.221 -27.14 189.978 -71.8776 257 -90.5047 c 1
 257 -0.85835 l 1
 191.854 16.5846 129.033 57.3973 92 106.179 c 1
 92 23.4783 l 1xcffc
82 39.8632 m 1
 82 120.539 l 1
 63.4894 149.52 50.1156 180.2 41.8594 211.642 c 1
 41.8594 188.844 l 2xdffc
 41.8594 137.894 55.1516 86.945 82 39.8632 c 1
267 -93.2007 m 1
 276.825 -96.1568 286.336 -101.011 303 -111.757 c 1
 303 -23.6789 l 1
 284.981 -11.8039 275.637 -6.67442 267 -3.68924 c 1
 267 -93.2007 l 1
313 -118.322 m 1
 398.281 -174.56 474.973 -204.501 540 -209.636 c 1
 540 -119.681 l 1
 473.792 -114.641 397.355 -84.9978 313 -30.2524 c 1
 313 -118.322 l 1
550 -210.266 m 1
 558 -210.717 l 1
 558 -120.729 l 1
 550 -120.29 l 1
 550 -210.266 l 1
568 -204.143 m 1
 598 -174.898 l 1
 598 -88.8525 l 1
 568 -118.107 l 1
 568 -204.143 l 1
608 -165.162 m 1
 621.784 -151.748 635.984 -137.861 638.453 -134.203 c 1
 638.102 -49.4911 l 1
 608 -79.1019 l 1
 608 -165.162 l 1
605 31.6095 m 1
 635.232 80.0795 650.609 135.271 650.609 190.312 c 2
 650.609 212.526 l 1
 641.522 177.675 626.274 144.054 605 113.423 c 1
 605 31.6095 l 1
595 16.5969 m 1
 595 100.212 l 1
 559.632 57.2745 498.804 17.1462 447 2.19835 c 1
 447 -3.56657 l 1
 464.316 -10.0297 490.139 -18.7152 512.406 -25.2031 c 0
 524.976 -28.8657 535.707 -31.8158 545.147 -34.0915 c 1
 565.094 -18.3131 582.574 -0.760999 595 16.5969 c 1
204 362.407 m 1
 243.315 392.007 298.867 408.562 351.156 408.562 c 0
 364.747 408.562 378.198 407.608 391 405.165 c 1
 391 494.977 l 1
 378.306 497.561 364.866 498.562 351.156 498.562 c 0
 298.182 498.562 241.18 480.437 204 449.673 c 1
 204 362.407 l 1
194 354.284 m 1
 194 440.676 l 1
 154.744 402.434 129.422 341.84 129.422 286.281 c 0
 129.422 276.678 130.195 267.233 131.714 258.081 c 1
 144.327 295.318 166.026 329.77 194 354.284 c 1
401 402.934 m 1
 480.779 383.101 538.733 330.572 562.312 260.463 c 1
 563.425 269.122 564 277.977 564 287 c 0
 564 387.748 500.945 466.789 401 492.626 c 1
 401 402.934 l 1
558.214 238.34 m 1
 540.109 315.775 480.959 374.07 394.906 394.125 c 0
 381.078 397.344 366.281 398.562 351.156 398.562 c 0
 297.344 398.562 239.36 379.874 202.25 348.203 c 0
 170.775 321.341 146.879 280.353 136.001 237.349 c 1
 153.85 164.683 197.342 115.821 269.688 89.7031 c 0
 295.078 80.5469 320.766 76.4375 345.812 76.4375 c 0
 445.434 76.4375 535.051 143.139 558.214 238.34 c 1
EndSplineSet
Validated: 1
EndChar

StartChar: uni0052
Encoding: 82 82 51
Width: 510
Flags: W
HStem: -105 10<71 103 113 145 415 455 465 505> 144 9.938<177 208.631> 244 86.234<155 167 177 242.344> 399 10<155 174 184 226 236 241.703> 499 83<155 174 184 225.457>
VStem: 61 10<-95 -5> 103 10<-95 -5> 145 10<-95 -5> 167 10<153.938 243.934> 174 10<409 498.966> 226 10<406.668 495.139> 285 10<385.989 461.301> 309 97.141<374.333 459.706> 334 10<27.4133 92.7484> 384 10<-51.7636 15.145> 396.141 10<278.172 359.635> 405 10<-83.1403 -4.10521> 455 10<-94.8985 -4.9894> 505 10<-94.2031 -4.2039>
LayerCount: 2
Fore
SplineSet
113 -95 m 1xff3060
 145 -95 l 1
 145 -5 l 1
 113 -5 l 1
 113 -95 l 1xff3060
103 -95 m 1
 103 -5 l 1
 71 -5 l 1
 71 -95 l 1
 103 -95 l 1
344 11.4552 m 1xff3660
 384 -51.7636 l 1
 384 29.5675 l 1
 344 92.7484 l 1
 344 11.4552 l 1xff3660
334 27.4133 m 1
 334 108.578 l 1
 270.294 212.029 235.528 242.351 177 243.934 c 1
 177 153.938 l 1xffb460
 237.103 152.42 273.596 122.558 334 27.4133 c 1
394 -67.4391 m 1xff32e0
 405 -83.1403 l 1
 405 -0.580673 l 1
 394 15.145 l 1
 394 -67.4391 l 1xff32e0
415 -94.0943 m 1
 455 -94.8985 l 1
 455 -4.90141 l 1
 415 -4.10521 l 1
 415 -94.0943 l 1
465 -94.989 m 1
 480.395 -94.9216 495.261 -94.556 505 -94.2031 c 1
 505 -4.2039 l 1
 497.535 -4.47133 482.734 -4.91542 465 -4.9894 c 1
 465 -94.989 l 1
184 408.969 m 1xff7060
 197.417 408.807 213.873 408.017 226 406.668 c 1
 226 496.615 l 1
 214.507 497.943 197.533 498.791 184 498.966 c 1
 184 408.969 l 1xff7060
174 409 m 1
 174 499 l 1
 155 499 l 1
 155 409 l 1
 174 409 l 1
236 405.272 m 1
 253.58 402.351 270.213 397.299 285 385.989 c 1
 285 472.877 l 1
 270.573 486.367 253.805 492.009 236 495.139 c 1
 236 405.272 l 1
295 377.042 m 1
 296.041 375.965 297.052 374.871 298.03 373.754 c 1
 305.177 386.093 309 400.448 309 415 c 0xff3860
 309 431.564 304.204 447.983 295 461.301 c 1
 295 377.042 l 1
292.224 365.122 m 1
 290.438 367.328 288.506 369.431 286.5 371.438 c 0
 270.297 387.547 250.828 393.031 230.266 396.062 c 0
 217.812 397.891 194.766 399 179 399 c 2
 155 399 l 1
 155 330.234 l 1
 192.844 332 l 1
 252.062 332.969 264.914 336.696 286.453 358.531 c 0
 288.508 360.614 290.433 362.817 292.224 365.122 c 1
61 -5 m 1
 61 0 l 1
 61 582 l 1
 146 582 l 2
 245.906 582 273.453 578.062 315.984 559.594 c 0
 375.984 533.516 406.141 474.688 406.141 416.422 c 2xffb860
 406.141 316.422 l 2
 406.141 280.592 394.789 244.691 371.763 216.119 c 1
 387.757 195.638 404.901 170.775 423.234 141.672 c 0
 463.466 77.805 478.371 54.8991 496.031 30.9531 c 0
 503.844 20.3594 513.031 6.46875 514.391 3.54688 c 0
 514.703 2.84375 515 2.01562 515 1 c 2
 515 -99 l 1
 510.219 -104 l 2
 510.188 -104 488.062 -105.203 459.953 -105 c 0
 443.281 -104.875 426.562 -104.328 409.906 -104 c 2
 407.359 -103.953 l 1
 405.906 -101.875 l 2
 398.906 -91.875 391.505 -81.9968 384.844 -71.7656 c 0
 367.841 -45.6481 351.142 -19.1555 334.75 7.35938 c 0
 268.484 114.547 233.828 144 172 144 c 2
 167 144 l 1
 167 149 l 1
 167 244 l 1xffb160
 155 244 l 1
 155 149 l 1
 155 0 l 1
 155 -5 l 1
 155 -100 l 1
 155 -105 l 1
 108 -105 l 1
 61 -105 l 1
 61 -100 l 1
 61 -5 l 1
365.363 224.154 m 1
 385.89 250.493 396.141 283.423 396.141 316.422 c 2
 396.141 359.635 l 1xff3160
 383.603 325.512 359.257 295.439 323 276.905 c 1
 323 267.689 l 1
 336.075 257.383 350.184 242.829 365.363 224.154 c 1
EndSplineSet
Validated: 33
EndChar

StartChar: uni0053
Encoding: 83 83 52
Width: 387
Flags: W
HStem: -111.344 10<145.144 234.726> -11.3438 84.4219<118.575 251.621> 401.719 10<166.9 237.842> 501.719 86.343<137.016 263.669>
VStem: 29.5312 88.1718<395.793 481.469> 32 10<-52.2344 35.9823 283.666 374.541> 48 10<-55.9827 26.14> 164 10<171.88 254.1> 265 10<398.494 483.121> 276.141 89.14<100.329 188.704> 321 10<366.958 446.772> 332 10<358.609 446.064> 343 10<22.3281 65.5817> 355.281 10<22.9057 92.1229>
LayerCount: 2
Fore
SplineSet
159.859 583.875 m 0xf980
 172.094 586.719 185.812 588.062 200.281 588.062 c 0
 243.672 588.062 293.641 576.25 328.484 555.344 c 1
 341.938 548 l 1
 343 497.047 l 2
 343 477.953 342.953 453.906 342.281 449.266 c 0
 342.212 448.804 342.117 448.383 342 447.997 c 2
 342 349 l 1
 342 344 l 1xf998
 337 344 l 2
 335.906 344 335.016 344.312 334.266 344.672 c 0
 331.766 345.891 326.25 350.438 322.891 353.078 c 0
 309.307 363.754 284.077 379.419 268.016 386.406 c 0
 244.248 396.746 221.547 401.719 201.234 401.719 c 0
 179.461 401.719 160.508 396.403 146.266 387.721 c 1
 147.391 386.672 l 2
 161.938 373.25 182.335 358.84 233.562 328.297 c 0
 319.781 276.891 365.281 216 365.281 148.328 c 2xf1c0
 365.281 48.3281 l 2
 365.281 27.6562 361.198 6.47057 352.641 -14.8438 c 0
 327.425 -77.6508 263.266 -111.344 191.219 -111.344 c 0
 145.281 -111.344 95.9017 -97.6917 50.3438 -69.2344 c 0
 45.0156 -65.9062 39.6875 -62.5781 34.3438 -59.2344 c 2
 32 -57.7656 l 1
 32 -55 l 1
 32 42.2344 l 1
 32 45 l 1
 32 164.672 l 1xf584
 61.4531 136.609 l 2
 105.5 94.6719 154.578 73.0781 194.891 73.0781 c 0
 221.661 73.0781 239.973 82.0859 252.24 92.9552 c 1
 234.347 113.081 205.984 134.93 166.422 158.719 c 0
 67.0312 218.484 29.5312 261.953 29.5312 325.516 c 2
 29.5312 425.516 l 2
 29.5312 429.719 29.7192 433.984 30.0156 438.344 c 0
 35.1784 514.281 80.375 565.281 159.859 583.875 c 0xf980
174 165.819 m 1
 212.503 142.482 240.672 120.889 259.279 100.084 c 1
 263.798 105.311 267.142 110.61 269.547 115.281 c 0
 274.087 124.098 276.141 132.766 276.141 141.484 c 0xf1c0
 276.141 173.733 245.872 209.705 174 254.1 c 1
 174 165.819 l 1
164 171.88 m 1
 164 260.181 l 1
 94.8818 302.012 56.2073 335.912 39.5312 374.541 c 1
 39.5312 325.516 l 2
 39.5312 268.452 72.3538 228.036 164 171.88 c 1
58 -62.2141 m 1xf388
 101.334 -88.7073 148.045 -101.344 191.219 -101.344 c 0
 259.993 -101.344 319.363 -69.7452 343 -12.0415 c 1
 343 65.5817 l 1
 313.283 15.3759 255.379 -11.3438 191.219 -11.3438 c 0
 147.843 -11.3438 101.39 0.817608 58 26.14 c 1
 58 -62.2141 l 1xf388
48 -55.9827 m 1
 48 32.231 l 1
 42 35.9823 l 1
 42 -52.2344 l 1xf780
 48 -55.9827 l 1
353 22.3281 m 1xf18c
 354.538 31.1003 355.281 39.771 355.281 48.3281 c 2
 355.281 92.1229 l 2
 354.561 90.1024 353.801 88.0803 353 86.057 c 2
 353 22.3281 l 1xf18c
275 394.237 m 1
 289.294 387.614 307.431 376.607 321 366.958 c 1
 321 454.539 l 1xf1a0
 309.045 463.635 289.89 475.671 275 483.121 c 1
 275 394.237 l 1
265 398.494 m 1
 265 487.692 l 1
 242.328 497.158 220.686 501.719 201.234 501.719 c 0
 151.516 501.719 117.703 474.609 117.703 441.891 c 0
 117.703 427.637 124.019 411.562 139.077 395.018 c 1
 155.384 405.589 176.874 411.719 201.234 411.719 c 0
 221.021 411.719 242.529 407.392 265 398.494 c 1
331 359.409 m 1
 332 358.609 l 1
 332 446.064 l 1xf1b0
 331 446.772 l 1
 331 359.409 l 1
EndSplineSet
Validated: 1
EndChar

StartChar: uni0054
Encoding: 84 84 53
Width: 513
Flags: W
HStem: -105 10<218 250 260 293> 397 10<20 109 119 208 403 494> 497 85<20 109 119 208 303 393 403 494>
VStem: 10 10<407 497> 109 10<407 497> 208 10<-95 -5> 250 10<-95 -5> 293 10<-95 -5> 393 10<407 497> 494 10<407 497>
LayerCount: 2
Fore
SplineSet
403 407 m 1
 494 407 l 1
 494 497 l 1
 403 497 l 1
 403 407 l 1
119 407 m 1
 208 407 l 1
 208 497 l 1
 119 497 l 1
 119 407 l 1
109 407 m 1
 109 497 l 1
 20 497 l 1
 20 407 l 1
 109 407 l 1
260 -95 m 1
 293 -95 l 1
 293 -5 l 1
 260 -5 l 1
 260 -95 l 1
250 -95 m 1
 250 -5 l 1
 218 -5 l 1
 218 -95 l 1
 250 -95 l 1
208 0 m 1
 208 397 l 1
 15 397 l 1
 10 397 l 1
 10 402 l 1
 10 497 l 1
 10 502 l 1
 10 582 l 1
 504 582 l 1
 504 502 l 1
 504 497 l 1
 504 402 l 1
 504 397 l 1
 499 397 l 1
 398 397 l 1
 393 397 l 1
 393 402 l 1
 393 497 l 1
 303 497 l 1
 303 402 l 1
 303 0 l 1
 303 -5 l 1
 303 -100 l 1
 303 -105 l 1
 298 -105 l 1
 255 -105 l 1
 208 -105 l 1
 208 -100 l 1
 208 -5 l 1
 208 0 l 1
EndSplineSet
Validated: 1
EndChar

StartChar: uni0055
Encoding: 85 85 54
Width: 599
Flags: W
HStem: -100.968 89.9994<185.877 297.969 307.969 415.839>
LayerCount: 2
Fore
SplineSet
553.969 381.994 m 0
 553.969 348.668 554.11 315.31 553.969 281.984 c 0
 553.11 80.25 552.11 72.2812 542.766 40.5938 c 0
 515.141 -53.0156 421.5 -111 302.969 -111 c 0
 190.688 -111 102.422 -64.375 68.375 14.0156 c 2
 67.9688 14.9688 l 1
 67.9688 16 l 1
 67.9688 114.954 l 1
 48.9709 158.915 47.9688 385.969 47.9688 385.969 c 1
 46.9375 582 l 1
 142.969 582 l 1
 142.969 400 l 2
 142.969 166.297 144.985 154.875 174.672 121.359 c 0
 204.391 89.3125 252.047 73.0781 300.11 73.0781 c 0
 351.344 73.0781 402.812 91.2188 432.094 127.156 c 0
 458.422 159.484 458.75 165.298 459.969 391.031 c 2
 461 582 l 1
 555 582 l 1
 553.969 381.994 l 1
 553.969 381.969 l 2
 552.936 181.722 552.122 172.408 542.969 141.283 c 0
307.969 -100.965 m 1
 420.696 -99.3771 506.988 -44.0716 532.969 42.7229 c 1
 532.969 114.526 l 1
 497.413 37.5606 412.766 -9.51468 307.969 -10.9655 c 1
 307.969 -100.965 l 1
297.969 -100.968 m 1
 297.969 -10.969 l 1
 197.351 -9.72002 116.586 29.2635 77.9688 95.1143 c 1
 77.9688 17.0469 l 1
 109.741 -54.897 191.174 -99.6159 297.969 -100.968 c 1
EndSplineSet
Validated: 43
EndChar

StartChar: uni0056
Encoding: 86 86 55
Width: 509
Flags: W
HStem: 562 20G<31.0703 95.8541 415.177 470.125>
VStem: 119 10<184.031 258.721> 242 20<-78.6941 -8.64768> 263 10<-76.5715 -8.64565> 384 10<211.646 262.321> 505.203 9.797<465.513 549.677>
LayerCount: 2
Fore
SplineSet
-4.5 570.828 m 2
 -4.71875 571.25 l 1
 -4.84375 571.781 l 2
 -4.9375 572.156 -5.18688 573.703 -5.15625 574 c 0
 -4.99677 575.547 -4.67188 579.703 1.64062 581.016 c 0
 7.25 582.156 21.1406 582 41 582 c 2
 87.2969 582 l 1
 174.594 377.969 l 2
 223.63 263.361 247.438 208.141 256.578 190.547 c 1
 339.406 383.953 l 1
 423.688 582 l 1
 468 582 l 2
 472.25 581.984 501.875 581.984 510 580.312 c 0
 514.672 579.344 515.109 576.062 515 575 c 2
 515 475 l 2
 515 474.203 514.812 473.562 514.609 473 c 0
 511.356 463.985 447.969 313.484 393.609 185.047 c 0
 328.772 31.8567 276.453 -95.1875 272.656 -102.906 c 0
 272.516 -103.203 272.391 -103.391 272.312 -103.547 c 0
 271.75 -104.516 270.655 -106.014 268.578 -107.094 c 0
 264.623 -109.152 257.953 -109.062 256.75 -108.984 c 0
 253.406 -108.766 249.844 -108.312 246.5 -107.969 c 2
 243.562 -107.688 l 1
 242.406 -104.969 l 2
 201.406 -9.64062 160.406 85.6875 119.406 181.031 c 2
 119 181.969 l 1
 119 183 l 1
 119 281.982 l 1
 63.367 412.344 -2.41133 566.339 -4.5 570.828 c 2
242 -78.6941 m 1
 242 -4.05516 l 1
 129 258.721 l 1
 129 184.031 l 1
 242 -78.6941 l 1
262 -98.741 m 2
 262.372 -98.6897 262.704 -98.628 263 -98.5528 c 2
 263 -8.64565 l 2
 262.669 -8.68906 262.335 -8.72721 262 -8.76067 c 2
 262 -98.741 l 2
273 -76.5715 m 1
 384 188.03 l 1
 384 262.321 l 1
 313.642 95.7884 278.569 9.79349 273 -2.18396 c 1
 273 -76.5715 l 1
394 211.646 m 1
 455.73 357.476 502.468 468.84 505.203 476.391 c 1
 505.052 549.677 l 1
 394 285.971 l 1
 394 211.646 l 1
EndSplineSet
Validated: 37
EndChar

StartChar: uni0057
Encoding: 87 87 56
Width: 823
Flags: W
HStem: 560.219 19.781G<-4.56511 -0.265625 29.9297 94.3701 387.606 490.437 783.658 828>
VStem: -5 10<474.969 547.997> 110 10<212.004 260.082> 225 30<-75.0976 -1.97235> 337 10<152.483 201.269> 432 10<354.588 435.099> 527 10<157.776 206.243> 621 29<-75.241 -1.98302> 729 10<144.694 193.304> 818 10<339.969 413.311>
LayerCount: 2
Fore
SplineSet
437.946 349.864 m 1
 346.625 125.125 l 2
 315.781 49.1875 285.297 -26.875 254.641 -102.875 c 2
 253.375 -106 l 1
 250 -106 l 1
 240 -106 l 1
 230 -106 l 1
 226.625 -106 l 1
 225.359 -102.875 l 2
 187.031 -7.2035 148.627 88.4541 110.359 184.141 c 0
 71.9713 280.126 33.6875 376.141 -4.64062 472.141 c 2
 -5 473.031 l 1
 -5 474 l 1
 -5 574 l 1
 -4.56511 574 l 1
 -4.3125 580.219 l 1
 -0.265625 579 l 2
 -0.21875 579 18.8594 580 41 580 c 2
 86.3906 580 l 1
 166.641 378.859 l 2
 206.844 278.391 230.234 221.297 241.75 195.5 c 1
 395.609 580 l 1
 482.375 580 l 1
 562.641 380.875 l 1
 637.922 195.312 l 1
 642.859 206.609 653.5 231.703 679.344 296.844 c 2
 757.359 493.844 l 1
 791.609 580 l 1
 828 580 l 1
 828 439 l 1
 828 438.031 l 1
 828 339 l 1
 828 338.031 l 1
 827.641 337.125 l 2
 797.969 263.797 768.297 190.453 738.641 117.125 c 0
 708.969 43.7969 679.297 -29.5469 649.641 -102.875 c 2
 648.375 -106 l 1
 636 -106 l 1
 626 -106 l 1
 622.625 -106 l 1
 621.359 -102.875 l 2
 590.031 -25.2031 558.533 52.407 527.359 130.141 c 0
 464.564 286.722 445.289 334.317 437.946 349.864 c 1
120 186.963 m 1
 225 -75.0976 l 1
 225 -1.94482 l 1
 120 260.082 l 1
 120 186.963 l 1
110 212.004 m 1
 110 285.04 l 1
 5 547.997 l 1
 5 474.969 l 1
 110 212.004 l 1
255 -75.2471 m 1
 337 127.946 l 1
 337 201.269 l 1
 255 -1.97235 l 1
 255 -75.2471 l 1
347 152.483 m 1
 409.709 306.357 428.131 352.865 432 361.195 c 1
 432 435.099 l 1
 347 226.047 l 1
 347 152.483 l 1
442 362.924 m 2
 442.271 362.609 442.547 362.252 442.828 361.844 c 0
 449.214 352.509 474.67 287.699 527 157.776 c 1
 527 231.031 l 1
 480.651 345.908 454.301 412.301 442 440.636 c 1
 442 362.924 l 2
537 132.969 m 1
 621 -75.241 l 1
 621 -1.97203 l 1
 537 206.243 l 1
 537 132.969 l 1
650 -75.2984 m 1
 729 119.976 l 1
 729 193.304 l 1
 650 -1.98302 l 1
 650 -75.2984 l 1
739 144.694 m 1
 818 339.969 l 1
 818 413.311 l 1
 739 218.024 l 1
 739 144.694 l 1
EndSplineSet
Validated: 1
EndChar

StartChar: uni0058
Encoding: 88 88 57
Width: 740
Flags: W
HStem: -104 10<148 189 199 241 642 684 694 733> 562 20G<-3 32.0703 199.914 281.706 601.329 681.023>
VStem: -3 12<341.117 445.041> 50.1094 9.8906<461.462 546.201> 138 10<-94.1875 -4.1969> 189 10<-94.9893 -5> 241 10<-86.1577 -5> 267 10<341.797 426.127> 339 10<31.8364 104.162> 437 10<137.802 222.167> 452 10<131.808 204.015> 548 10<14.9845 87.1767> 603 10<350.044 422.029> 632 10<-85.9783 -4> 684 10<-93.8962 -4> 716 10<470.74 560.391> 733 10<-93.0938 -3.09852>
LayerCount: 2
Fore
SplineSet
9 371.594 m 1
 24.8125 410.469 48.7188 469.219 50.1094 474.031 c 1
 50.0296 546.201 l 1
 9 445.041 l 1
 9 371.594 l 1
156 574.734 m 0
 156 574.875 155.906 575 155.969 575.078 c 0
 158.297 577.781 156.376 579.511 161.141 580.391 c 0
 166.689 581.416 188.828 582 211 582 c 2
 265.375 582 l 1
 355.859 471.188 l 1
 442.031 367.766 l 1
 528.125 472.156 l 1
 617.625 582 l 1
 671 582 l 2
 691.047 581.969 716.328 581.219 721.125 580.25 c 0
 725.688 579.328 726.203 576.031 726 575 c 2
 726 475 l 2
 726 473.375 725.25 472.312 724.875 471.766 c 0
 719.781 464.375 662.562 395 611.859 332.828 c 2
 541.79 247.346 l 1
 620.859 151.188 l 1
 748.469 -2.78125 l 1
 743 -2.89342 l 1
 743 -98 l 1
 743 -102.906 l 1
 738.094 -103 l 2
 721.766 -103.328 705.391 -103.841 689.047 -104 c 0
 671.719 -104.169 654.328 -104 637 -104 c 2
 635.812 -104 l 1
 634.766 -103.469 l 2
 634.36 -103.263 633.891 -103 633.156 -102.312 c 0
 628.531 -97.9531 599.281 -62.7188 549.141 -2.1875 c 0
 516.969 36.6719 485.141 75.8125 453.141 114.812 c 2
 442 128.188 l 1
 347.844 14.8125 l 2
 315.177 -24.5223 282.516 -63.8594 249.844 -103.188 c 2
 248.344 -105 l 1
 246 -105 l 1
 194 -105 l 2
 165.891 -105 142.828 -104 142.781 -104 c 2
 140.391 -106.5 l 1
 138 -99 l 1
 138 1 l 2
 138.422 2.34375 137.814 2.37354 139.188 4.32812 c 0
 143.929 11.0731 196.968 75.2373 262.172 153.203 c 2
 341.081 248.153 l 1
 267 338.203 l 1
 267 340 l 1
 267 438.207 l 1
 217.676 497.731 162.209 564.412 157.125 571.75 c 0
 156.767 572.267 156.109 573.25 156 574.734 c 0
716 476.56 m 1
 716 560.391 l 1
 613 434.219 l 1
 613 350.044 l 1
 659.352 406.799 708.893 467.116 716 476.56 c 1
199 -95 m 1
 241 -95 l 1
 241 -5 l 1
 199 -5 l 1
 199 -95 l 1
189 -94.9893 m 1
 189 -4.98964 l 1
 171.016 -4.91572 155.663 -4.46379 148 -4.1969 c 1
 148 -94.1875 l 1
 157.951 -94.5551 173.222 -94.9225 189 -94.9893 c 1
251 -86.1577 m 1
 339 19.7957 l 1
 339 104.162 l 1
 251 -1.80181 l 1
 251 -86.1577 l 1
349 31.8364 m 1
 437 137.796 l 1
 437 222.167 l 1
 349 116.203 l 1
 349 31.8364 l 1
447 137.802 m 1
 452 131.808 l 1
 452 216.182 l 1
 447 222.185 l 1
 447 137.802 l 1
462 119.797 m 1
 548 14.9845 l 1
 548 99.2031 l 1
 462 204.015 l 1
 462 119.797 l 1
558 2.8079 m 1
 632 -85.9783 l 1
 632 -1.12968 l 1
 625.268 6.08283 599.877 36.8785 558 87.1767 c 1
 558 2.8079 l 1
642 -94 m 1
 684 -94 l 1
 684 -4 l 1
 642 -4 l 1
 642 -94 l 1
694 -93.8962 m 1
 733 -93.0938 l 1
 733 -3.09852 l 1
 694 -3.89841 l 1
 694 -93.8962 l 1
603 337.8 m 1
 603 422.029 l 1
 558.947 368.321 511.142 309.87 501.906 297.078 c 1
 505.92 291.598 517.177 277.534 535.337 255.254 c 1
 603 337.8 l 1
60 573 m 2
 60 473 l 2
 60 472.422 59.9219 471.922 59.7188 471.25 c 0
 57.8594 464.812 44.6094 432.953 8.64062 344.125 c 0
 7.6875 341.797 5.50186 340.619 3.04688 341.094 c 0
 0.579995 341.572 -1 343.5 -1 346 c 2
 -1 444.141 l 2
 -1.14492 444.591 -1.27376 445.205 -1.40625 446.062 c 0
 -2.38737 452.406 -3 482.781 -3 508 c 2
 -3 580 l 1
 28 580 l 2
 36.1406 579.953 50.0888 579.668 55.2969 578.328 c 0
 57.5759 577.741 60.0938 576.203 60 573 c 2
277 426.127 m 1
 277 341.797 l 1
 347.533 256.037 l 1
 369.441 282.883 377.434 293.526 380 298.204 c 1
 380 301.131 l 1
 277 426.127 l 1
EndSplineSet
Validated: 33
EndChar

StartChar: uni0059
Encoding: 89 89 58
Width: 510
Flags: W
HStem: -105 10<218 251 261 294> 563.5 18.5G<-5 -0.21875 36.9453 119.963 478.391 484.688>
VStem: -5 10<471.417 560.783> 102 9.99999<353.3 424.458> 208 10<-95 -5> 251 10<-95 -5> 294 10<-95 -5> 400 10<353.5 424.523> 505 10<469.806 559.719>
LayerCount: 2
Fore
SplineSet
5 477.479 m 1
 10.9799 469.119 51.7932 416.443 102 353.3 c 1
 102 437.258 l 1
 5 560.783 l 1
 5 477.479 l 1
505 476.477 m 1
 505 559.719 l 1
 410 437.261 l 1
 410 353.5 l 1
 453.161 408.667 498.5 467.262 505 476.477 c 1
261 -95 m 1
 294 -95 l 1
 294 -5 l 1
 261 -5 l 1
 261 -95 l 1
251 -95 m 1
 251 -5 l 1
 218 -5 l 1
 218 -95 l 1
 251 -95 l 1
112 340.711 m 1
 208 217.545 l 1
 208 301.281 l 1
 112 424.458 l 1
 112 340.711 l 1
208 201.285 m 1
 103.078 335.906 l 1
 46.3281 407.078 0.234375 466.453 -3.95312 472.844 c 0
 -5 474.453 -4.96797 474 -5 476 c 0
 -5.53382 509.328 -5 542.672 -5 576 c 1
 -2.60938 583.5 l 1
 -0.21875 581 l 2
 -0.171875 581 22.8906 582 51 582 c 2
 104.453 582 l 1
 181.953 482.062 l 1
 255.016 388.547 l 1
 328.062 481.078 l 1
 406.562 581 l 1
 458.906 581 l 2
 467.172 581.297 474.922 581.406 481.859 581.406 c 0
 487.516 581.406 504.625 581.312 510.109 580.25 c 0
 514.672 579.344 515.201 576.031 515 575 c 2
 515 475 l 2
 515 473.422 514.311 472.392 513.953 471.844 c 0
 509.061 464.355 456.375 396.437 408.938 335.906 c 2
 400 324.516 l 1
 400 339 l 1
 400 424.523 l 1
 304 302.266 l 1
 304 204 l 1
 304 0 l 1
 304 -5 l 1
 304 -100 l 1
 304 -105 l 1
 299 -105 l 1
 256 -105 l 1
 213 -105 l 1
 208 -105 l 1
 208 -100 l 1
 208 -5 l 1
 208 0 l 1
 208 201.285 l 1
EndSplineSet
Validated: 33
EndChar

StartChar: uni005A
Encoding: 90 90 59
Width: 547
Flags: W
HStem: -105 10.0004<15 266 276 527> -5 86<175.844 236.432 248.821 266 276 527> 396 10.0291<37 199 209 292.631> 496.973 85.0273<37 199 209 366.125>
VStem: 5 10<-94.0469 -4.04056> 27 10<406.969 496.973> 199 10<406.029 496> 266 10<-94.9996 -5> 342 10<239.301 308.666> 527 10<-95 -5 475.703 558.885>
LayerCount: 2
Fore
SplineSet
209 406 m 1
 299.98 406 l 1
 366.125 496 l 1
 209 496 l 1
 209 406 l 1
199 406.029 m 1
 199 496.029 l 1
 37 496.973 l 1
 37 406.969 l 1
 199 406.029 l 1
276 -95 m 1
 527 -95 l 1
 527 -5 l 1
 276 -5 l 1
 276 -95 l 1
266 -94.9996 m 1
 266 -4.99959 l 1
 142.517 -4.97958 38.6444 -4.22537 15 -4.04056 c 1
 15 -94.0469 l 1
 67.7569 -94.4619 166.507 -94.9825 266 -94.9996 c 1
352 239.301 m 1
 525 475.703 l 1
 525 558.885 l 1
 352 322.368 l 1
 352 239.301 l 1
342 225.632 m 1
 342 308.666 l 1
 175.844 81 l 1
 236.432 81 l 1
 342 225.632 l 1
292.631 396 m 1
 203.984 396 l 2
 146.656 396.328 89.2969 396.672 31.9688 397 c 2
 27 397.031 l 1
 27 402 l 1
 27 497.031 l 1
 27 502 l 1
 27 582 l 1
 282 582 l 2
 417.516 582 515.698 581.796 529.422 579.562 c 0
 530.688 579.356 535.062 578.469 535.062 574.109 c 0
 535.062 573.998 535.04 573.847 535 573.669 c 2
 535 474 l 1
 535 471.922 l 1
 533.812 470.781 l 2
 529.938 465.891 432.639 332.852 351.047 221.062 c 2
 248.821 81 l 1
 349.016 81 l 1
 537 79.9688 l 1
 537 0 l 1
 537 -5 l 1
 537 -100 l 1
 537 -105 l 1
 271 -105 l 2
 127.984 -105 9.96875 -104 9.95312 -104 c 2
 7.48438 -106.5 l 1
 5 -99 l 1
 5 1 l 2
 5.54688 2.85938 4.98672 2.49849 6 4.0625 c 0
 10.9959 11.7737 91.7344 120.781 188.969 254.953 c 1
 292.631 396 l 1
EndSplineSet
Validated: 1
EndChar

StartChar: uni005B
Encoding: 91 91 60
Width: 283
Flags: W
VStem: 73 198
LayerCount: 2
Fore
SplineSet
73 -187 m 1
 172 -187 l 1
 271 -187 l 1
 271 -151 l 1
 271 -116 l 1
 214 -116 l 1
 157 -116 l 1
 157 195 l 1
 157 506 l 1
 214 506 l 1
 271 506 l 1
 271 542 l 1
 271 577 l 1
 172 577 l 1
 73 577 l 1
 73 195 l 1
 73 -187 l 1
EndSplineSet
Validated: 9
Substitution2: "'rtla' Right to Left Alternates lookup 0 subtable" uni005D
EndChar

StartChar: uni005C
Encoding: 92 92 61
Width: 238
Flags: W
VStem: 10 61<560.817 585.963>
LayerCount: 2
Fore
SplineSet
92 285 m 2
 174 -7 l 1
 206 -8 l 2
 230 -8 237 -8 236 -6 c 0
 235 -4 198 130 153 291 c 2
 71 586 l 1
 40 586 l 2
 13 586 10 585 10 582 c 0
 10 580 47 446 92 285 c 2
EndSplineSet
Validated: 9
EndChar

StartChar: uni005D
Encoding: 93 93 62
Width: 284
Flags: W
VStem: 13 198
LayerCount: 2
Fore
SplineSet
13 506 m 1
 70 506 l 1
 127 506 l 1
 127 195 l 1
 127 -116 l 1
 70 -116 l 1
 13 -116 l 1
 13 -151 l 1
 13 -187 l 1
 112 -187 l 1
 211 -187 l 1
 211 195 l 1
 211 577 l 1
 112 577 l 1
 13 577 l 1
 13 542 l 1
 13 506 l 1
EndSplineSet
Validated: 9
Substitution2: "'rtla' Right to Left Alternates lookup 0 subtable" uni005B
EndChar

StartChar: uni005E
Encoding: 94 94 63
Width: 396
Flags: W
LayerCount: 2
Fore
SplineSet
22 248 m 0
 21 245 24 245 60 245 c 2
 100 245 l 1
 148 366 l 1
 197 487 l 2
 198 487 220.767 431.904 248 366 c 2
 298 245 l 1
 337 245 l 2
 373 245 375 245 374 249 c 0
 373 251 340 326 301 415 c 2
 229 577 l 1
 198 577 l 1
 167 577 l 1
 95 415 l 2
 56 325 23 251 22 248 c 0
EndSplineSet
Validated: 41
EndChar

StartChar: uni005F
Encoding: 95 95 64
Width: 467
Flags: W
HStem: -167 55
LayerCount: 2
Fore
SplineSet
-12 -167 m 1
 234 -167 l 1
 481 -167 l 1
 481 -139 l 1
 481 -112 l 1
 234 -112 l 1
 -12 -112 l 1
 -12 -139 l 1
 -12 -167 l 1
EndSplineSet
Validated: 9
EndChar

StartChar: uni0060
Encoding: 96 96 65
Width: 282
Flags: W
LayerCount: 2
Fore
SplineSet
98 521 m 2
 144 460 l 1
 169 460 l 2
 193 460 193 460 191 465 c 0
 190 468 178 496 163 527 c 1
 137 585 l 1
 93 585 l 2
 66 585 50 585 51 584 c 1
 51 582 72 554 98 521 c 2
EndSplineSet
Validated: 41
EndChar

StartChar: uni0061
Encoding: 97 97 66
Width: 360
Flags: W
HStem: -110.656 10<85.8269 152.011 244.811 302.74> -11.0469 65.5469<150.718 193.738 301.985 326.085> 309.453 82.891<96.1102 196.428>
VStem: 17.9844 86.3276<59.1902 137.316> 17.9844 10<-45.4392 39.2342> 23 10<161.547 248.634> 34 10<170.927 249.452> 85 10<205.039 288.619> 140 10<64.1553 147.691> 195 10<-72.1127 10.4493> 211 85<81.2919 178.482 232.837 296.221> 213 10<-68.0389 7.64589> 327 10<-79.6695 3.55888> 342 10<-77 11.6707>
LayerCount: 2
Fore
SplineSet
27.9844 -15.4219 m 2xe8cc
 27.9844 -69.4219 66.4219 -100.656 116.641 -100.656 c 0
 140.668 -100.656 167.767 -93.7149 195 -78.1191 c 1
 195 10.4493 l 1
 168.087 -3.94714 141.104 -10.6562 116.641 -10.6562 c 0
 75.7368 -10.6562 43.4589 7.98715 27.9844 39.2342 c 1
 27.9844 -15.4219 l 2xe8cc
125.266 389.938 m 0
 135.063 391.324 144.766 392.344 154.5 392.344 c 0
 199.688 392.344 253.344 374.172 278.203 335.719 c 0
 295.578 308.812 295.549 309.766 296 179.016 c 0
 296.281 97.5938 297.062 66.9062 300.484 56.7969 c 0
 300.703 56.1562 300.812 55.0318 301.906 54.625 c 0
 303.626 53.9852 302.453 54.5 302.625 54.5 c 0
 302.922 54.5 303.188 54.5 303.188 54.5 c 2
 305.641 54.5 315.242 56.5289 329.406 65.2812 c 0
 337.953 70.5625 341.312 72.5781 343.672 73.5156 c 0
 344.547 73.8594 345.469 74.4375 346 74 c 0
 348.766 71.7188 350.528 73.5933 351.375 68.8438 c 0
 352.138 64.562 352 53.1562 352 44 c 2
 352 20 l 1
 352 17 l 1
 352 -80 l 1
 352 -83 l 1
 349.359 -84.4062 l 2
 344.359 -87.0781 339.344 -89.5469 334.438 -92.3594 c 0
 312.256 -105.076 290.469 -111.047 271.484 -111.047 c 0
 246.01 -111.047 223.713 -100.15 213.674 -78.5537 c 1
 211.034 -80.0606 206.438 -83.0139 202.594 -85.2812 c 0
 173.188 -102.625 143.406 -110.656 116.641 -110.656 c 0
 58.6406 -110.656 17.9844 -73.1719 17.9844 -15.4219 c 2xe8ec
 17.9844 84.5781 l 2
 17.9844 85.0625 17.9844 85.5625 17.9844 86.0312 c 0xf0cc
 17.9844 127.672 36.8594 156.688 81.3906 183.266 c 0
 93.2085 190.313 108.978 196.682 143.814 209.148 c 1
 128.571 207.84 111.164 202.315 92.2812 192.562 c 0
 76.8281 184.562 66.2812 177.047 42.2344 156.188 c 0
 38.6532 153.082 34.8281 150.125 31.1719 147.125 c 2
 23 140.453 l 1
 23 151 l 1
 23 240.453 l 1
 23 251 l 1
 23 294.062 l 1xe4cc
 24.0469 340.359 l 1
 38.8438 352.875 l 1
 62.5625 371.438 94.2363 385.549 125.266 389.938 c 0
44 170.927 m 1xe3cc
 61.4839 185.808 71.9701 193.062 85 200.011 c 1
 85 288.619 l 1
 73.3457 281.978 62.9065 274.202 44 257.73 c 1
 44 170.927 l 1xe3cc
34 162.366 m 1
 34 249.452 l 1
 33 248.634 l 1
 33 161.547 l 1xe6cc
 34 162.366 l 1
95 205.039 m 1xe1ec
 115.117 214.525 133.836 219.453 150.75 219.453 c 0
 156.707 219.453 162.408 218.851 167.819 217.659 c 1
 179.359 221.719 l 1
 211 232.837 l 1
 211 245.9 l 1
 207.903 284.964 186.783 309.453 150.75 309.453 c 0
 134.639 309.453 115.744 304.287 95 293.942 c 1
 95 205.039 l 1xe1ec
205 -72.1127 m 1
 208.353 -70.0728 210.828 -68.6566 212.859 -68.0781 c 2
 213 -68.0389 l 1
 213 21.0651 l 1xe0dc
 205 16.1703 l 1
 205 -72.1127 l 1
223 -74.9109 m 1
 231.186 -92.1616 248.774 -101.047 271.484 -101.047 c 0
 288.272 -101.047 307.723 -95.832 327 -85.1002 c 1
 327 3.55888 l 1
 307.472 -6.48053 288.334 -11.0469 271.484 -11.0469 c 0
 252.185 -11.0469 234.707 -4.78423 223 7.64589 c 1
 223 -74.9109 l 1
337 -79.6695 m 1
 342 -77 l 1
 342 11.6707 l 1
 337 9.006 l 1
 337 -79.6695 l 1
150 64.1553 m 1
 169.314 73.5723 199.271 85.5077 211 88.9688 c 1
 211 178.482 l 1xe0ec
 197.948 174.029 165.667 160.712 150 152.935 c 1
 150 64.1553 l 1
140 59.0213 m 1
 140 147.691 l 1
 126.877 140.328 104.312 124.805 104.312 99.6406 c 0
 104.312 91.6875 106.631 83.253 111.406 74.375 c 0
 117.103 63.7837 125.853 58.4932 133.936 55.8674 c 1
 135.905 56.9487 137.925 57.9552 140 59.0213 c 1
210.862 77.5536 m 1
 194.54 72.4898 165.627 60.7706 150.718 53.3282 c 1
 150.828 53.3281 l 2
 167.266 53.3281 186.578 59.6406 205 73 c 2
 210.862 77.5536 l 1
EndSplineSet
Validated: 1
EndChar

StartChar: uni0062
Encoding: 98 98 67
Width: 422
Flags: W
HStem: -111.344 10<132.625 230> -11.3438 82.125<132.206 248.899> 210.188 10<182.656 230 240 242.775> 310.188 81.906<149.044 241.619> 562 20G<45 132>
VStem: 45 87<79.9531 177.657 190.344 278.333 363.328 582> 45 18<-82.6146 9.64871> 138 10<200.227 281.664> 230 10<-96.7833 -8.98235 219.009 306.517> 310.188 87.796<158.863 267.973> 343 10<-27.3249 44.86> 387.984 10<46.4131 123.56>
LayerCount: 2
Fore
SplineSet
63 -79.6471 m 1xfb80
 95.9639 -92.6547 151.208 -101.344 194.422 -101.344 c 0
 207.772 -101.344 219.997 -100.545 230 -98.8526 c 1
 230 -8.98235 l 1
 219.57 -10.6262 207.469 -11.3438 194.422 -11.3438 c 0
 151.317 -11.3438 98.053 -3.39159 63 9.64871 c 1
 63 -79.6471 l 1xfb80
240 -96.7833 m 1
 283.818 -86.6137 321.78 -66.0356 343 -40.2405 c 1
 343 44.86 l 1xf9a0
 318.783 20.3811 281.722 2.24876 240 -7.03406 c 1
 240 -96.7833 l 1
353 -27.3249 m 1
 376.115 5.81832 387.984 49.8931 387.984 94.4531 c 2
 387.984 123.56 l 1xf9b0
 380.535 98.446 368.9 75.3015 353 56.1844 c 1
 353 -27.3249 l 1
148 200.227 m 1
 170.079 213.84 191.313 220.188 212.922 220.188 c 0
 218.573 220.188 224.293 219.869 230 219.009 c 1
 230 308.889 l 1
 224.246 309.867 218.579 310.188 212.922 310.188 c 0
 191.681 310.188 170.851 303.586 148 288.35 c 1
 148 200.227 l 1
138 193.674 m 1
 138 281.664 l 1
 133 278.333 l 1
 133 190.344 l 1
 138 193.674 l 1
240 216.91 m 1
 269.816 208.862 292.57 186.647 306.048 158.313 c 1
 308.837 170.057 310.188 181.911 310.188 193.547 c 0xf9c0
 310.188 246.021 283.199 293.337 240 306.517 c 1
 240 216.91 l 1
132 177.657 m 1xfd80
 132 79.9531 l 1
 145.094 76.875 l 2
 164.141 72.7812 181.391 70.7812 196.969 70.7812 c 0
 255.5 70.7812 281.375 99.5 294.516 126.203 c 0
 297.241 131.749 299.597 137.396 301.595 143.105 c 1
 289.584 175.893 265.888 201.01 233.969 208.109 c 0
 226.844 209.688 219.875 210.188 212.922 210.188 c 0
 191 210.188 169.547 203.094 145.797 186.859 c 2
 132 177.657 l 1xfd80
45 16.5312 m 1xfb90
 45 20 l 1xfb90
 45 582 l 1
 132 582 l 1
 132 363.328 l 1
 139.562 367.359 l 1
 168.109 384.109 199.281 392.094 229.688 392.094 c 0
 281.375 392.094 330.725 368.853 360.125 325.812 c 0
 385.476 288.698 397.984 241.344 397.984 194.453 c 2xfdc0
 397.984 94.4531 l 2
 397.984 42.5938 382.797 -8.8125 351.859 -45.1719 c 1
 327.781 -75.5312 284.875 -97.75 236.016 -107.891 c 0
 224.344 -110.312 210.062 -111.344 194.422 -111.344 c 0
 148.406 -111.344 90.9154 -102.037 56.1562 -87.6406 c 0
 53.5156 -86.5469 50.9075 -85.684 48.25 -84.6875 c 2
 45 -83.4688 l 1
 45 -80 l 1
 45 16.5312 l 1xfb90
EndSplineSet
Validated: 1
EndChar

StartChar: uni0063
Encoding: 99 99 68
Width: 370
Flags: W
HStem: -110.969 10<180.028 283.736> -10.9688 82.2969<160.535 315.13> 209.297 10<190.65 258.016> 309.297 82.984<177.089 300.731>
VStem: 27.1562 87.6098<154.675 263.837> 27.1562 10<39.8547 118.108> 91 10<-54.0365 25.0378> 166 10<209.724 293.5> 308 10<195.366 278.885> 316 10<-84.9337 1.26924> 323 10<187.734 276.647> 333 10<-82.4688 6.93398>
LayerCount: 2
Fore
SplineSet
188.25 389.938 m 0xf910
 198.031 391.343 208.25 392.281 218.828 392.281 c 0
 249.688 392.281 282.906 385.828 311.875 373.641 c 2
 332.922 365.453 l 1
 334 321.062 l 2
 334 304.781 333.906 284.266 333.312 280.312 c 0
 333.237 279.811 333.131 279.358 333 278.946 c 2
 333 180 l 1
 326.031 175.406 l 2
 325.984 175.422 318.672 178.234 310.672 182.578 c 0
 277.732 200.465 249.953 209.297 224.297 209.297 c 0
 206.703 209.297 189.953 205.625 173.172 197.5 c 0
 151.867 187.169 134.373 165.714 124.201 139.995 c 1
 141.592 95.6269 181.499 71.3281 235.109 71.3281 c 0
 263.984 71.3281 296.734 78.375 331.891 93.5312 c 0
 332.501 93.7942 333.797 94.6406 335.484 94.4688 c 0
 337.781 94.2344 341.061 93.8123 342.172 87.4844 c 0
 343.108 82.156 343 69.1562 343 52 c 2
 343 14 l 1
 343 10.4688 l 1
 343 -86 l 1
 343 -89.5312 l 1
 339.656 -90.7188 l 2
 334 -92.7188 328.297 -94.9062 322.578 -96.75 c 0
 292.094 -106.484 260.641 -110.969 230.5 -110.969 c 0
 177.391 -110.969 127.766 -96.75 92.875 -68.9062 c 0
 49.1875 -34.0312 27.1562 26.6094 27.1562 88.0312 c 2xf510
 27.1562 188.031 l 2
 27.1562 237.797 41.9531 288.188 72.0469 327.062 c 0
 94.375 355.891 142.189 383.322 188.25 389.938 c 0xf910
101 -62.5639 m 1xf350
 133.497 -87.6005 180.149 -100.969 230.5 -100.969 c 0
 258.486 -100.969 287.542 -96.8525 316 -88.3007 c 1
 316 1.26924 l 1
 287.551 -6.95609 258.48 -10.9688 230.5 -10.9688 c 0
 181.389 -10.9688 135.257 1.18991 101 25.0378 c 1
 101 -62.5639 l 1xf350
91 -54.0365 m 1
 91 32.6173 l 1
 65.3262 53.8489 47.3517 84.1106 37.1562 118.108 c 1
 37.1562 88.0312 l 2xf710
 37.1562 33.0079 55.7606 -20.7955 91 -54.0365 c 1
326 -84.9337 m 1xf150
 333 -82.4688 l 1
 333 6.93398 l 1
 326 4.45961 l 1
 326 -84.9337 l 1xf150
176 209.724 m 1
 191.646 216.206 207.73 219.297 224.297 219.297 c 0
 250.176 219.297 277.343 211.378 308 195.366 c 1
 308 284.015 l 1xf190
 276.213 300.942 249.257 309.297 224.297 309.297 c 0
 207.692 309.297 191.826 306.082 176 298.838 c 1
 176 209.724 l 1
166 205.061 m 1
 166 293.5 l 1
 135.829 274.517 114.766 233.161 114.766 190.875 c 0
 114.766 188.344 114.828 185.844 114.984 183.312 c 0
 115.666 172.963 117.216 163.267 119.577 154.252 c 1
 130.324 176.182 146.338 194.587 166 205.061 c 1
318 190.138 m 1
 323 187.734 l 1
 323 276.647 l 1xf1b0
 318 278.885 l 1
 318 190.138 l 1
EndSplineSet
Validated: 33
EndChar

StartChar: uni0064
Encoding: 100 100 69
Width: 431
Flags: W
HStem: -105 10.0469<176.891 279 289 378> -4.05078 75.0508<174.841 279 289 301> 216.328 10<203.121 256 266 266.928> 316.328 76.297<192.365 256> 562 20G<301 388>
VStem: 32.0781 87.8599<153.927 265.461> 32.0781 10<48.8269 126.247> 72 10<-17.9301 50.9416> 163 10<-86.3282 0.557803> 181 10<218.137 303.401> 256 10<224.147 311.639> 279 10<-93.9461 -4.05078> 287 10<216.012 301.903> 301 87<71 200.481 211.09 300.469 380.516 582> 378 10<-94.9531 -4.94626>
LayerCount: 2
Fore
SplineSet
299.875 380.516 m 1xfce0
 300.812 387.125 301 404.422 301 475 c 2
 301 582 l 1
 388 582 l 1xfce4
 388 0 l 1
 388 -5.04688 l 1
 388 -100 l 1
 388 -105.047 l 1
 382.953 -105 l 2
 349.953 -104.672 316.953 -104.344 283.953 -104 c 0
 190.203 -103.016 184.563 -102.699 166.656 -97.8125 c 0
 127.69 -87.1791 91.27 -64.0907 72.9062 -37.8594 c 0
 45.9284 0.676403 32.0781 47.8125 32.0781 94.5 c 2xfae2
 32.0781 194.5 l 2
 32.0781 244.156 47.4693 293 78.1875 329.234 c 0
 112.376 369.562 169.812 392.625 227.094 392.625 c 0
 244.734 392.625 262.484 390.562 279.375 385.812 c 0
 287.579 383.505 295.297 381.734 299.875 380.516 c 1xfce0
82 -33.4059 m 1xf9e0
 97.715 -54.9021 129.185 -75.7301 163 -86.3282 c 1
 163 3.2238 l 1
 131.057 12.6154 101.17 30.2545 82 50.9416 c 1
 82 -33.4059 l 1xf9e0
72 -17.9301 m 1
 72 63.4454 l 1
 58.7644 82.6565 48.7611 103.958 42.0781 126.247 c 1
 42.0781 94.5 l 2xfbe0
 42.0781 55.3699 52.3095 15.8339 72 -17.9301 c 1
173 -89.1587 m 1
 186.561 -92.6181 196.778 -93.0618 279 -93.9461 c 1
 279 -3.94691 l 1xf8f0
 201.34 -3.10999 187.061 -2.71702 173 0.557803 c 1
 173 -89.1587 l 1
289 -94.0502 m 1
 378 -94.9531 l 1
 378 -4.94626 l 1xf8f2
 289 -4.05078 l 1
 289 -94.0502 l 1
191 218.137 m 1
 206.727 223.588 220.3 226.328 234.078 226.328 c 0
 241.26 226.328 248.452 225.567 256 224.147 c 1
 256 313.958 l 1
 248.275 315.511 241.142 316.328 234.078 316.328 c 0
 220.746 316.328 207.523 313.541 191 307.525 c 1
 191 218.137 l 1
181 214.383 m 1
 181 303.401 l 1
 141.535 284.239 119.938 235.199 119.938 186.453 c 0
 119.938 175.214 121.079 164.084 123.363 153.428 c 1
 135.03 180.437 154.287 203.108 181 214.383 c 1
266 221.952 m 1
 272.536 220.344 280.397 218.146 287 216.012 c 1
 287 305.477 l 1xf8e8
 281.008 307.513 272.88 309.871 266 311.639 c 1
 266 221.952 l 1
297 212.517 m 1
 301 211.09 l 1
 301 300.469 l 1xf8ec
 297 301.903 l 1
 297 212.517 l 1
301 200.481 m 1
 290.281 204.312 l 2
 282.672 207.156 268.594 211.155 259.891 213.125 c 0
 250.641 215.218 242.312 216.328 234.078 216.328 c 0
 219.891 216.328 205.828 213.171 187.781 206.328 c 0
 158.662 195.287 138.301 168.94 127.891 137.135 c 1
 136.437 112.447 151.877 91.7619 174.25 80.4688 c 0
 186.689 74.1899 209.156 71 261 71 c 2
 301 71 l 1
 301 200.481 l 1
EndSplineSet
Validated: 1
EndChar

StartChar: uni0065
Encoding: 101 101 70
Width: 405
Flags: W
HStem: -111.188 10<175.15 282.101> -11.1875 82.6719<192.252 279.358> 78 10<192.042 239 249 280.178> 178 56<120 239 252 291> 314.609 77.391<154.141 239.099>
VStem: 29.7344 90.2656<176.797 178 234 281.271> 29.7344 10<44.8031 121.878> 118 10<-73.6516 8.43266> 239 10<88 178 233.988 305.423> 301 10<-87.7756 -1.83069> 364 10<-64.2188 27.0168> 373 10<121.856 178>
LayerCount: 2
Fore
SplineSet
177.078 388.906 m 0xfae0
 188.501 391.091 202.906 392.656 217.125 392 c 0
 313.688 387.516 374.844 318.062 380.984 207.344 c 1
 383.438 178 l 1
 383 178 l 1
 383 83 l 1
 383 78 l 1xfad0
 374.948 78 l 1
 375 76.0625 l 2
 375 60.3281 374.907 40.3938 374.141 36.6562 c 0
 374.103 36.4721 374.056 36.2835 374 36.0918 c 2
 374 -63 l 1
 374 -63.6094 l 1
 373.844 -64.2188 l 2
 373.75 -64.6406 373.406 -65.9844 371.75 -67.5938 c 0
 363.375 -75.6719 320.734 -95.2188 307.625 -99.7344 c 0
 284.266 -107.75 256.328 -111.188 228.656 -111.188 c 0
 187 -111.188 145.734 -103.188 120.344 -87.2344 c 0
 62.0312 -50.5938 29.7344 17.5469 29.7344 90.5156 c 2
 29.7344 190.516 l 2
 29.7344 222.031 35.72 254.531 48.3594 285.875 c 0
 70.002 339.546 118.534 377.705 177.078 388.906 c 0xfae0
128 -80.1772 m 1xf9c0
 145.61 -90.3566 179.798 -101.188 228.656 -101.188 c 0
 254.082 -101.188 279.673 -98.1943 301 -91.3873 c 1
 301 -1.83069 l 1
 279.057 -8.29411 253.76 -11.1875 228.656 -11.1875 c 0
 190.959 -11.1875 153.581 -4.63586 128 8.43266 c 1
 128 -80.1772 l 1xf9c0
118 -73.6516 m 1
 118 14.2645 l 1
 79.8722 39.0729 53.1768 77.5212 39.7344 121.878 c 1
 39.7344 90.5156 l 2xfbc0
 39.7344 24.0611 67.6473 -37.9539 118 -73.6516 c 1
311 -87.7756 m 1
 330.03 -80.1602 357.87 -65.7168 364 -61.0469 c 1
 364 27.0168 l 1xf8e0
 349.841 18.5888 322.694 6.12822 311 1.52341 c 1
 311 -87.7756 l 1
249 88 m 1
 312.838 88 l 1
 327.689 93.6003 341.614 100.421 353.188 108.141 c 2
 373 121.856 l 1
 373 178 l 1xf8d0
 249 178 l 1
 249 88 l 1
239 88 m 1
 239 178 l 1
 116.766 178 l 1
 116.938 176.797 l 1
 124.695 133.768 141.498 105.126 170.3 88 c 1
 239 88 l 1
252 233.988 m 1
 271.722 234.096 284.739 234.649 291 235.701 c 1
 291 251.405 l 1
 288.541 261.237 280.932 291.138 252 305.423 c 1
 252 233.988 l 1
242 233.97 m 1
 242 309.45 l 1
 231.926 312.81 221.862 314.609 212 314.609 c 0
 169.582 314.609 130.794 284.533 120 238.423 c 1
 120 234 l 1
 207 234 l 2
 220.46 234 232.053 233.974 242 233.97 c 1
280.178 78 m 1
 192.042 78 l 1
 196.529 76.4378 201.232 75.0597 206.156 73.8594 c 0
 213.047 72.1875 221.172 71.4844 230.078 71.4844 c 0
 245.286 71.4844 262.676 73.812 280.178 78 c 1
EndSplineSet
Validated: 33
EndChar

StartChar: uni0066
Encoding: 102 102 71
Width: 212
Flags: W
HStem: -105 10<65 94 104 132> 206 10<12 29 39 55 176 200> 306 80<12 29 39 55 143 145 165.465 166 176 200> 402.156 10<184.996 227 237 245> 502.156 85.594<162.33 227>
VStem: 2 10<216 306> 29 10<216 306> 55 10<-95 -5> 94 10<-95 -5> 132 10<-95 -5> 145 10<389.754 427.522> 166 10<216 306> 200 10<216 306> 227 10<410.896 499.289> 245 10<408.219 498.796>
LayerCount: 2
Fore
SplineSet
176 216 m 1
 200 216 l 1
 200 306 l 1
 176 306 l 1
 176 216 l 1
162.328 583.703 m 0
 169.11 585.966 180.703 587.75 199 587.75 c 0
 214.047 587.75 230 586.516 241.188 583.859 c 2
 257 579.906 l 1
 257 539 l 2
 256.984 531.641 256.765 509.378 255.375 502.234 c 0
 255.312 501.908 255.205 501.381 255 500.785 c 2
 255 402 l 1
 255 397 l 1
 250 397 l 2
 248.547 397 240.625 399.016 231.453 400.031 c 2
 231.156 400.062 l 1
 230.891 400.125 l 2
 224.844 401.5 218.734 402.156 212.719 402.156 c 0
 196.878 402.156 178.051 397.132 165.465 386 c 1
 210 386 l 1
 210 311 l 1
 210 306 l 1
 210 211 l 1
 210 206 l 1
 205 206 l 1
 171 206 l 1
 166 206 l 1
 166 211 l 1
 166 306 l 1
 142 306 l 1
 142 211 l 1
 142 0 l 1
 142 -5 l 1
 142 -100 l 1
 142 -105 l 1
 137 -105 l 1
 99 -105 l 1
 55 -105 l 1
 55 -100 l 1
 55 -5 l 1
 55 0 l 1
 55 206 l 1
 7 206 l 1
 2 206 l 1
 2 211 l 1
 2 306 l 1
 2 311 l 1
 2 386 l 1
 55.1875 386 l 1
 56 408.25 l 1
 62.1562 509.828 93.3837 560.693 162.328 583.703 c 0
39 216 m 1
 55 216 l 1
 55 306 l 1
 39 306 l 1
 39 216 l 1
29 216 m 1
 29 306 l 1
 12 306 l 1
 12 216 l 1
 29 216 l 1
104 -95 m 1
 132 -95 l 1
 132 -5 l 1
 104 -5 l 1
 104 -95 l 1
94 -95 m 1
 94 -5 l 1
 65 -5 l 1
 65 -95 l 1
 94 -95 l 1
155 389.754 m 1
 168.236 403.923 189.886 412.156 212.719 412.156 c 0
 217.447 412.156 222.208 411.625 227 410.896 c 1
 227 500.91 l 1
 222.232 501.751 217.446 502.156 212.719 502.156 c 0
 187.45 502.156 162.979 490.119 155 471.995 c 1
 155 389.754 l 1
237 409.288 m 1
 240.603 408.785 243.183 408.566 245 408.219 c 1
 245 497.881 l 1
 242.796 498.305 240.031 498.822 237 499.289 c 1
 237 409.288 l 1
143 386 m 1
 145 386 l 1
 145 427.522 l 2
 144.187 420.715 143.517 413.668 143 406.719 c 2
 143 386 l 1
EndSplineSet
Validated: 1
EndChar

StartChar: uni0067
Encoding: 103 103 72
Width: 360
Flags: W
HStem: -298.25 10<123.763 231.938> -125.294 10.1225<165.149 167.909> 207.062 10<148.57 199.753> 214 10<324 350> 314 72<132.144 200.578 292.781 314 324 350>
VStem: -5.26562 10<-204.059 -118.576> 26 10<-233.867 -158.22 124.218 199.634> 28.3125 79.6875<202.063 290.556> 51.7969 10<20.3283 47.8581> 119 10<-116.802 -29.826> 181 10<54.0722 105.881> 201 10<212.371 296.88> 212 10<-119.76 -32.5908> 242.031 81.969<224.228 290.038> 274.016 85.172<-110.085 -46.5984> 282 10<73.5094 146.496> 312.656 10<107.24 190.686 282.973 314> 318 10<-234.768 -159.228 282.973 314> 350 10<-200.814 -173.812 224 314>
LayerCount: 2
Fore
SplineSet
224.703 -121.172 m 0xcc7a
 259.356 -112.253 274.016 -95.0625 274.016 -79.3281 c 0
 274.016 -61.0448 255.497 -42.7135 222 -32.5908 c 1
 222 -121.808 l 1
 223.136 -121.562 224.032 -121.345 224.703 -121.172 c 0xcc7a
172.5 383.969 m 0
 183.142 385.024 227.828 386 273 386 c 2
 360 386 l 1
 360 319 l 1
 360 314 l 1
 360 219 l 1
 360 214 l 1
 322.656 214 l 1
 322.656 139.375 l 2xdd78a0
 322.656 109.344 311.119 78.5835 290.734 55.6875 c 0
 282.63 46.5856 274.53 39.1888 264.8 33.0119 c 1
 290.273 26.188 300.259 21.9853 310.688 15.2188 c 0
 342.842 -5.64354 359.188 -39.7188 359.188 -73.8125 c 0xdc7a
 359.188 -100.67 349.027 -128.092 328 -150.027 c 1
 328 -234.768 l 1xdc7840
 342.356 -216.313 349.188 -194.873 349.188 -173.812 c 1
 359.188 -173.812 l 1
 359.188 -201.281 348.559 -229.341 326.547 -251.516 c 0
 287.729 -290.62 216.656 -298.25 178.422 -298.25 c 0
 119.328 -298.25 59.7263 -283.008 27.4531 -250.516 c 0
 5.22395 -228.136 -5.26562 -201.141 -5.26562 -175.016 c 2
 -5.26562 -75.0156 l 2
 -5.26562 -38.6555 15.2898 -4.33039 51.7969 15.4539 c 1
 51.7969 75.4777 l 1xdcfa
 36.371 97.391 28.3125 122.306 28.3125 148.031 c 2
 28.3125 248.031 l 2xdd78
 28.3125 269.016 33.6618 290.513 44.5781 311.328 c 0
 59.195 339.199 92.2395 376.011 172.5 383.969 c 0
36 -244.913 m 1xce7840
 65.4519 -273.21 122.004 -288.25 178.422 -288.25 c 0
 233.9 -288.25 289.076 -273.732 318 -245.915 c 1
 318 -159.228 l 1
 278 -191.645 213.996 -198.25 178.422 -198.25 c 0
 124.212 -198.25 69.5755 -185.424 36 -158.22 c 1
 36 -244.913 l 1xce7840
26 -233.867 m 1
 26 -149.029 l 1
 16.8727 -139.537 9.8151 -129.25 4.73438 -118.576 c 1
 4.73438 -175.016 l 2
 4.73438 -194.9 11.4119 -215.447 26 -233.867 c 1
292 73.5094 m 1xcc7980
 305.214 92.8655 312.656 116.536 312.656 139.375 c 2
 312.656 190.686 l 1
 307.554 178.543 300.595 167.135 292 157.137 c 1
 292 73.5094 l 1xcc7980
282 60.9066 m 1
 282 146.496 l 1
 263.756 128.809 242.481 118.42 191 107.908 c 1
 191 51.3699 l 1
 198.758 49.3378 207.455 47.1875 217.172 44.8594 c 2
 250.894 36.617 l 1
 263.375 42.8939 272.442 50.3986 282 60.9066 c 1
324 224 m 1xdc7c20
 350 224 l 1
 350 314 l 1
 324 314 l 1
 324 224 l 1xdc7c20
211 208.171 m 1
 215.157 206.138 219.024 203.872 222.579 201.341 c 1
 235.664 212.997 242.031 228.796 242.031 244.719 c 0
 242.031 264.855 231.722 284.927 211 296.88 c 1
 211 208.171 l 1
201 212.371 m 1
 201 301.68 l 1
 192.001 305.249 182.934 307.062 174.109 307.062 c 0
 139.281 307.062 108.36 281.031 108 244.953 c 0
 107.825 227.392 115.306 212.339 127.166 201.554 c 1
 140.335 211.406 156.79 217.062 174.109 217.062 c 0xed78
 182.984 217.062 192.035 215.519 201 212.371 c 1
129 -116.802 m 1
 135.4 -115.77 144.264 -115.172 156.375 -115.172 c 0
 175.317 -115.172 196.914 -116.784 212 -119.76 c 1
 212 -29.9731 l 1
 198.151 -27.0591 175.528 -25.1719 156.375 -25.1719 c 0
 145.395 -25.1719 135.34 -25.8652 129 -26.9935 c 1
 129 -116.802 l 1
167.909 -125.38 m 1
 166.987 -125.348 166.066 -125.319 165.149 -125.294 c 1
 166.051 -125.327 166.971 -125.355 167.909 -125.38 c 1
119 -117.545 m 1
 119 -29.826 l 1
 90.7038 -39.7219 78.2031 -56.9795 78.2031 -73.1094 c 0
 78.2031 -89.3585 91.0989 -107.06 119 -117.545 c 1
135.44 195.174 m 1
 146.647 187.876 160.346 183.734 174.703 183.734 c 0
 185.641 183.734 196.938 186.172 207.797 191.484 c 0
 210.011 192.57 212.114 193.743 214.109 194.995 c 1
 210.982 196.996 207.589 198.806 203.969 200.438 c 0
 194.031 204.891 183.906 207.062 174.109 207.062 c 0
 159.97 207.062 146.482 202.725 135.44 195.174 c 1
38.3125 199.634 m 1
 38.3125 148.031 l 2
 38.3125 127.897 43.6412 108.351 54.0804 90.4222 c 1
 59.1835 105.087 72.8362 118.208 95 127.389 c 1
 95 134.292 l 1
 68.251 151.988 49.0512 174.578 38.3125 199.634 c 1
61.7969 47.8581 m 1xccf8
 61.7969 20.3283 l 1
 65.4015 21.9003 69.1371 23.3406 73 24.6395 c 1
 73 34.8458 l 1
 68.606 39.0802 64.8609 43.4311 61.7969 47.8581 c 1xccf8
181 54.0722 m 1
 181 105.881 l 1
 147.922 98.9409 134.438 92.5668 134.438 83.75 c 0
 134.438 80.7031 135.802 77.5806 136.5 76.1875 c 0
 140.687 67.8308 153.932 61.6486 181 54.0722 c 1
314 282.973 m 1
 314 314 l 1
 292.781 314 l 1
 296.906 309.109 l 2
 305.908 297.11 310.784 289.963 314 282.973 c 1
EndSplineSet
Validated: 33
EndChar

StartChar: uni0068
Encoding: 104 104 73
Width: 424
Flags: W
HStem: -105 10<57 85 95 124 301 330 340 368> 219.859 10<210.217 247.818> 319.859 72.422<189.621 270.853> 562 20G<47 134>
VStem: 47 10<-95 -5> 85 10<-95 -5> 124 10<-95 -5> 143 10<199.453 276.819> 200 10<229.011 316.55> 278 10<205.272 258.454> 291 10<-95 -5> 330 10<-95 -5> 368 10<-95 -5>
LayerCount: 2
Fore
SplineSet
95 -95 m 1
 124 -95 l 1
 124 -5 l 1
 95 -5 l 1
 95 -95 l 1
85 -95 m 1
 85 -5 l 1
 57 -5 l 1
 57 -95 l 1
 85 -95 l 1
210 229.011 m 1
 214.173 229.611 218.322 229.859 222.359 229.859 c 0
 244.199 229.859 264.243 221.186 278 205.272 c 1
 278 287.767 l 1
 266.716 308.661 246.193 319.859 222.359 319.859 c 0
 218.322 319.859 214.202 319.594 210 318.897 c 1
 210 229.011 l 1
200 226.906 m 1
 200 316.55 l 1
 183.758 311.876 172.467 304.325 153 285.861 c 1
 153 199.453 l 1
 170.182 214.803 182.956 222.374 200 226.906 c 1
288 190.206 m 1
 289.039 188.179 289.995 186.247 290.875 184.33 c 1
 290.633 223.798 289.937 244.807 288 258.454 c 1
 288 190.206 l 1
340 -95 m 1
 368 -95 l 1
 368 -5 l 1
 340 -5 l 1
 340 -95 l 1
330 -95 m 1
 330 -5 l 1
 301 -5 l 1
 301 -95 l 1
 330 -95 l 1
47 -5 m 1
 47 0 l 1
 47 582 l 1
 134 582 l 1
 134 344.078 l 1
 136.531 346.594 l 1
 169.359 377.047 209.031 392.281 246.766 392.281 c 0
 290.453 392.281 331.703 371.75 356.266 331.609 c 0
 376.156 299.094 378 273.672 378 122 c 2
 378 0 l 1
 378 -5 l 1
 378 -100 l 1
 378 -105 l 1
 373 -105 l 1
 335 -105 l 1
 291 -105 l 1
 291 -100 l 1
 291 -5 l 1
 291 0 l 1
 291 23 l 2
 291 158.453 290.344 163.906 278.562 186.703 c 0
 267.406 208.281 246.594 219.859 222.359 219.859 c 0
 217.078 219.859 211.656 219.406 206.094 218.125 c 0
 185.875 213.422 174.312 206.25 151.453 184.391 c 2
 143 176.297 l 1
 143 188 l 1
 143 276.819 l 1
 134 268.766 l 1
 134 171 l 1
 134 0 l 1
 134 -5 l 1
 134 -100 l 1
 134 -105 l 1
 90 -105 l 1
 52 -105 l 1
 47 -105 l 1
 47 -100 l 1
 47 -5 l 1
EndSplineSet
Validated: 1
EndChar

StartChar: uni0069
Encoding: 105 105 74
Width: 188
Flags: W
HStem: -105 10<59 89 99 128> 444.234 100.469<74.2921 133.8>
VStem: 49 10<-95 -5 386.131 464.419> 64 10<386 448.395> 89 10<-95 -5> 128 10<-95 -5> 134.391 10<386.297 464.957>
LayerCount: 2
Fore
SplineSet
55.1101 386 m 1xf8
 64 386 l 1
 64 454.479 l 1
 60.1819 457.449 56.9235 460.8 54.2188 464.419 c 1
 54.2188 394.5 l 2
 54.2188 391.652 54.5133 388.801 55.1101 386 c 1xf8
133.469 386 m 1
 134.072 388.644 134.391 391.391 134.391 394.219 c 2
 134.391 464.957 l 1xfa
 124.721 452.268 109.213 444.234 93.1719 444.234 c 0
 86.745 444.234 80.2266 445.568 74 448.395 c 1
 74 386 l 1
 133.469 386 l 1
138 -5 m 1xfc
 138 -100 l 1
 138 -105 l 1xfc
 94 -105 l 1
 54 -105 l 1
 49 -105 l 1
 49 -100 l 1
 49 -5 l 1
 49 0 l 1
 49 373.029 l 1
 45.7813 379.85 44.2188 387.203 44.2188 394.5 c 2
 44.2188 494.5 l 2
 44.2188 513.812 55.3525 533.104 76.125 541.625 c 0
 81.3303 543.76 86.8594 544.703 92.2969 544.703 c 0
 116.344 544.703 140.278 526.357 143.953 500.688 c 0
 144.264 498.515 144.391 496.344 144.391 494.219 c 2
 144.391 394.219 l 2xfa
 144.391 385.578 142.011 377.493 138 370.504 c 1
 138 0 l 1
 138 -5 l 1xfc
89 -95 m 1
 89 -5 l 1
 59 -5 l 1
 59 -95 l 1
 89 -95 l 1
99 -95 m 1
 128 -95 l 1
 128 -5 l 1
 99 -5 l 1
 99 -95 l 1
EndSplineSet
Validated: 1
EndChar

StartChar: uni006A
Encoding: 106 106 75
Width: 184
Flags: W
HStem: 444.188 100.343<65.3323 126.214>
VStem: -9.125 9.79688<-241.337 -151.488> 36.4531 10<386.15 464.271> 45 10<-283.263 -194.714> 55 10<386 449.204> 102 10<-210.804 -151.03> 119.814 10.2018<-194.787 -118.48> 126.656 10<386.244 464.107>
LayerCount: 2
Fore
SplineSet
51.0156 -188.047 m 2xcc
 51.2812 -188.203 l 2
 51.4683 -188.313 51.2969 -188.172 51.0156 -188.047 c 2xcc
55 -285.67 m 1
 66.7439 -278.102 90.8026 -253.787 102 -231.811 c 1
 102 -151.03 l 1
 87.6427 -171.832 66.7125 -192.301 55 -196.938 c 1xdc
 55 -285.67 l 1
45 -283.263 m 1
 45 -196.039 l 1
 36.3944 -190.023 13.8098 -166.694 0.843748 -151.488 c 1
 0.671875 -235.031 l 1
 3.18494 -240.294 30.8486 -270.652 45 -283.263 c 1
112 -210.804 m 1
 117.667 -196.141 119.327 -178.674 119.814 -118.48 c 1xce
 117.683 -123.244 115.109 -127.994 112 -134.188 c 1
 112 -210.804 l 1
-9.125 -136.297 m 0
 -9.125 -135.406 -7.375 -132.172 -6.60938 -131.734 c 0
 14.2014 -119.828 28.6406 -108.391 37.375 -87.0938 c 0
 42.4375 -74.75 42 -75.2344 43 153.016 c 2
 43.9368 367.921 l 1
 38.8945 375.982 36.4531 385.144 36.4531 394.234 c 2
 36.4531 494.234 l 2
 36.4531 513.859 47.9309 533.477 69.2031 541.656 c 0
 74.2677 543.603 79.5469 544.531 84.8438 544.531 c 0
 106.953 544.531 129.25 529.312 134.844 507.25 c 0
 136.016 502.609 136.656 498.109 136.656 493.688 c 2
 136.656 393.688 l 2xed
 136.656 386.818 135.206 378.798 130.952 370.819 c 1
 130.016 147.984 l 2
 130.016 123.141 130.016 100.828 130.016 80.75 c 2
 130.016 -19.25 l 2
 130.016 -211.656 128.953 -199.734 111.484 -235.219 c 0
 99.4375 -259.656 67.2656 -293.672 53.25 -297.531 c 0
 52.1562 -297.828 51.9531 -297.938 50 -298 c 0
 48.0625 -298.062 46.5312 -297 46.2969 -296.875 c 0
 36.3906 -291.172 -4.2746 -247.825 -8.34375 -239.359 c 0
 -9.21732 -237.542 -9.12105 -237.141 -9.125 -236.297 c 0
 -9.28125 -202.953 -9.125 -169.625 -9.125 -136.297 c 0
125.895 386 m 1
 126.393 388.472 126.656 391.04 126.656 393.688 c 2
 126.656 464.107 l 1
 117.319 451.874 102.478 444.188 86.6406 444.188 c 0
 79.4761 444.188 72.0835 445.772 65 449.204 c 1
 65 386 l 1
 125.895 386 l 1
47.2936 386 m 1
 55 386 l 1
 55 455.516 l 1
 51.7574 458.112 48.8968 461.054 46.4531 464.271 c 1
 46.4531 394.234 l 2
 46.4531 391.471 46.7313 388.711 47.2936 386 c 1
EndSplineSet
Validated: 33
EndChar

StartChar: uni006B
Encoding: 107 107 76
Width: 406
Flags: W
HStem: -105 10<58 87 97 125 326 368 378 419> 562 20G<48 135.104>
VStem: 48 10<-95 -5> 87 10<-95 -5> 125 10<-95 -5> 221 10<-0.953125 84.7427> 307 10<200.489 273.734> 316 10<-87.7558 -5> 368 10<-95 -5> 387 10<281.859 366.517> 419 10<-95 -5>
LayerCount: 2
Fore
SplineSet
48 -5 m 1xfce0
 48 -0.0268576 l 1
 48 582 l 1
 135 582 l 1
 136.938 207.922 l 1
 297.781 386 l 1
 346 386 l 2
 364.328 386 387.375 385.969 391.812 385.281 c 0
 396.5 384.547 397 381.062 397 380 c 2
 397 378.141 l 1
 397 280 l 1
 397 278.141 l 1
 395.797 276.734 l 2
 369.125 245.734 342.422 214.719 315.766 183.719 c 2
 284.14 147.553 l 1
 331.531 100.547 l 1
 435.984 -5 l 1
 429 -5 l 1
 429 -100 l 1
 429 -105 l 1
 373 -105 l 1
 321 -105 l 1
 318.906 -105 l 1
 317.422 -103.5 l 2
 285.766 -71.1719 254.094 -38.8281 222.422 -6.5 c 2
 221 -5.04688 l 1
 221 -3 l 1
 221 94.937 l 1
 136 180.844 l 1
 136 97 l 1
 136 96.9688 l 1
 135 -0.0268576 l 2
 135 -1.59048 135 -3.15411 135 -4.71773 c 0
 135 -36.4785 135 -68.2392 135 -100 c 2
 135 -105 l 1
 130 -105 l 1
 92 -105 l 1
 48 -105 l 1
 48 -100 l 1
 48 -5 l 1xfce0
307 188.888 m 1xfee0
 307 273.734 l 1
 277.154 239.685 246.887 204.631 238.422 194.203 c 1
 277.062 154.663 l 1
 307 188.888 l 1xfee0
317 200.489 m 1
 387 281.859 l 1
 387 366.517 l 1
 317 285.154 l 1
 317 200.489 l 1
378 -95 m 1
 419 -95 l 1
 419 -5 l 1
 378 -5 l 1
 378 -95 l 1
316 -87.7558 m 1xfde0
 316 -2.03304 l 1
 231 84.7427 l 1
 231 -0.953125 l 1
 316 -87.7558 l 1xfde0
326 -95 m 1
 368 -95 l 1
 368 -5 l 1
 326 -5 l 1
 326 -95 l 1
87 -95 m 1
 87 -5 l 1
 58 -5 l 1
 58 -95 l 1
 87 -95 l 1
97 -95 m 1
 125 -95 l 1
 125 -5 l 1
 97 -5 l 1
 97 -95 l 1
EndSplineSet
Validated: 1
EndChar

StartChar: uni006C
Encoding: 108 108 77
Width: 189
Flags: W
HStem: -105 10<61 90 100 128> 562 20G<51 138>
VStem: 51 10<-95 -5> 90 10<-95 -5> 128 10<-95 -5>
LayerCount: 2
Fore
SplineSet
100 -95 m 1
 128 -95 l 1
 128 -5 l 1
 100 -5 l 1
 100 -95 l 1
90 -95 m 1
 90 -5 l 1
 61 -5 l 1
 61 -95 l 1
 90 -95 l 1
51 -5 m 1
 51 0 l 1
 51 582 l 1
 138 582 l 1
 138 0 l 1
 138 -5 l 1
 138 -100 l 1
 138 -105 l 1
 133 -105 l 1
 95 -105 l 1
 51 -105 l 1
 51 -100 l 1
 51 -5 l 1
EndSplineSet
Validated: 1
EndChar

StartChar: uni006D
Encoding: 109 109 78
Width: 652
Flags: W
HStem: -105 10<55 84 94 122 293 321 331 360 531 559 569 598> 215.219 10<182.162 244.495 424.834 476.738> 317.438 75.078<172.693 255.52 403.216 497.476>
VStem: 45 10<-95 -5> 84 10<-95 -5> 122 10<-95 -5> 138 10<201.031 278.458> 245 10<221.688 305.63> 281.229 98.771<196.016 299.422> 283 10<-95 -5> 321 10<-95 -5> 360 10<-95 -5> 521 10<-95 -5> 559 10<-95 -5> 598 10<-95 -5>
LayerCount: 2
Fore
SplineSet
559 -95 m 1xff0e
 559 -5 l 1
 531 -5 l 1
 531 -95 l 1
 559 -95 l 1xff0e
569 -95 m 1
 598 -95 l 1
 598 -5 l 1
 569 -5 l 1
 569 -95 l 1
321 -95 m 1xff6e
 321 -5 l 1
 293 -5 l 1
 293 -95 l 1
 321 -95 l 1xff6e
331 -95 m 1
 360 -95 l 1
 360 -5 l 1xff3e
 331 -5 l 1
 331 -95 l 1
255 217.06 m 1
 267.622 210.489 275.837 204.052 281.229 190.364 c 1xff8e
 279.614 277.246 275.138 293.602 255 305.63 c 1
 255 217.06 l 1
84 -95 m 1
 84 -5 l 1
 55 -5 l 1
 55 -95 l 1
 84 -95 l 1
94 -95 m 1
 122 -95 l 1
 122 -5 l 1
 94 -5 l 1
 94 -95 l 1
216.953 390.891 m 1
 222.485 392.123 228.359 392.516 234.266 392.516 c 0
 273.75 392.516 319.547 369.016 343.969 336.031 c 2
 349.438 328.375 l 1
 351.25 329.812 353.935 332.143 357.625 335.688 c 0
 395.562 372.125 437.047 392.516 476.734 392.516 c 0
 486.438 392.516 495.969 391.234 505.266 388.844 c 0
 549.484 377.438 577.289 353.169 592.719 308.625 c 0
 605.26 272.42 608 0 608 0 c 2
 608 -1.61363 608 -3.25617 608 -4.86982 c 0
 608 -4.91322 608 -4.95661 608 -5 c 2
 608 -100 l 1
 608 -105 l 1
 564 -105 l 1
 526 -105 l 1
 521 -105 l 1
 521 -100 l 2
 521 -68.2626 521 -36.5252 521 -4.7877 c 0
 521 -3.19174 521 -1.59587 521 0 c 2
 520.835 21.1081 l 2
 520.312 21.8941 520.012 22.881 520 23.9531 c 0
 518.789 131.936 518.125 149.891 515.141 161.812 c 0
 506.359 196.844 481.766 215.219 452.109 215.219 c 0
 429.469 215.219 403.203 204.453 378.406 181.344 c 2
 370 173.5 l 1
 370 0 l 1
 370 -5 l 1
 370 -100 l 1
 370 -105 l 1
 326 -105 l 1
 288 -105 l 1
 283 -105 l 1
 283 -100 l 2
 283 -68.2626 283 -36.5252 283 -4.7877 c 0
 283 -3.19174 283 -1.59587 283 0 c 2xff5e
 282.835 21.1081 l 2
 282.308 21.8966 282.007 22.8676 282 23.9531 c 2
 282 24 l 2
 281.015 183.252 279.216 193.798 247.766 209.531 c 0
 235.922 215.453 224.625 217.438 214.703 217.438 c 0
 192.125 217.438 168.422 207.047 146.422 186.359 c 2
 138 178.422 l 1
 138 190 l 1
 138 278.458 l 1
 132 272.828 l 1
 132 175 l 1
 132 0 l 1
 132 -5 l 1
 132 -100 l 1
 132 -105 l 1
 127 -105 l 1
 89 -105 l 1
 45 -105 l 1
 45 -100 l 1
 45 -5 l 1
 45 0 l 1
 45 386 l 1
 132 386 l 1
 132 358.109 l 1
 132.578 344.688 l 1
 140.906 350.922 l 1
 165.5 371.422 216.953 390.891 216.953 390.891 c 1
148 201.031 m 1
 169.109 218.25 192.047 227.438 214.703 227.438 c 0
 224.994 227.438 235.183 225.531 245 221.688 c 1
 245 310.848 l 1
 234.165 315.751 223.85 317.438 214.703 317.438 c 0
 192.663 317.438 169.581 307.492 148 287.818 c 1
 148 201.031 l 1
380 196.016 m 1xff8e
 403.812 215.531 429.016 225.219 452.109 225.219 c 0
 478.201 225.219 501.18 212.914 515 189.025 c 1
 515 262.367 l 1
 506.099 297.038 481.609 315.219 452.109 315.219 c 0
 429.934 315.219 404.342 304.951 380 282.816 c 1
 380 196.016 l 1xff8e
EndSplineSet
Validated: 1
EndChar

StartChar: uni006E
Encoding: 110 110 79
Width: 424
Flags: W
HStem: -105 10<57 86 96 126 301 330 340 368> 216.609 10<196.343 251.733> 316.609 75.547<170.13 273.036>
VStem: 47 10<-95 -5> 86 10<-95 -5> 126 10<-95 -5> 138 10<195.172 270.214> 275 10<208.866 272.015> 291 10<-95 -5> 330 10<-95 -5> 368 10<-95 -5>
LayerCount: 2
Fore
SplineSet
148 195.172 m 1
 170.625 215.891 199.375 226.609 225.562 226.609 c 0
 244.441 226.609 262.228 220.864 275 208.866 c 1
 275 293.503 l 1
 264.707 308.802 246.655 316.609 225.562 316.609 c 0
 199.496 316.609 169.57 304.435 148 281.071 c 1
 148 195.172 l 1
215.938 388.891 m 0
 225.844 391 235.625 392.156 245.297 392.156 c 0
 303.688 392.156 355.375 353.391 369.844 296.234 c 0
 376.922 268.266 378 240.938 378 121 c 2
 378 0 l 1
 378 -5 l 1
 378 -100 l 1
 378 -105 l 1
 373 -105 l 1
 335 -105 l 1
 291 -105 l 1
 291 -100 l 1
 291 -5 l 1
 291 0 l 1
 291 25.9688 l 1
 290 164.469 288.82 171.651 275.766 192.328 c 0
 265.618 208.402 247.188 216.609 225.562 216.609 c 0
 198.969 216.609 168.393 203.967 146.734 179.672 c 2
 138 169.875 l 1
 138 183 l 1
 138 270.214 l 1
 136 268.047 l 1
 136 170 l 1
 136 0 l 1
 136 -5 l 1
 136 -100 l 1
 136 -105 l 1
 131 -105 l 1
 91 -105 l 1
 47 -105 l 1
 47 -100 l 1
 47 -5 l 1
 47 0 l 1
 47 386 l 1
 136 386 l 1
 136 345.219 l 1
 137.609 346.672 l 2
 158.438 366.469 190.688 383.516 215.938 388.891 c 0
96 -95 m 1
 126 -95 l 1
 126 -5 l 1
 96 -5 l 1
 96 -95 l 1
86 -95 m 1
 86 -5 l 1
 57 -5 l 1
 57 -95 l 1
 86 -95 l 1
285 196.448 m 1
 287.073 193.11 288.861 189.987 290.407 186.656 c 1
 289.689 236.314 288.401 258.391 285 272.015 c 1
 285 196.448 l 1
340 -95 m 1
 368 -95 l 1
 368 -5 l 1
 340 -5 l 1
 340 -95 l 1
330 -95 m 1
 330 -5 l 1
 301 -5 l 1
 301 -95 l 1
 330 -95 l 1
EndSplineSet
Validated: 1
EndChar

StartChar: uni006F
Encoding: 111 111 80
Width: 464
Flags: W
HStem: -111.156 10<185.846 276.996> -11.1562 81.75<162.364 304.299> 205.312 10<197.371 253 263 267.943> 305.312 80.594<174.013 277.839>
VStem: 26.2969 88.0471<150.901 256.964> 26.2969 10<51.39 88.2344> 352.141 87.703<150.587 255.399> 429.844 10<42.2121 83.7031>
LayerCount: 2
Fore
SplineSet
124.618 137.341 m 1xf0
 133.831 158.695 149.179 177.281 170.516 189.672 c 0
 187.25 199.39 211.391 205.312 234 205.312 c 0
 242 205.312 249.797 204.53 257.016 203.094 c 0
 296.837 195.17 326.466 169.871 341.381 137.307 c 1
 339.484 133.156 l 2
 320.561 93.5164 278.141 70.5938 233.516 70.5938 c 0
 210.719 70.5938 187.484 76.6719 166.594 89.2812 c 0
 147.204 100.985 133.214 117.934 124.618 137.341 c 1xf0
253 213.937 m 1
 246.844 214.843 240.471 215.312 234 215.312 c 0
 212.799 215.312 190.742 210.679 173 202.271 c 1
 173 291.057 l 1
 189.588 299.948 212.487 305.312 234 305.312 c 0
 240.537 305.312 246.938 304.789 253 303.815 c 1
 253 213.937 l 1
263 212.044 m 1
 263 301.755 l 1
 317.985 288.056 352.141 240.321 352.141 187.734 c 0xf2
 352.141 175.294 350.203 162.593 346.174 149.996 c 1
 329.502 180.124 300.509 203.406 263 212.044 c 1
163 284.882 m 1
 163 196.843 l 1
 144.002 185.17 129.555 168.898 119.768 150.348 c 1
 116.151 162.13 114.344 174.533 114.344 187.016 c 0
 114.344 224.741 130.863 262.473 163 284.882 c 1
342 16.5747 m 1
 342 -72.0744 l 1
 306.205 -91.8508 267.86 -101.156 230.859 -101.156 c 0
 151.064 -101.156 78.0171 -58.0354 50 15.9188 c 1
 50 91.6161 l 1
 84.5688 26.1093 155.233 -11.1562 230.859 -11.1562 c 0
 267.859 -11.1562 306.112 -2.25038 342 16.5747 c 1
352 22.1241 m 1
 390.207 44.7163 416.552 80.1474 429.844 120.575 c 1
 429.844 83.7031 l 2xf1
 429.844 23.6431 402.566 -33.6579 352 -66.1378 c 1
 352 22.1241 l 1
40 114.093 m 1
 40 50.7975 l 1
 37.5167 63.4387 36.2969 75.952 36.2969 88.2344 c 2
 36.2969 124.937 l 1xf4
 37.4329 121.324 38.667 117.708 40 114.093 c 1
439.844 183.703 m 2xf2
 439.844 227.547 425.859 272.515 397 311 c 0
 362.483 357.03 295.656 385.906 231.516 385.906 c 0
 222.016 385.906 212.531 385.359 203.266 383.953 c 0
 96.5625 367.734 26.2969 284.703 26.2969 188.234 c 2xfa
 26.2969 88.2344 l 2
 26.2969 63.7812 30.8906 38.5156 40.3125 13.25 c 0
 69.7344 -65.625 147.266 -111.156 230.859 -111.156 c 0
 270.438 -111.156 311.451 -100.966 349.469 -79.3438 c 0
 408.325 -45.87 439.844 17.6562 439.844 83.7031 c 2xf5
 439.844 183.703 l 2xf2
EndSplineSet
Validated: 9
EndChar

StartChar: uni0070
Encoding: 112 112 81
Width: 424
Flags: W
HStem: -298 10<53 83 93 123> -111.391 10<160.824 248.776> -99.3458 10.1114<134 145> -11.3906 77.1875<155.583 265.401> 303.875 81.125<133 166 176 225.512>
VStem: 43 10<-288 -198> 83 10<-288 -198> 123 10<-288 -198> 145 10<-92.3758 -5.4234> 166 10<213.12 302.79> 226 10<208.927 296.659> 312 87.969<153.355 260.062> 365 10<10.6549 68.4452> 389.969 10<45.46 123.5>
LayerCount: 2
Fore
SplineSet
93 -288 m 1xffe0
 123 -288 l 1
 123 -198 l 1
 93 -198 l 1
 93 -288 l 1xffe0
83 -288 m 1
 83 -198 l 1
 53 -198 l 1
 53 -288 l 1
 83 -288 l 1
155 -95.139 m 1
 171.866 -99.3659 188.867 -101.391 205.609 -101.391 c 0
 273.594 -101.391 336.278 -67.698 365 -11.7938 c 1
 365 68.4452 l 1xffe8
 331.468 17.8761 270.542 -11.3906 205.609 -11.3906 c 0
 188.895 -11.3906 171.872 -9.44173 155 -5.4234 c 1
 155 -95.139 l 1
145 -92.3758 m 1
 145 -2.76792 l 1
 134 0.374964 l 1
 134 -89.2344 l 1
 145 -92.3758 l 1
375 10.6549 m 1
 385.048 36.8636 389.969 63.9809 389.969 90.3594 c 2
 389.969 123.5 l 1xffec
 386.114 110.751 381.132 98.1333 375 85.8107 c 1
 375 10.6549 l 1
176 212.802 m 1
 196.183 211.931 214.601 210.573 226 208.927 c 1
 226 298.826 l 1
 215.728 300.422 196.726 301.893 176 302.79 c 1
 176 212.802 l 1
166 213.12 m 1
 166 303.112 l 1
 133 303.875 l 1
 133 213.886 l 1
 166 213.12 l 1
236 206.99 m 1
 252.937 202.868 288.006 190.709 307.798 152.829 c 1
 310.543 164.041 312 176.138 312 189 c 0xfff0
 312 244.774 285.124 283.598 236 296.659 c 1
 236 206.99 l 1
303.397 138.435 m 1
 296.316 156.422 278.539 187.641 229.969 198.109 c 0
 220.702 200.106 196.641 202.016 170.844 203 c 2
 133 203.881 l 1
 133 193.016 l 1
 133.969 79.6094 l 1
 151.578 73.75 l 2
 167.818 68.3461 183.531 65.7969 198.359 65.7969 c 0
 247.054 65.7969 286.66 93.2759 303.397 138.435 c 1
43 -198 m 1
 43 -193 l 1
 43 386.062 l 1
 130.062 385 l 2
 229.998 383.781 265.184 378.57 308.281 356.438 c 0
 366.901 326.334 399.969 260.891 399.969 190.359 c 2xfff0
 399.969 90.3594 l 2xffe4
 399.969 55.1719 391.624 18.8128 374.469 -15.25 c 0
 343.983 -75.7807 277.234 -111.391 205.609 -111.391 c 0
 186.797 -111.391 167.579 -108.997 148.656 -103.812 c 2
 133 -99.3458 l 1
 133 -193 l 1
 133 -198 l 1
 133 -293 l 1
 133 -298 l 1
 128 -298 l 1
 88 -298 l 1
 48 -298 l 1
 43 -298 l 1
 43 -293 l 1
 43 -198 l 1
EndSplineSet
Validated: 1
EndChar

StartChar: uni0071
Encoding: 113 113 82
Width: 424
Flags: W
HStem: -298 10<304 332 342 371> -104.844 11.219<281 294> -11.2344 74.1094<163.96 270.335> 203 10<188.765 255 265 294> 303 83<158.474 255 265 294>
VStem: 24.9844 87.8746<151.395 257.705> 140 10<190.195 266.335> 255 10<213 303> 271 10<-93.625 -6.14615> 294 10<-288 -198> 332 10<-288 -198> 371 10<-288 -198>
LayerCount: 2
Fore
SplineSet
281 -3.91152 m 1
 281 -93.625 l 1
 287.333 -92.0884 291.435 -91.1568 294 -90.6251 c 1
 294 -55.7791 293.518 -21.3566 293.109 -0.9375 c 1
 281 -3.91152 l 1
122.344 136.96 m 1
 132.696 110.481 151.309 87.8438 177.125 75.5156 c 0
 195.938 66.5469 212.125 62.875 229.188 62.875 c 0
 242.938 62.875 257.344 65.4844 274.438 70.75 c 2
 294 77.5625 l 1
 294 203 l 1
 260 203 l 2
 190.25 203 172.578 198.469 148.453 175.391 c 0
 136.912 164.345 128.218 151.248 122.344 136.96 c 1
265 213 m 1
 294 213 l 1
 294 303 l 1
 265 303 l 1
 265 213 l 1
140 181.103 m 1
 140 266.335 l 1
 121.683 244.326 112.859 216.141 112.859 187.656 c 0
 112.859 175.219 114.524 162.771 117.766 150.835 c 1
 123.479 161.836 130.881 172.062 140 181.103 c 1
150 190.195 m 1
 171.652 208.139 192.741 212.775 255 213 c 1
 255 303 l 1
 190.831 302.78 172.795 298.09 150 276.85 c 1
 150 190.195 l 1
332 -288 m 1
 332 -198 l 1
 304 -198 l 1
 304 -288 l 1
 332 -288 l 1
342 -288 m 1
 371 -288 l 1
 371 -198 l 1
 342 -198 l 1
 342 -288 l 1
24.9844 185.406 m 0
 24.9844 297.266 94.6741 372.758 208.5 383.969 c 0
 219.11 385.014 260.828 386 301 386 c 2
 381 386 l 1
 381 -193 l 1
 381 -198 l 1
 381 -293 l 1
 381 -298 l 1
 337 -298 l 1
 299 -298 l 1
 294 -298 l 1
 294 -293 l 1
 294 -198 l 1
 294 -193 l 1
 294 -100.827 l 1
 288.674 -102.025 280.23 -104.105 277.219 -104.844 c 2
 271 -106.406 l 1
 271 -100 l 1
 271 -6.14615 l 1
 253.701 -9.57184 236.783 -11.2344 220.516 -11.2344 c 0
 108.5 -11.2344 25.8594 67 24.9844 182.953 c 0
 24.9844 183.781 24.9844 184.594 24.9844 185.406 c 0
EndSplineSet
Validated: 1
EndChar

StartChar: uni0072
Encoding: 114 114 83
Width: 336
Flags: W
HStem: -105 10<64 92 102 131> 206.562 10<197.29 245.483> 306.562 85.5<193.198 276.382>
VStem: 54 10<-95 -5> 92 10<-95 -5> 131 10<-95 -5> 146 10<177.938 232.972> 277 10<196.528 277.896> 293 10<195.768 277.34> 332.016 10<236.411 325.095>
LayerCount: 2
Fore
SplineSet
156 177.938 m 1
 172.672 202.969 194.906 216.562 220.344 216.562 c 0
 238.464 216.562 257.23 209.506 277 196.528 c 1
 277 284.441 l 1
 256.403 299.043 237.361 306.562 220.344 306.562 c 0
 194.676 306.562 172.391 290.619 156 257.839 c 1
 156 177.938 l 1
228.734 389.844 m 0
 234.531 391.344 240.641 392.062 246.969 392.062 c 0
 272.594 392.062 301.109 380.016 327.062 358.953 c 0
 333.91 353.396 340.328 348.734 340.375 348.688 c 0
 340.875 348.188 342.091 345.641 342.016 344.922 c 2
 342.016 244.922 l 2
 342.016 244.188 341.889 243.532 341.562 242.672 c 0
 339.614 237.551 307.609 182.438 301.531 175.469 c 0
 301.438 175.359 297.719 173.844 297.5 173.844 c 0
 296.906 173.844 296.312 173.906 295.562 174.109 c 0
 292.094 174.969 285.094 178.578 279.156 182.891 c 0
 257.701 198.475 237.953 206.562 220.344 206.562 c 0
 194.406 206.562 171.703 190.422 155.484 156.828 c 2
 146 137.141 l 1
 146 159 l 1
 146 232.972 l 1
 141.076 213.766 141 186.046 141 104 c 2
 141 4 l 1
 141 0 l 1
 141 -5 l 1
 141 -100 l 1
 141 -105 l 1
 97 -105 l 1
 59 -105 l 1
 54 -105 l 1
 54 -100 l 1
 54 -5 l 1
 54 0 l 1
 54 386 l 1
 139.875 386 l 1
 141.625 314.609 l 1
 145.922 320.891 l 1
 177.297 363.562 209.875 384.922 228.734 389.844 c 0
102 -95 m 1
 131 -95 l 1
 131 -5 l 1
 102 -5 l 1
 102 -95 l 1
92 -95 m 1
 92 -5 l 1
 64 -5 l 1
 64 -95 l 1
 92 -95 l 1
287 189.59 m 1
 289.338 187.992 291.343 186.781 293 185.882 c 1
 293 274.975 l 1
 291.27 275.671 289.195 276.677 287 277.896 c 1
 287 189.59 l 1
303 195.768 m 1
 312.995 211.841 328.507 237.596 332.016 244.922 c 1
 332.016 325.095 l 1
 322.188 308.137 307.793 284.555 303 277.473 c 1
 303 195.768 l 1
EndSplineSet
Validated: 1
EndChar

StartChar: uni0073
Encoding: 115 115 84
Width: 327
Flags: W
HStem: -110.25 10<108.221 206.618> -10.25 76.0312<151 204.251> 314.391 77.734<126.226 236.862>
VStem: 31 10<-72.6071 18.5179> 32.7188 92.2812<257.721 312.916> 32.7188 17.2812<147.877 231.015> 98 10<-93.3799 -6.26467> 141 10<69.8725 152.128> 207 10<-92.9102 -6.52693> 241 10<201.992 285.912> 269 10<188.094 276.908> 277 10<-18.154 35.8387> 288.656 10<-17.898 55.3026>
LayerCount: 2
Fore
SplineSet
108 -96.0412 m 1xe3c8
 115.647 -97.6745 131.697 -100.25 158.625 -100.25 c 0
 184.416 -100.25 199.79 -97.9195 207 -96.2057 c 1
 207 -6.52693 l 1
 194.611 -9.24115 176.816 -10.25 158.625 -10.25 c 0
 132.909 -10.25 116.732 -7.99314 108 -6.26467 c 1
 108 -96.0412 l 1xe3c8
98 -93.3799 m 1
 98 -3.77964 l 1
 81.1006 1.22327 54.5521 11.9562 41 18.5179 c 1
 41 -70.2969 l 1xf3c8
 47.9307 -73.8468 77.6709 -87.0853 98 -93.3799 c 1
217 -92.9102 m 1
 241.112 -83.8598 264.457 -69.8243 277 -45.7865 c 1
 277 35.8387 l 1xe1d8
 263.621 18.7784 243.602 5.87918 217 -3.56145 c 1
 217 -92.9102 l 1
287 -18.154 m 1
 288.104 -12.6929 288.656 -7.29307 288.656 -1.9375 c 2
 288.656 55.3026 l 1
 287 51.817 l 1
 287 -18.154 l 1
251 197.087 m 1
 269 188.094 l 1
 269 276.908 l 1xe1e8
 251 285.912 l 1
 251 197.087 l 1
241 201.992 m 1
 241 290.899 l 1
 208.846 306.637 181.079 314.391 160.875 314.391 c 0
 139.678 314.391 129.198 306.345 125 295.141 c 1
 125 279.512 l 1
 129.671 269.171 145.122 256.175 183.469 234.344 c 0
 196.871 226.714 209.606 218.788 221.387 210.54 c 1
 227.732 208.033 234.274 205.18 241 201.992 c 1
50 152.007 m 1xe5c8
 61.6204 124.935 82.5177 105.486 141 69.8725 c 1
 141 158.176 l 1
 90.6321 188.535 64.9763 208.407 50 231.015 c 1
 50 152.007 l 1xe5c8
151 152.128 m 1
 151 66.1627 l 1
 153.837 65.9082 156.582 65.7812 159.234 65.7812 c 0
 166.031 65.7812 189.324 65.6275 203.859 86.7969 c 0
 207.421 91.985 208.781 96.2812 208.781 100.125 c 0
 208.781 110.897 198.071 123.321 151 152.128 c 1
114.272 74.8186 m 1
 70.4965 103.22 51.4457 122.726 40.375 149.109 c 0
 34.875 162.219 32.7188 175.641 32.7188 188.344 c 2xe5c8
 32.7188 288.344 l 2xe9c8
 32.7188 337.688 70.3594 378.375 130.031 389.906 c 0
 137.5 391.344 145.922 392.125 155.047 392.125 c 0
 190.141 392.125 235.114 382.009 266.234 366.469 c 2
 279 360.094 l 1
 279 280 l 1
 279 271.906 l 1
 279 180 l 1
 279 171.906 l 1
 271.766 175.531 l 1
 254 184.414 l 1
 281.489 158.715 298.656 130.134 298.656 98.0625 c 2
 298.656 -1.9375 l 2
 298.656 -17.5781 294.469 -33.3438 286.469 -49.25 c 0
 273.641 -74.75 249.297 -92.7175 213.562 -104.75 c 0
 201.5 -108.812 180.344 -110.25 158.625 -110.25 c 0
 124.438 -110.25 107.11 -106.216 101.719 -104.828 c 0
 83.0343 -100.019 37.0165 -81.0303 32.4688 -76.5312 c 2
 31 -75.0781 l 1
 31 -73 l 1
 31 25.9292 l 2xf1e8
 30.9189 26.2064 30.8457 26.5197 30.7812 26.875 c 0
 29.8214 32.1578 30 53.4844 30 69.0625 c 2
 31.2188 119.016 l 1
 52.6562 105.234 l 2
 75.2126 91.4714 95.8703 81.3585 114.272 74.8186 c 1
EndSplineSet
Validated: 33
EndChar

StartChar: uni0074
Encoding: 116 116 85
Width: 282
Flags: W
HStem: -110.984 10<149.449 230.601> -10.9844 78.7032<159.098 259.923> 206 10<5 28 38 61 148.041 198 208 259> 306 80<148 198 208 259>
VStem: -5 10<216.169 306.367> 28 10<216.003 306> 61 87<77.3731 206 216 306> 62 10.3884<-32.1781 49.6019> 90 10<-59.3933 16.9043> 198 10<216 306> 259 10<-82.7867 2.6058 216 306> 277 10<-80.5312 8.7873>
LayerCount: 2
Fore
SplineSet
66.4844 392.547 m 0xfd70
 80.5803 406.436 129.688 455.5 137.359 461.578 c 0
 139.125 462.969 140.438 463.453 141 463 c 0
 144.016 460.625 145.391 462.641 146.359 457.859 c 0
 147.406 452.625 148 434.359 148 420 c 2
 148 386 l 1xfe70
 269 386 l 1
 269 311 l 1
 269 306 l 1
 269 211 l 1
 269 206 l 1
 264 206 l 1
 203 206 l 1
 148.041 206 l 1
 149.008 111.63 149.326 109.507 153.625 98.8906 c 0
 164.047 73.1562 184.016 67.7188 200.406 67.7188 c 0
 217.719 67.7188 239.52 73.4583 264.641 86.4062 c 0
 272.25 90.3281 278.234 92.6719 278.406 92.7344 c 2
 279.203 92.875 l 1
 280 93 l 1
 283.141 89.7812 284.4 92.6238 285.375 87.7812 c 0
 286.772 80.842 287 59.1562 287 52 c 2
 287 16 l 1
 287 12.5312 l 1
 287 -84 l 1
 287 -87.4688 l 1
 283.75 -88.6875 l 2
 278.421 -90.6857 273.109 -92.4688 267.844 -94.6406 c 0
 241.596 -105.468 214.781 -110.984 189.219 -110.984 c 0
 150.812 -110.984 115.312 -99.0938 91.4844 -75.5625 c 0
 64.1875 -48.5938 62.8368 -40.7655 62 97.9844 c 0
 61.799 131.305 61.9999 164.658 61.9999 197.978 c 2
 61.929 206 l 1
 33 206 l 2
 18.875 206 7.85938 205.938 3.0625 206.594 c 0
 -4.17188 207.594 -4.99682 211.609 -5 215 c 0
 -5.03125 248.328 -5 281.672 -5 315 c 0
 -5 315.516 -4.99876 316.596 -4.15625 318.375 c 0
 -0.212933 326.7 31.1149 357.697 66.4844 392.547 c 0xfd70
5 216.464 m 1
 7.89656 216.132 13.1831 216.021 28 216.003 c 1
 28 306.001 l 1
 12.688 306.01 8.12947 306.073 5 306.367 c 1
 5 216.464 l 1
38 216 m 1
 61 216 l 1
 61 306 l 1
 38 306 l 1
 38 216 l 1
100 -69.8713 m 1xfcf0
 121.516 -90.191 153.686 -100.984 189.219 -100.984 c 0
 212.374 -100.984 237.02 -96.3102 261 -86.6599 c 1
 261 2.6058 l 1
 237.015 -6.56927 212.557 -10.9844 189.219 -10.9844 c 0
 155.154 -10.9844 123.376 -1.62938 100 16.9043 c 1
 100 -69.8713 l 1xfcf0
90 -59.3933 m 1
 90 25.9111 l 1
 81.9845 33.9164 76.3643 40.4048 72.3884 49.6019 c 1xfdf0
 73.2947 -24.9171 75.9604 -42.6525 90 -59.3933 c 1
271 -82.7867 m 1
 277 -80.5312 l 1
 277 8.7873 l 1
 271 6.54096 l 1
 271 -82.7867 l 1
208 216 m 1
 259 216 l 1
 259 306 l 1
 208 306 l 1
 208 216 l 1
198 216 m 1
 198 306 l 1
 148 306 l 1
 148 216 l 1xfe70
 198 216 l 1
61.9999 197.978 m 1
 62 197.953 l 2
 62.8361 103.983 63.5365 70.0788 72.3884 49.6019 c 1
 63.5364 70.0789 62.8361 103.983 62 197.953 c 2xfd70
 61.9999 197.978 l 1
EndSplineSet
Validated: 37
EndChar

StartChar: uni0075
Encoding: 117 117 86
Width: 426
Flags: W
HStem: -111.391 10<145.593 216.016> -105 10<301 330 340 368> -11.3906 74.0781<151.764 257.855>
VStem: 47 88<80.1726 386> 47 10.849<4.70234 75.4285> 87 10<-58.5224 17.7741> 275 10<-58.4966 20.9212> 291 10<-95 -66.5035 -53.6229 -5> 330 10<-95 -5> 368 10<-95 -5>
LayerCount: 2
Fore
SplineSet
291 -66.5035 m 1x73c0
 283.141 -72.8906 l 2
 251.344 -98.4219 214.656 -111.391 179.578 -111.391 c 0xb3c0
 145.594 -111.391 113.312 -98.9531 88.4844 -74.5625 c 0
 51.1719 -37.875 47 -10.3906 47 175 c 2
 47 275 l 1
 47 386 l 1
 133.953 386 l 1
 135 257.031 l 2
 136.083 123.689 136.688 115.969 147.578 91.0156 c 0
 155.844 72.0781 175.688 62.6875 199.594 62.6875 c 0
 225.625 62.6875 255.906 74.4844 278.438 97.5156 c 2
 291 110.078 l 1
 291 386 l 1
 378 386 l 1
 378 0 l 1
 378 -5 l 1
 378 -100 l 1
 378 -105 l 1
 373 -105 l 1
 335 -105 l 1
 291 -105 l 1
 291 -100 l 1
 291 -66.5035 l 1x73c0
291 -53.6229 m 1
 291 -5 l 1
 291 0 l 1
 291 33.5 l 1
 285 28.6211 l 1
 285 -58.4966 l 1
 291 -53.6229 l 1
340 -95 m 1x63c0
 368 -95 l 1
 368 -5 l 1
 340 -5 l 1
 340 -95 l 1x63c0
330 -95 m 1
 330 -5 l 1
 301 -5 l 1
 301 -95 l 1
 330 -95 l 1
97 -68.8727 m 1xa7c0
 119.622 -90.3783 148.634 -101.391 179.578 -101.391 c 0
 211.52 -101.391 245.289 -89.8173 275 -66.5827 c 1
 275 20.9212 l 1
 245.17 -0.51604 211.699 -11.3906 179.578 -11.3906 c 0
 149.358 -11.3906 120.483 -1.55551 97 17.7741 c 1
 97 -68.8727 l 1xa7c0
87 -58.5224 m 1
 87 26.91 l 1
 72.9852 40.9411 63.8181 53.942 57.849 75.4285 c 1x2fc0
 59.9501 -10.5879 66.7792 -35.5613 87 -58.5224 c 1
EndSplineSet
Validated: 1
EndChar

